<svg width="72" height="80" viewBox="0 0 72 80" fill="none" xmlns="http://www.w3.org/2000/svg">
<path d="M0 7C0 3.13401 3.13401 0 7 0H65C68.866 0 72 3.13401 72 7V73C72 76.866 68.866 80 65 80H7C3.13401 80 0 76.866 0 73V7Z" fill="#E3B64B"/>
<path d="M37.7684 48.5434C37.7703 48.5411 37.7722 48.5387 37.7742 48.5364L43.7252 41.3325C43.7722 41.2753 43.8139 41.212 43.8497 41.1439L43.943 40.9365L43.9819 40.795L43.9819 40.6913C44.006 40.5323 44.006 40.3694 43.9819 40.2104L43.9819 40.1161L43.9819 40.003L43.9119 39.8427C43.8719 39.7533 43.8222 39.6709 43.7641 39.5975L37.7742 32.3653C37.3778 31.881 36.7326 31.8778 36.333 32.3583C36.3311 32.3606 36.3292 32.3629 36.3273 32.3653C35.943 32.8535 35.943 33.6215 36.3273 34.1097L39.8745 38.4189C40.0249 38.6048 40.0225 38.9033 39.8691 39.0856C39.7977 39.1704 39.7022 39.2186 39.6023 39.2203L28.0191 39.2203C27.4563 39.2203 27 39.7733 27 40.4555C27 41.1377 27.4562 41.6907 28.019 41.6908L28.0191 41.6908L39.6023 41.6908C39.817 41.6945 39.9888 41.9085 39.9857 42.1688C39.9843 42.2899 39.9445 42.4058 39.8745 42.4923L36.3273 46.7826C35.938 47.272 35.938 48.047 36.3273 48.5365C36.7236 49.0207 37.3689 49.0239 37.7684 48.5434Z" fill="#012322" fill-opacity="0.97"/>
</svg>
