<svg width="1219" height="417" viewBox="0 0 1219 417" fill="none" xmlns="http://www.w3.org/2000/svg">
<path d="M3 71C3 62.7157 9.71573 56 18 56H1204C1212.28 56 1219 62.7157 1219 71V402C1219 410.284 1212.28 417 1204 417H18C9.71574 417 3 410.284 3 402V71Z" fill="#124342"/>
<path opacity="0.3" d="M0 404.28V316.922V282.178C67.936 299.164 252.391 335.585 446.723 345.379C641.055 355.174 1042.1 293.208 1218.34 261C1218.84 305.01 1219.54 395.279 1218.34 404.28C1217.13 413.28 1208.56 416.413 1204.42 416.854C811.973 416.964 24.4419 417.119 13.9131 416.854C3.38427 416.589 0.250686 408.361 0 404.28Z" fill="#F5F5F5"/>
<circle cx="3" cy="3" r="3" transform="matrix(-4.37114e-08 1 1 4.37114e-08 74 251)" fill="white"/>
<circle cx="3" cy="3" r="3" transform="matrix(-4.37114e-08 1 1 4.37114e-08 74 305.583)" fill="white"/>
<circle cx="3" cy="3" r="3" transform="matrix(-4.37114e-08 1 1 4.37114e-08 74 278.292)" fill="white"/>
<circle cx="3" cy="3" r="3" transform="matrix(-4.37114e-08 1 1 4.37114e-08 74 332.875)" fill="white"/>
<circle cx="3" cy="3" r="3" transform="matrix(-4.37114e-08 1 1 4.37114e-08 98.1726 251)" fill="white"/>
<circle cx="3" cy="3" r="3" transform="matrix(-4.37114e-08 1 1 4.37114e-08 98.1724 305.583)" fill="white"/>
<circle cx="3" cy="3" r="3" transform="matrix(-4.37114e-08 1 1 4.37114e-08 98.1724 278.292)" fill="white"/>
<circle cx="3" cy="3" r="3" transform="matrix(-4.37114e-08 1 1 4.37114e-08 98.1724 332.875)" fill="white"/>
<circle cx="3" cy="3" r="3" transform="matrix(-4.37114e-08 1 1 4.37114e-08 122.345 251)" fill="white"/>
<circle cx="3" cy="3" r="3" transform="matrix(-4.37114e-08 1 1 4.37114e-08 122.345 305.583)" fill="white"/>
<circle cx="3" cy="3" r="3" transform="matrix(-4.37114e-08 1 1 4.37114e-08 122.345 278.292)" fill="white"/>
<circle cx="3" cy="3" r="3" transform="matrix(-4.37114e-08 1 1 4.37114e-08 122.345 332.875)" fill="white"/>
<circle cx="3" cy="3" r="3" transform="matrix(-4.37114e-08 1 1 4.37114e-08 146.518 251)" fill="white"/>
<circle cx="3" cy="3" r="3" transform="matrix(-4.37114e-08 1 1 4.37114e-08 146.518 305.583)" fill="white"/>
<circle cx="3" cy="3" r="3" transform="matrix(-4.37114e-08 1 1 4.37114e-08 146.518 278.292)" fill="white"/>
<circle cx="3" cy="3" r="3" transform="matrix(-4.37114e-08 1 1 4.37114e-08 146.518 332.875)" fill="white"/>
<circle cx="3" cy="3" r="3" transform="matrix(-4.37114e-08 1 1 4.37114e-08 170.69 251)" fill="white"/>
<circle cx="3" cy="3" r="3" transform="matrix(-4.37114e-08 1 1 4.37114e-08 170.691 305.583)" fill="white"/>
<circle cx="3" cy="3" r="3" transform="matrix(-4.37114e-08 1 1 4.37114e-08 170.691 278.292)" fill="white"/>
<circle cx="3" cy="3" r="3" transform="matrix(-4.37114e-08 1 1 4.37114e-08 170.691 332.875)" fill="white"/>
<circle cx="3" cy="3" r="3" transform="matrix(-4.37114e-08 1 1 4.37114e-08 194.863 251)" fill="white"/>
<circle cx="3" cy="3" r="3" transform="matrix(-4.37114e-08 1 1 4.37114e-08 194.863 305.583)" fill="white"/>
<circle cx="3" cy="3" r="3" transform="matrix(-4.37114e-08 1 1 4.37114e-08 194.863 278.292)" fill="white"/>
<circle cx="3" cy="3" r="3" transform="matrix(-4.37114e-08 1 1 4.37114e-08 194.863 332.875)" fill="white"/>
<circle cx="3" cy="3" r="3" transform="matrix(1 0 0 -1 1060 126.863)" fill="white"/>
<circle cx="3" cy="3" r="3" transform="matrix(1 0 0 -1 1114.58 126.863)" fill="white"/>
<circle cx="3" cy="3" r="3" transform="matrix(1 0 0 -1 1087.29 126.863)" fill="white"/>
<circle cx="3" cy="3" r="3" transform="matrix(1 0 0 -1 1141.88 126.863)" fill="white"/>
<circle cx="3" cy="3" r="3" transform="matrix(1 0 0 -1 1060 102.69)" fill="white"/>
<circle cx="3" cy="3" r="3" transform="matrix(1 0 0 -1 1114.58 102.69)" fill="white"/>
<circle cx="3" cy="3" r="3" transform="matrix(1 0 0 -1 1087.29 102.69)" fill="white"/>
<circle cx="3" cy="3" r="3" transform="matrix(1 0 0 -1 1141.88 102.69)" fill="white"/>
<circle cx="3" cy="3" r="3" transform="matrix(1 0 0 -1 1060 78.5186)" fill="white"/>
<circle cx="3" cy="3" r="3" transform="matrix(1 0 0 -1 1114.58 78.5186)" fill="white"/>
<circle cx="3" cy="3" r="3" transform="matrix(1 0 0 -1 1087.29 78.5186)" fill="white"/>
<circle cx="3" cy="3" r="3" transform="matrix(1 0 0 -1 1141.88 78.5186)" fill="white"/>
<circle cx="3" cy="3" r="3" transform="matrix(1 0 0 -1 1060 54.3447)" fill="white"/>
<circle cx="3" cy="3" r="3" transform="matrix(1 0 0 -1 1114.58 54.3447)" fill="white"/>
<circle cx="3" cy="3" r="3" transform="matrix(1 0 0 -1 1087.29 54.3447)" fill="white"/>
<circle cx="3" cy="3" r="3" transform="matrix(1 0 0 -1 1141.88 54.3447)" fill="white"/>
<circle cx="3" cy="3" r="3" transform="matrix(1 0 0 -1 1060 30.1729)" fill="white"/>
<circle cx="3" cy="3" r="3" transform="matrix(1 0 0 -1 1114.58 30.1729)" fill="white"/>
<circle cx="3" cy="3" r="3" transform="matrix(1 0 0 -1 1087.29 30.1729)" fill="white"/>
<circle cx="3" cy="3" r="3" transform="matrix(1 0 0 -1 1141.88 30.1729)" fill="white"/>
<circle cx="3" cy="3" r="3" transform="matrix(1 0 0 -1 1060 6)" fill="white"/>
<circle cx="3" cy="3" r="3" transform="matrix(1 0 0 -1 1114.58 6)" fill="white"/>
<circle cx="3" cy="3" r="3" transform="matrix(1 0 0 -1 1087.29 6)" fill="white"/>
<circle cx="3" cy="3" r="3" transform="matrix(1 0 0 -1 1141.88 6)" fill="white"/>
</svg>
