<svg width="16" height="14" viewBox="0 0 16 14" fill="none" xmlns="http://www.w3.org/2000/svg">
<path d="M16 8.40005V13.3C16 13.6864 15.744 14 15.4286 14C15.1131 14 14.8571 13.6864 14.8571 13.3V12.6H1.14286V13.3C1.14286 13.6864 0.886857 14 0.571429 14C0.256 14 0 13.6864 0 13.3V8.40005C0 7.24225 0.769143 6.30005 1.71429 6.30005H14.2857C15.2309 6.30005 16 7.24225 16 8.40005Z" fill="#E3B64B"/>
<path d="M1.71429 4.9V0.7C1.71429 0.3136 1.97029 0 2.28572 0H13.7143C14.0297 0 14.2857 0.3136 14.2857 0.7V4.9H12.5714V4.2C12.5714 3.4279 12.0589 2.8 11.4286 2.8H9.71429C9.08401 2.8 8.57144 3.4279 8.57144 4.2V4.9H7.42858V4.2C7.42858 3.4279 6.91601 2.8 6.28572 2.8H4.57144C3.94115 2.8 3.42858 3.4279 3.42858 4.2V4.9H1.71429Z" fill="#E3B64B"/>
</svg>
