<svg width="21" height="21" viewBox="0 0 21 21" fill="none" xmlns="http://www.w3.org/2000/svg">
<path d="M10.2668 0.770752C15.6513 0.770752 20.0161 5.13548 20.0161 10.52C20.0161 15.9045 15.6513 20.2692 10.2668 20.2692C8.54392 20.272 6.85133 19.816 5.36296 18.9482L0.521492 20.2692L1.83959 15.4258C0.971022 13.937 0.514713 12.2436 0.517592 10.52C0.517592 5.13548 4.88232 0.770752 10.2668 0.770752ZM6.94428 5.93784L6.7493 5.94564C6.62307 5.95333 6.4997 5.98649 6.38663 6.04314C6.28087 6.10303 6.18433 6.17789 6.1 6.26542C5.98301 6.37558 5.91672 6.47113 5.84555 6.56374C5.48494 7.03259 5.29079 7.60819 5.29374 8.19967C5.29569 8.67738 5.42048 9.14242 5.61546 9.57723C6.01421 10.4566 6.67033 11.3877 7.53606 12.2505C7.7447 12.4581 7.94943 12.6668 8.16976 12.8608C9.24548 13.8079 10.5274 14.4909 11.9135 14.8555L12.4672 14.9403C12.6476 14.95 12.8279 14.9364 13.0093 14.9276C13.2932 14.913 13.5705 14.8361 13.8214 14.7024C13.9491 14.6366 14.0737 14.5651 14.1948 14.4879C14.1948 14.4879 14.2367 14.4606 14.3167 14.4002C14.4483 14.3027 14.5292 14.2335 14.6384 14.1194C14.7193 14.0356 14.7895 13.9371 14.8431 13.825C14.9192 13.6661 14.9952 13.3629 15.0264 13.1104C15.0498 12.9173 15.043 12.812 15.04 12.7467C15.0361 12.6424 14.9494 12.5342 14.8548 12.4884L14.2874 12.2339C14.2874 12.2339 13.4392 11.8644 12.9206 11.6285C12.8663 11.6048 12.8081 11.5912 12.749 11.5885C12.6823 11.5816 12.6149 11.5892 12.5513 11.6105C12.4877 11.6319 12.4295 11.6666 12.3805 11.7123C12.3756 11.7104 12.3103 11.7659 11.6054 12.62C11.5649 12.6743 11.5092 12.7154 11.4453 12.738C11.3814 12.7606 11.3122 12.7636 11.2466 12.7467C11.1831 12.7297 11.1209 12.7082 11.0604 12.6824C10.9395 12.6317 10.8976 12.6122 10.8147 12.5771C10.2552 12.3329 9.73713 12.003 9.27923 11.5992C9.15639 11.492 9.04232 11.375 8.92533 11.2619C8.54178 10.8946 8.20752 10.479 7.93091 10.0257L7.87339 9.93308C7.83207 9.87084 7.79867 9.80371 7.77394 9.73322C7.7369 9.58991 7.83341 9.47487 7.83341 9.47487C7.83341 9.47487 8.07032 9.21554 8.18049 9.07515C8.28773 8.93866 8.3784 8.80607 8.43689 8.7115C8.55193 8.52627 8.588 8.33616 8.52756 8.18894C8.25458 7.52209 7.97185 6.85817 7.68133 6.19912C7.62381 6.06848 7.45319 5.97489 7.29818 5.95637C7.24554 5.95052 7.19289 5.94467 7.14024 5.94077C7.00932 5.93426 6.87812 5.93557 6.74735 5.94467L6.94331 5.93687L6.94428 5.93784Z" fill="#124342"/>
</svg>
