<svg width="18" height="18" viewBox="0 0 18 18" fill="none" xmlns="http://www.w3.org/2000/svg">
<path d="M16.1155 17.5891C14.1283 17.5891 12.1914 17.1461 10.3046 16.26C8.41791 15.374 6.74653 14.2032 5.29051 12.7478C3.83449 11.2924 2.66375 9.62106 1.77831 7.73371C0.892865 5.84637 0.449835 3.90942 0.449219 1.92287C0.449219 1.64559 0.541645 1.41452 0.726498 1.22967C0.91135 1.04482 1.14242 0.952393 1.4197 0.952393H5.16296C5.37862 0.952393 5.57118 1.02171 5.74063 1.16035C5.91008 1.29899 6.0102 1.47614 6.04101 1.6918L6.64178 4.92673C6.67259 5.14239 6.66859 5.33895 6.62977 5.51641C6.59095 5.69386 6.50253 5.8516 6.3645 5.98963L4.14627 8.25407C4.79326 9.36319 5.60199 10.403 6.57246 11.3735C7.54294 12.3439 8.61355 13.1835 9.78428 13.8921L11.9563 11.7201C12.0949 11.5814 12.2761 11.4776 12.4998 11.4086C12.7234 11.3396 12.9428 11.3202 13.1578 11.3504L16.3465 11.9973C16.5622 12.0436 16.7394 12.1477 16.878 12.3097C17.0166 12.4718 17.086 12.6603 17.086 12.8754V16.6187C17.086 16.8959 16.9935 17.127 16.8087 17.3119C16.6238 17.4967 16.3928 17.5891 16.1155 17.5891Z" fill="#124342"/>
</svg>
