<svg width="36" height="29" viewBox="0 0 36 29" fill="none" xmlns="http://www.w3.org/2000/svg">
<path d="M31.7093 0.614746H3.87221C1.95841 0.614746 0.409976 2.18058 0.409976 4.09438L0.392578 24.9722C0.392578 26.886 1.95841 28.4518 3.87221 28.4518H31.7093C33.6231 28.4518 35.1889 26.886 35.1889 24.9722V4.09438C35.1889 2.18058 33.6231 0.614746 31.7093 0.614746ZM31.0134 8.00897L18.7129 15.699C18.1561 16.0469 17.4254 16.0469 16.8686 15.699L4.56814 8.00897C4.39368 7.91103 4.24091 7.77872 4.11907 7.62004C3.99723 7.46135 3.90886 7.2796 3.85929 7.08577C3.80973 6.89194 3.80001 6.69007 3.83073 6.49238C3.86144 6.29469 3.93195 6.10528 4.03798 5.93563C4.14402 5.76597 4.28337 5.6196 4.44762 5.50536C4.61186 5.39112 4.79757 5.3114 4.99352 5.27101C5.18946 5.23063 5.39156 5.23042 5.58759 5.2704C5.78362 5.31039 5.9695 5.38973 6.13397 5.50363L17.7907 12.7935L29.4475 5.50363C29.612 5.38973 29.7979 5.31039 29.9939 5.2704C30.1899 5.23042 30.392 5.23063 30.588 5.27101C30.7839 5.3114 30.9696 5.39112 31.1339 5.50536C31.2981 5.6196 31.4375 5.76597 31.5435 5.93563C31.6495 6.10528 31.7201 6.29469 31.7508 6.49238C31.7815 6.69007 31.7718 6.89194 31.7222 7.08577C31.6726 7.2796 31.5843 7.46135 31.4624 7.62004C31.3406 7.77872 31.1878 7.91103 31.0134 8.00897Z" fill="#124342"/>
</svg>
