<svg width="46" height="41" viewBox="0 0 46 41" fill="none" xmlns="http://www.w3.org/2000/svg">
<path fill-rule="evenodd" clip-rule="evenodd" d="M19.5623 0.918994C13.0115 2.36349 7.75673 7.31638 6.03768 13.667L5.61232 15.2392L4.25902 15.3371C2.71003 15.4492 1.61918 16.0912 0.974118 17.2704C0.365398 18.3831 0.365398 25.739 0.974118 26.8517C1.76334 28.2945 2.663 28.7014 5.26509 28.7931C9.54418 28.9439 9.46841 29.0755 9.46841 21.4872C9.46841 16.3356 9.50143 15.9254 10.0569 14.1764C13.1029 4.58462 25.183 1.40968 32.4706 8.28539C34.2592 9.97309 35.6078 12.0786 36.35 14.3422C36.81 15.7454 36.8658 16.5488 36.9622 23.1619C37.0874 31.7334 36.9763 32.4475 35.2475 34.1761C33.9944 35.4294 32.4459 35.955 30.0074 35.955C28.4152 35.955 28.2898 35.9165 28.0312 35.3489C27.5405 34.272 26.395 34.0017 22.7045 34.0925L19.4041 34.1737L18.7113 34.9494C18.1109 35.6215 18.0185 35.9129 18.0185 37.1351C18.0185 40.1087 18.5952 40.4675 23.3742 40.4675H26.8536L27.6849 39.6363C28.4789 38.8423 28.5924 38.8048 30.2143 38.8012C35.7762 38.7891 39.5368 35.607 39.8232 30.6705L39.9298 28.8299H41.3682C43.0342 28.8299 44.4797 28.2259 45.2126 27.2232C45.6389 26.6401 45.6945 26.1354 45.7558 22.2985C45.8168 18.4695 45.7769 17.9368 45.3727 17.1922C44.782 16.104 43.6152 15.4392 42.0379 15.2922L40.7635 15.1735L40.2467 13.3922C38.4267 7.12044 32.972 2.11838 26.6297 0.904744C24.4715 0.491964 21.4721 0.497901 19.5623 0.918994ZM27.9908 14.8046C27.7932 14.9205 26.301 16.4728 24.6745 18.2543L21.7176 21.4936L20.086 19.8325C18.276 17.9902 17.5117 17.6634 16.3805 18.2484C15.4924 18.7075 15.1685 19.2785 15.1685 20.3843C15.1685 21.1326 15.4673 21.5561 17.6998 23.9744C20.3743 26.871 20.746 27.1723 21.6248 27.159C22.5688 27.1446 23.0797 26.6943 27.2553 22.1983C31.1726 17.9803 31.3187 17.7872 31.3187 16.8274C31.3187 15.5019 30.4471 14.5766 29.2082 14.5868C28.7361 14.5909 28.1882 14.6889 27.9908 14.8046Z" fill="#124342"/>
</svg>
