<svg width="444" height="129" viewBox="0 0 444 129" fill="none" xmlns="http://www.w3.org/2000/svg">
<path d="M26.3868 71.2139L26.3823 70.8202C26.226 57.3743 31.4429 50.8318 43.2843 49.5727C44.5227 49.4371 45.6522 50.3326 45.7879 51.6031C45.9233 52.8433 44.9989 53.9747 43.7604 54.1103C34.275 55.0995 30.7889 59.6229 30.9187 70.7975L30.9233 71.1912C31.0665 83.5167 35.4719 87.8266 47.7799 87.6828L67.4969 87.4524C79.8049 87.3086 84.1089 82.8968 83.9657 70.5714L83.9611 70.1777C83.8306 58.9425 80.1799 54.5025 70.4933 53.798C69.2517 53.661 68.3023 52.6423 68.4081 51.3387C68.484 50.0658 69.5924 49.1442 70.8333 49.2205C82.8811 50.1095 88.3396 56.5576 88.4969 70.0944L88.5015 70.4881C88.6742 85.3574 82.3976 91.7911 67.5493 91.9647L47.8323 92.1951C32.9841 92.3686 26.5596 86.0832 26.3868 71.2139Z" fill="#E0B109"/>
<path d="M55.1636 69.7856L54.7104 30.7794C54.6959 29.5378 55.7123 28.4961 56.9523 28.4816C58.1924 28.4671 59.2327 29.4847 59.2471 30.7264L59.7003 69.7326C59.7148 70.9743 58.6984 72.016 57.4584 72.0305C56.2183 72.0449 55.1784 71.0576 55.1636 69.7856Z" fill="#E0B109"/>
<path d="M44.9552 63.1503C44.9485 62.5749 45.1535 61.997 45.6018 61.5375C46.4686 60.649 47.9201 60.6321 48.8073 61.5L57.4344 69.9403L65.8631 61.3007C66.7299 60.4123 68.1815 60.3953 69.0687 61.2633C69.9559 62.1313 69.9727 63.5849 69.106 64.4733L59.0932 74.7367C58.2264 75.6252 56.7748 75.6421 55.8876 74.7742L45.6391 64.7475C45.1802 64.2986 44.9619 63.7257 44.9552 63.1503Z" fill="#E0B109"/>
<path d="M96.8743 60.4609L96.8746 43.6609L103.715 43.6608C109.091 43.6607 112.715 47.1166 112.714 52.0606C112.714 57.0046 109.09 60.4607 103.714 60.4608L96.8743 60.4609ZM98.6503 58.9249L103.618 58.9248C108.082 58.9247 110.962 56.0927 110.962 52.0607C110.962 48.0287 108.083 45.1967 103.619 45.1968L98.6505 45.1969L98.6503 58.9249ZM121.502 60.5805C117.806 60.5805 115.07 57.8926 115.071 54.1486C115.071 50.4046 117.807 47.7405 121.503 47.7405C125.199 47.7404 127.911 50.4044 127.911 54.1484C127.91 57.8924 125.198 60.5804 121.502 60.5805ZM121.502 59.0685C124.19 59.0684 126.182 57.1004 126.183 54.1484C126.183 51.1964 124.191 49.2284 121.503 49.2285C118.815 49.2285 116.799 51.1966 116.799 54.1486C116.798 57.1006 118.814 59.0685 121.502 59.0685ZM148.006 47.836L149.566 47.836L144.79 60.4601L143.182 60.4601L139.198 50.1162L135.214 60.4603L133.606 60.4603L128.854 47.8364L130.486 47.8363L134.446 58.5643L138.502 47.8362L139.966 47.8362L143.998 58.5641L148.006 47.836ZM158.564 47.7399C161.636 47.7398 163.748 49.5158 163.748 53.1398L163.747 60.4598L162.043 60.4598L162.044 53.3078C162.044 50.6438 160.652 49.2758 158.252 49.2759C155.54 49.2759 153.836 50.9559 153.836 53.8359L153.835 60.4599L152.131 60.46L152.132 47.836L153.764 47.8359L153.764 50.1639C154.676 48.6279 156.38 47.7399 158.564 47.7399ZM168.374 60.4597L168.374 42.6517L170.078 42.6517L170.078 60.4597L168.374 60.4597ZM179.979 60.5795C176.283 60.5796 173.547 57.8916 173.547 54.1476C173.547 50.4036 176.283 47.7396 179.979 47.7395C183.675 47.7394 186.387 50.4034 186.387 54.1474C186.387 57.8914 183.675 60.5794 179.979 60.5795ZM179.979 59.0675C182.667 59.0674 184.659 57.0994 184.659 54.1474C184.659 51.1954 182.667 49.2274 179.979 49.2275C177.291 49.2275 175.275 51.1956 175.275 54.1476C175.275 57.0996 177.291 59.0675 179.979 59.0675ZM194.212 47.7392C197.476 47.7392 199.324 49.3712 199.324 52.6352L199.323 60.4592L197.691 60.4592L197.692 58.4912C196.924 59.7872 195.435 60.5792 193.347 60.5793C190.491 60.5793 188.74 59.0913 188.74 56.9073C188.74 54.9633 189.988 53.3313 193.612 53.3313L197.62 53.3312L197.62 52.5632C197.62 50.4032 196.396 49.2272 194.044 49.2273C192.412 49.2273 190.876 49.8033 189.844 50.7153L189.076 49.4433C190.348 48.3633 192.22 47.7393 194.212 47.7392ZM193.612 59.2353C195.532 59.2352 196.948 58.3232 197.62 56.6672L197.62 54.6032L193.66 54.6033C191.212 54.6033 190.42 55.5633 190.42 56.8593C190.42 58.3233 191.596 59.2353 193.612 59.2353ZM213.815 42.6509L215.519 42.6509L215.519 60.4589L213.887 60.4589L213.887 57.9629C212.855 59.6669 211.103 60.579 209.015 60.579C205.415 60.5791 202.727 57.9631 202.727 54.1471C202.727 50.3311 205.415 47.7391 209.015 47.739C211.031 47.739 212.759 48.6029 213.815 50.2349L213.815 42.6509ZM209.159 59.067C211.823 59.067 213.839 57.0989 213.839 54.1469C213.839 51.1949 211.823 49.227 209.159 49.227C206.471 49.227 204.455 51.1951 204.455 54.1471C204.455 57.0991 206.471 59.067 209.159 59.067ZM239.913 59.5945L238.929 60.7225L236.602 58.3225C235.185 59.8346 233.265 60.6026 230.985 60.6026C227.697 60.6027 225.346 58.8747 225.346 56.3307C225.346 54.3387 226.498 52.8747 229.57 51.0987C227.938 49.4187 227.458 48.4107 227.458 47.1147C227.458 44.9787 229.114 43.5387 231.706 43.5386C234.082 43.5386 235.618 44.7865 235.618 46.8745C235.618 48.5545 234.61 49.7306 231.874 51.3146L236.482 56.0665C236.986 55.1785 237.37 54.0985 237.61 52.8265L239.002 53.2585C238.69 54.7705 238.186 56.0665 237.514 57.1225L239.913 59.5945ZM231.706 44.8106C230.026 44.8106 229.042 45.7467 229.042 47.0907C229.042 48.0747 229.402 48.7707 230.938 50.3306C233.362 48.9386 234.154 48.0986 234.154 46.8986C234.154 45.6506 233.266 44.8106 231.706 44.8106ZM231.081 59.1866C232.905 59.1866 234.442 58.5626 235.594 57.2906L230.53 52.0826C227.842 53.6187 227.026 54.6747 227.026 56.1627C227.026 57.9867 228.657 59.1867 231.081 59.1866ZM268.939 60.458L266.995 60.458L263.155 55.0581C262.723 55.1061 262.291 55.1301 261.811 55.1301L257.299 55.1302L257.299 60.4582L255.523 60.4582L255.523 43.6582L261.811 43.6581C266.083 43.658 268.675 45.818 268.675 49.418C268.675 52.058 267.283 53.906 264.835 54.6981L268.939 60.458ZM261.763 53.6181C265.123 53.6181 266.899 52.058 266.899 49.418C266.899 46.73 265.123 45.194 261.763 45.1941L257.299 45.1942L257.299 53.6182L261.763 53.6181ZM283.522 54.1457C283.522 54.2897 283.498 54.4817 283.498 54.6737L272.938 54.6739C273.13 57.3139 275.146 59.0659 277.906 59.0658C279.442 59.0658 280.81 58.5138 281.77 57.4098L282.73 58.5138C281.602 59.8578 279.85 60.5778 277.858 60.5778C273.922 60.5779 271.234 57.8899 271.235 54.1459C271.235 50.4019 273.851 47.7379 277.403 47.7378C280.955 47.7378 283.523 50.3537 283.522 54.1457ZM277.403 49.2018C274.955 49.2019 273.155 50.9299 272.939 53.4019L281.891 53.4018C281.675 50.9298 279.875 49.2018 277.403 49.2018ZM291.055 47.7376C294.319 47.7376 296.167 49.3695 296.167 52.6335L296.167 60.4575L294.535 60.4576L294.535 58.4896C293.767 59.7856 292.279 60.5776 290.191 60.5776C287.335 60.5777 285.583 59.0897 285.583 56.9057C285.583 54.9617 286.831 53.3297 290.455 53.3296L294.463 53.3296L294.463 52.5616C294.463 50.4016 293.239 49.2256 290.887 49.2256C289.255 49.2256 287.719 49.8017 286.687 50.7137L285.919 49.4417C287.191 48.3617 289.063 47.7376 291.055 47.7376ZM290.455 59.2336C292.375 59.2336 293.791 58.3216 294.463 56.6656L294.463 54.6016L290.503 54.6016C288.055 54.6017 287.263 55.5617 287.263 56.8577C287.263 58.3217 288.439 59.2337 290.455 59.2336ZM310.659 42.6493L312.363 42.6492L312.362 60.4573L310.73 60.4573L310.73 57.9613C309.698 59.6653 307.946 60.5773 305.858 60.5774C302.258 60.5774 299.57 57.9615 299.57 54.1455C299.57 50.3295 302.259 47.7374 305.859 47.7374C307.875 47.7373 309.603 48.6013 310.658 50.2333L310.659 42.6493ZM306.002 59.0654C308.666 59.0653 310.682 57.0973 310.682 54.1453C310.682 51.1933 308.667 49.2253 306.003 49.2254C303.315 49.2254 301.298 51.1934 301.298 54.1454C301.298 57.0974 303.314 59.0654 306.002 59.0654ZM106.768 88.7607C100.258 88.7609 95.4579 84.1709 95.458 77.9609C95.4581 71.7509 100.258 67.1608 106.768 67.1607C113.278 67.1606 118.078 71.7205 118.078 77.9605C118.078 84.2005 113.278 88.7606 106.768 88.7607ZM106.768 85.3407C110.998 85.3407 114.148 82.2506 114.148 77.9606C114.148 73.6706 110.998 70.5807 106.768 70.5807C102.538 70.5808 99.3881 73.6709 99.388 77.9609C99.3879 82.2509 102.538 85.3408 106.768 85.3407ZM133.612 72.4403L137.362 72.4402L137.362 88.4602L133.792 88.4603L133.792 86.4203C132.592 87.8903 130.702 88.6703 128.632 88.6704C124.522 88.6704 121.732 86.4205 121.732 81.5905L121.732 72.4405L125.482 72.4404L125.482 81.0804C125.482 83.9904 126.862 85.3704 129.232 85.3704C131.842 85.3703 133.612 83.7503 133.612 80.5403L133.612 72.4403ZM145.842 74.7801C146.922 73.1001 148.872 72.26 151.542 72.26L151.542 75.83C151.212 75.77 150.942 75.74 150.672 75.74C147.822 75.74 146.022 77.4201 146.022 80.6901L146.022 88.4601L142.272 88.4601L142.272 72.4401L145.842 72.4401L145.842 74.7801ZM173.24 88.7596C166.82 88.7597 162.02 84.2298 162.02 77.9598C162.021 71.6898 166.821 67.1597 173.271 67.1596C176.691 67.1596 179.631 68.3895 181.581 70.6695L179.061 73.0395C177.531 71.3895 175.641 70.5796 173.451 70.5796C169.101 70.5797 165.951 73.6397 165.95 77.9597C165.95 82.2797 169.1 85.3397 173.45 85.3396C175.64 85.3396 177.53 84.5295 179.06 82.8495L181.58 85.2495C179.63 87.5295 176.69 88.7596 173.24 88.7596ZM191.571 88.6693C186.651 88.6694 183.051 85.2495 183.051 80.4494C183.051 75.6494 186.651 72.2594 191.571 72.2593C196.551 72.2592 200.121 75.6492 200.121 80.4492C200.121 85.2492 196.551 88.6692 191.571 88.6693ZM191.571 85.4593C194.301 85.4593 196.341 83.5092 196.341 80.4492C196.341 77.3892 194.301 75.4393 191.571 75.4393C188.871 75.4393 186.831 77.3894 186.831 80.4494C186.831 83.5094 188.871 85.4594 191.571 85.4593ZM223.927 72.2588C227.797 72.2587 230.497 74.4486 230.497 79.2786L230.497 88.4586L226.747 88.4587L226.747 79.7587C226.747 76.9087 225.427 75.5287 223.147 75.5288C220.687 75.5288 218.977 77.1488 218.977 80.3288L218.977 88.4588L215.227 88.4589L215.227 79.7589C215.227 76.9089 213.907 75.5289 211.627 75.529C209.137 75.529 207.457 77.149 207.457 80.329L207.457 88.459L203.707 88.4591L203.707 72.4391L207.277 72.439L207.277 74.479C208.477 73.039 210.337 72.259 212.527 72.2589C214.867 72.2589 216.817 73.1289 217.927 74.9289C219.217 73.2788 221.377 72.2588 223.927 72.2588ZM244.169 72.2584C248.849 72.2583 252.299 75.4983 252.299 80.4483C252.299 85.4283 248.849 88.6683 244.169 88.6684C242.129 88.6685 240.329 87.9785 239.039 86.5085L239.039 94.2785L235.289 94.2786L235.289 72.4386L238.859 72.4385L238.859 74.5385C240.119 73.0085 241.979 72.2584 244.169 72.2584ZM243.749 85.4584C246.449 85.4584 248.489 83.5083 248.489 80.4483C248.489 77.3883 246.449 75.4384 243.749 75.4384C241.049 75.4385 238.979 77.3885 238.979 80.4485C238.979 83.5085 241.049 85.4585 243.749 85.4584ZM261.771 72.2581C266.391 72.258 269.061 74.448 269.061 79.068L269.06 88.458L265.52 88.4581L265.521 86.5081C264.62 87.8881 262.88 88.6681 260.48 88.6681C256.82 88.6682 254.511 86.6582 254.511 83.8682C254.511 81.1982 256.311 79.0982 261.171 79.0981L265.311 79.0981L265.311 78.8581C265.311 76.6681 263.991 75.3781 261.321 75.3781C259.521 75.3782 257.661 75.9782 256.461 76.9682L254.991 74.2382C256.701 72.9182 259.191 72.2582 261.771 72.2581ZM261.261 85.9381C263.091 85.9381 264.681 85.0981 265.311 83.4481L265.311 81.5881L261.441 81.5881C258.891 81.5882 258.201 82.5482 258.201 83.7182C258.201 85.0682 259.341 85.9382 261.261 85.9381ZM282.963 72.2578C286.803 72.2577 289.653 74.4476 289.653 79.2776L289.653 88.4576L285.903 88.4577L285.903 79.7577C285.903 76.9077 284.493 75.5277 282.093 75.5278C279.423 75.5278 277.623 77.1478 277.623 80.3578L277.623 88.4579L273.873 88.4579L273.873 72.4379L277.443 72.4378L277.443 74.5078C278.673 73.0378 280.623 72.2578 282.963 72.2578ZM305.518 72.4374L309.118 72.4373L301.617 89.7474C300.147 93.3775 298.107 94.4875 295.437 94.4876C293.847 94.4876 292.167 93.9476 291.147 93.0176L292.647 90.2576C293.367 90.9476 294.387 91.3676 295.407 91.3676C296.727 91.3675 297.507 90.7375 298.227 89.1475L298.497 88.5175L291.508 72.4376L295.408 72.4375L300.447 84.2875L305.518 72.4374ZM328.752 67.457C334.272 67.4569 337.692 70.2768 337.692 74.9268C337.692 79.5468 334.272 82.3969 328.752 82.397L324.012 82.3971L324.012 88.4571L320.112 88.4571L320.112 67.4571L328.752 67.457ZM328.572 79.097C331.992 79.0969 333.762 77.5669 333.762 74.9269C333.762 72.2869 331.992 70.7569 328.572 70.757L324.012 70.7571L324.012 79.0971L328.572 79.097ZM344.65 74.7767C345.73 73.0967 347.68 72.2567 350.35 72.2566L350.35 75.8266C350.02 75.7666 349.75 75.7366 349.48 75.7366C346.63 75.7367 344.83 77.4167 344.83 80.6867L344.83 88.4567L341.08 88.4568L341.08 72.4368L344.65 72.4367L344.65 74.7767ZM360.585 88.6664C355.665 88.6665 352.065 85.2466 352.065 80.4466C352.065 75.6466 355.665 72.2565 360.585 72.2564C365.565 72.2564 369.135 75.6463 369.135 80.4463C369.135 85.2463 365.565 88.6664 360.585 88.6664ZM360.585 85.4564C363.315 85.4564 365.355 83.5064 365.355 80.4464C365.355 77.3864 363.315 75.4364 360.585 75.4364C357.885 75.4365 355.845 77.3865 355.845 80.4465C355.845 83.5065 357.885 85.4565 360.585 85.4564ZM388.081 69.796C386.701 69.796 385.681 68.806 385.681 67.546C385.681 66.286 386.701 65.296 388.081 65.296C389.461 65.296 390.481 66.2259 390.481 67.4559C390.481 68.7759 389.491 69.796 388.081 69.796ZM373.231 71.5362C373.231 68.1762 375.241 65.9862 378.961 65.9861C380.251 65.9861 381.511 66.2561 382.351 66.8561L381.301 69.6761C380.731 69.2861 380.011 69.0161 379.231 69.0161C377.671 69.0162 376.861 69.8862 376.861 71.5962L376.861 72.5562L381.271 72.5561L381.271 75.5561L376.981 75.5562L376.981 88.4562L373.231 88.4562L373.231 75.5562L370.591 75.5563L370.591 72.5563L373.231 72.5562L373.231 71.5362ZM386.191 88.456L386.191 72.436L389.941 72.4359L389.941 88.456L386.191 88.456ZM394.869 88.4559L394.87 66.1959L398.62 66.1958L398.619 88.4558L394.869 88.4559ZM418.601 80.5355C418.601 80.8355 418.571 81.2855 418.541 81.6455L405.971 81.6457C406.421 83.9857 408.371 85.4856 411.161 85.4856C412.961 85.4856 414.371 84.9155 415.511 83.7455L417.521 86.0555C416.081 87.7655 413.831 88.6655 411.071 88.6656C405.701 88.6657 402.221 85.2157 402.221 80.4457C402.221 75.6757 405.731 72.2557 410.501 72.2556C415.181 72.2555 418.601 75.5255 418.601 80.5355ZM410.501 75.2556C408.071 75.2556 406.301 76.8157 405.941 79.1557L415.031 79.1555C414.731 76.8455 412.961 75.2556 410.501 75.2556Z" fill="#012322" fill-opacity="0.97"/>
<rect opacity="0.5" x="2.63672" y="5.95508" width="433" height="117" rx="14.5" stroke="#636363"/>
</svg>
