<svg width="40" height="40" viewBox="0 0 40 40" fill="none" xmlns="http://www.w3.org/2000/svg">
<rect x="0.25" y="0.25" width="39.5" height="39.5" rx="4.75" stroke="#636363" stroke-width="0.5"/>
<path d="M10 17.0968V28.07C10.0006 28.5816 10.2041 29.0721 10.5659 29.4339C10.9277 29.7957 11.4182 29.9992 11.9298 29.9998H22.9028C23.4144 29.9992 23.9049 29.7957 24.2667 29.4339C24.6285 29.0721 24.832 28.5816 24.8326 28.07V17.0968C24.832 16.5852 24.6285 16.0947 24.2667 15.7329C23.9049 15.3711 23.4144 15.1676 22.9028 15.167H11.9298C11.4182 15.1676 10.9277 15.3711 10.5659 15.7329C10.2041 16.0947 10.0006 16.5852 10 17.0968ZM23.78 17.0968V28.07C23.7797 28.3025 23.6873 28.5255 23.5228 28.69C23.3583 28.8544 23.1354 28.9469 22.9028 28.9471H11.9298C11.6973 28.9469 11.4743 28.8544 11.3098 28.69C11.1454 28.5255 11.0529 28.3025 11.0526 28.07V17.0968C11.0529 16.8642 11.1454 16.6413 11.3098 16.4768C11.4743 16.3124 11.6973 16.2199 11.9298 16.2196H22.9028C23.1354 16.2199 23.3583 16.3124 23.5228 16.4768C23.6873 16.6413 23.7797 16.8642 23.78 17.0968Z" fill="#636363"/>
<path d="M16.2196 13.1099V12.2485C16.22 11.9314 16.3462 11.6274 16.5705 11.4032C16.7947 11.1791 17.0987 11.053 17.4158 11.0526H18.7078C18.8461 11.0506 18.978 10.9943 19.075 10.8958C19.1721 10.7973 19.2265 10.6646 19.2265 10.5263C19.2265 10.388 19.1721 10.2553 19.075 10.1568C18.9779 10.0584 18.846 10.002 18.7078 10H17.4158C16.8197 10.0006 16.2481 10.2377 15.8265 10.6592C15.4049 11.0808 15.1677 11.6523 15.167 12.2485V13.1099C15.1689 13.2482 15.2253 13.3802 15.3238 13.4773C15.4222 13.5744 15.555 13.6288 15.6933 13.6288C15.8316 13.6288 15.9644 13.5744 16.0629 13.4773C16.1614 13.3802 16.2177 13.2482 16.2196 13.1099Z" fill="#636363"/>
<path d="M29.4734 20.7656C29.3338 20.7656 29.1999 20.8211 29.1012 20.9198C29.0025 21.0185 28.9471 21.1524 28.9471 21.2919V22.5837C28.9467 22.9009 28.8206 23.2049 28.5963 23.4292C28.3721 23.6535 28.068 23.7796 27.7509 23.7799H26.8896C26.75 23.7799 26.6161 23.8354 26.5174 23.9341C26.4187 24.0328 26.3633 24.1667 26.3633 24.3063C26.3633 24.4459 26.4187 24.5797 26.5174 24.6784C26.6161 24.7771 26.75 24.8326 26.8896 24.8326H27.7509C28.3471 24.8319 28.9187 24.5948 29.3403 24.1732C29.7619 23.7516 29.999 23.18 29.9997 22.5837V21.2919C29.9997 21.1524 29.9442 21.0185 29.8455 20.9198C29.7468 20.8211 29.613 20.7656 29.4734 20.7656Z" fill="#636363"/>
<path d="M27.7511 10H26.4593C26.321 10.002 26.1891 10.0583 26.092 10.1568C25.9949 10.2553 25.9404 10.388 25.9404 10.5263C25.9404 10.6646 25.9949 10.7974 26.092 10.8959C26.1891 10.9944 26.3211 11.0507 26.4594 11.0526H27.7511C28.0682 11.053 28.3723 11.1791 28.5965 11.4032C28.8208 11.6274 28.9469 11.9314 28.9473 12.2485V13.5406C28.9473 13.6802 29.0028 13.8141 29.1015 13.9128C29.2002 14.0115 29.3341 14.067 29.4737 14.067C29.6133 14.067 29.7471 14.0115 29.8458 13.9128C29.9445 13.8141 30 13.6802 30 13.5406V12.2485C29.9993 11.6523 29.7621 11.0808 29.3405 10.6592C28.9189 10.2377 28.3473 10.0006 27.7511 10Z" fill="#636363"/>
<path d="M23.8759 11.0526C24.0141 11.0506 24.1461 10.9943 24.2431 10.8958C24.3402 10.7973 24.3946 10.6646 24.3946 10.5263C24.3946 10.388 24.3402 10.2553 24.2431 10.1568C24.146 10.0584 24.0141 10.002 23.8759 10H21.2921C21.1539 10.002 21.0219 10.0584 20.9249 10.1568C20.8278 10.2553 20.7734 10.3881 20.7734 10.5263C20.7734 10.6646 20.8278 10.7973 20.9249 10.8958C21.022 10.9943 21.1539 11.0506 21.2921 11.0526H23.8759Z" fill="#636363"/>
<path d="M29.4736 15.5981C29.334 15.5982 29.2001 15.6536 29.1014 15.7523C29.0027 15.851 28.9473 15.9849 28.9473 16.1245V18.7081C28.9493 18.8463 29.0056 18.9782 29.1041 19.0753C29.2026 19.1723 29.3353 19.2267 29.4736 19.2267C29.6119 19.2267 29.7446 19.1723 29.8431 19.0753C29.9415 18.9782 29.9979 18.8463 29.9999 18.708V16.1245C29.9999 15.9849 29.9444 15.851 29.8457 15.7523C29.747 15.6536 29.6132 15.5982 29.4736 15.5981Z" fill="#636363"/>
<path d="M13.9074 23.1097H16.8898V26.0922C16.8918 26.2305 16.9482 26.3624 17.0467 26.4594C17.1451 26.5565 17.2779 26.6109 17.4161 26.6109C17.5544 26.6109 17.6871 26.5565 17.7856 26.4594C17.8841 26.3623 17.9404 26.2304 17.9424 26.0922V23.1097H20.9249C21.0645 23.1097 21.1984 23.0543 21.2971 22.9556C21.3958 22.8569 21.4512 22.723 21.4512 22.5834C21.4512 22.4438 21.3958 22.31 21.2971 22.2113C21.1984 22.1126 21.0645 22.0571 20.9249 22.0571H17.9424V19.0747C17.9424 18.9351 17.887 18.8012 17.7883 18.7025C17.6896 18.6038 17.5557 18.5483 17.4161 18.5483C17.2765 18.5483 17.1427 18.6038 17.044 18.7025C16.9453 18.8012 16.8898 18.9351 16.8898 19.0747V22.0571H13.9074C13.7691 22.0591 13.6372 22.1155 13.5401 22.214C13.4431 22.3124 13.3887 22.4452 13.3887 22.5834C13.3887 22.7217 13.4431 22.8544 13.5401 22.9529C13.6372 23.0514 13.7691 23.1077 13.9074 23.1097Z" fill="#636363"/>
</svg>
