<svg width="80" height="80" viewBox="0 0 80 80" fill="none" xmlns="http://www.w3.org/2000/svg">
<circle cx="40" cy="40" r="40" fill="#EDFBF4"/>
<path d="M52.9375 43.1729V49.2967C52.9375 51.521 51.6878 53.506 49.7528 54.4351C47.4012 55.5613 43.8403 56.7861 39.5 56.7861C35.1597 56.7861 31.5987 55.5613 29.2337 54.4351C27.3122 53.506 26.0625 51.521 26.0625 49.2967V43.1729L35.6166 47.7481C36.8394 48.3394 38.1562 48.6351 39.5 48.6351C40.8438 48.6351 42.1606 48.3394 43.3834 47.7481L52.9375 43.1729Z" fill="#124342"/>
<path d="M58.3125 40.5967V49.7473C58.3125 50.5216 57.7078 51.1551 56.9688 51.1551C56.2297 51.1551 55.625 50.5216 55.625 49.7473V41.8918L58.3125 40.5967Z" fill="#124342"/>
<path d="M36.7292 45.1912C37.6093 45.6122 38.554 45.8233 39.5 45.8233C40.446 45.8233 41.3893 45.6136 42.2708 45.1912L59.4318 36.9726C60.3993 36.5094 61 35.5282 61 34.4118C61 33.2955 60.3993 32.3128 59.4318 31.8497L42.2708 23.6324C40.5092 22.7892 38.4922 22.7892 36.7305 23.6324L19.5682 31.8483C18.6007 32.3128 18 33.2941 18 34.4104C18 35.5268 18.6007 36.508 19.5682 36.9726L36.7292 45.1912Z" fill="#124342"/>
</svg>
