<svg width="552" height="397" viewBox="0 0 552 397" fill="none" xmlns="http://www.w3.org/2000/svg">
<rect opacity="0.07" x="100" width="452" height="397" rx="20" fill="#124342"/>
<g opacity="0.5">
<circle cx="3.5" cy="181.75" r="3.5" transform="rotate(-90 3.5 181.75)" fill="#124342"/>
<circle cx="3.5" cy="107.583" r="3.5" transform="rotate(-90 3.5 107.583)" fill="#124342"/>
<circle cx="3.5" cy="144.667" r="3.5" transform="rotate(-90 3.5 144.667)" fill="#124342"/>
<circle cx="3.5" cy="70.4999" r="3.5" transform="rotate(-90 3.5 70.4999)" fill="#124342"/>
<circle cx="36.3447" cy="181.75" r="3.5" transform="rotate(-90 36.3447 181.75)" fill="#124342"/>
<circle cx="36.3447" cy="107.583" r="3.5" transform="rotate(-90 36.3447 107.583)" fill="#124342"/>
<circle cx="36.3447" cy="144.667" r="3.5" transform="rotate(-90 36.3447 144.667)" fill="#124342"/>
<circle cx="36.3447" cy="70.5" r="3.5" transform="rotate(-90 36.3447 70.5)" fill="#124342"/>
<circle cx="69.1895" cy="181.75" r="3.5" transform="rotate(-90 69.1895 181.75)" fill="#124342"/>
<circle cx="69.1895" cy="107.583" r="3.5" transform="rotate(-90 69.1895 107.583)" fill="#124342"/>
<circle cx="69.1895" cy="144.667" r="3.5" transform="rotate(-90 69.1895 144.667)" fill="#124342"/>
<circle cx="69.1895" cy="70.4999" r="3.5" transform="rotate(-90 69.1895 70.4999)" fill="#124342"/>
<circle cx="102.036" cy="181.75" r="3.5" transform="rotate(-90 102.036 181.75)" fill="#124342"/>
<circle cx="102.036" cy="107.583" r="3.5" transform="rotate(-90 102.036 107.583)" fill="#124342"/>
<circle cx="102.036" cy="144.667" r="3.5" transform="rotate(-90 102.036 144.667)" fill="#124342"/>
<circle cx="102.036" cy="70.4999" r="3.5" transform="rotate(-90 102.036 70.4999)" fill="#124342"/>
<circle cx="134.881" cy="181.75" r="3.5" transform="rotate(-90 134.881 181.75)" fill="#124342"/>
<circle cx="134.881" cy="107.583" r="3.5" transform="rotate(-90 134.881 107.583)" fill="#124342"/>
<circle cx="134.881" cy="144.667" r="3.5" transform="rotate(-90 134.881 144.667)" fill="#124342"/>
<circle cx="134.881" cy="70.4999" r="3.5" transform="rotate(-90 134.881 70.4999)" fill="#124342"/>
<circle cx="167.726" cy="181.75" r="3.5" transform="rotate(-90 167.726 181.75)" fill="#124342"/>
<circle cx="167.726" cy="107.583" r="3.5" transform="rotate(-90 167.726 107.583)" fill="#124342"/>
<circle cx="167.726" cy="144.667" r="3.5" transform="rotate(-90 167.726 144.667)" fill="#124342"/>
<circle cx="167.726" cy="70.5" r="3.5" transform="rotate(-90 167.726 70.5)" fill="#124342"/>
</g>
</svg>
