<svg width="21" height="20" viewBox="0 0 21 20" fill="none" xmlns="http://www.w3.org/2000/svg">
<path opacity="0.5" d="M10.0389 0C4.50346 0 0 4.48602 0 10C0 15.5136 4.50346 20 10.0389 20C15.5739 20 20.0777 15.5136 20.0777 10C20.0777 4.48602 15.5747 0 10.0389 0ZM12.5354 10.3521H10.9022V16.1508H8.48204C8.48204 16.1508 8.48204 12.9824 8.48204 10.3521H7.33161V8.30259H8.48204V6.97696C8.48204 6.02755 8.93493 4.54403 10.9244 4.54403L12.7178 4.55087V6.54032C12.7178 6.54032 11.628 6.54032 11.4161 6.54032C11.2043 6.54032 10.903 6.64585 10.903 7.09861V8.30299H12.7469L12.5354 10.3521Z" fill="white"/>
</svg>
