<svg width="24" height="24" viewBox="0 0 24 24" fill="none" xmlns="http://www.w3.org/2000/svg">
<circle cx="12" cy="12" r="12" fill="#EDFBF4"/>
<path d="M18.125 8C17.6425 8 17.25 8.37847 17.25 8.84375V12.5H15.2083C14.7257 12.5 14.3333 12.8785 14.3333 13.3437C14.3333 13.809 14.7257 14.1875 15.2083 14.1875H16.6666V16.4375H15.7916C15.6304 16.4375 15.4999 16.5633 15.4999 16.7187C15.4999 16.8742 15.6304 17 15.7916 17H18.125C18.2862 17 18.4167 16.8742 18.4167 16.7187C18.4167 16.5633 18.2862 16.4375 18.125 16.4375H17.25V14.1875H18.125C18.6075 14.1875 19 13.809 19 13.3437V8.84375C19 8.3785 18.6075 8 18.125 8Z" fill="#124342"/>
<path d="M8.79172 12.5H6.75002V8.84375C6.75002 8.37847 6.35752 8 5.87501 8C5.3925 8 5 8.37847 5 8.84375V13.3437C5 13.809 5.3925 14.1875 5.87501 14.1875H6.75002V16.4375H5.87501C5.71379 16.4375 5.58333 16.5633 5.58333 16.7187C5.58333 16.8742 5.71379 17 5.87501 17H8.20836C8.36958 17 8.50004 16.8742 8.50004 16.7187C8.50004 16.5633 8.36958 16.4375 8.20836 16.4375H7.33335V14.1875H8.79169C9.27421 14.1875 9.6667 13.809 9.6667 13.3437C9.6667 12.8785 9.27423 12.5 8.79172 12.5Z" fill="#124342"/>
<path d="M12.7936 12.177C13.0488 12.3284 13.3382 12.5 13.895 12.5C14.4519 12.5 14.7413 12.3284 14.9965 12.177C15.2223 12.0432 15.4006 11.9375 15.7926 11.9375C15.9538 11.9375 16.0843 11.8117 16.0843 11.6563V10.8125C16.0843 10.1921 15.561 9.6875 14.9176 9.6875H9.08417C8.44074 9.6875 7.91748 10.192 7.91748 10.8125V11.6563C7.91748 11.8117 8.04794 11.9375 8.20916 11.9375C8.59996 11.9375 8.7777 12.0432 9.00299 12.177C9.25791 12.3284 9.54672 12.5 10.103 12.5C10.659 12.5 10.9481 12.3284 11.203 12.177C11.3634 12.0818 11.5028 12.0027 11.7092 11.9639V16.4375H10.5425C10.3813 16.4375 10.2508 16.5633 10.2508 16.7187C10.2508 16.8742 10.3813 17 10.5425 17H13.4592C13.6204 17 13.7509 16.8742 13.7509 16.7187C13.7509 16.5633 13.6204 16.4375 13.4592 16.4375H12.2925V11.9655C12.4956 12.0047 12.6345 12.0828 12.7936 12.177Z" fill="#124342"/>
</svg>
