<svg width="24" height="24" viewBox="0 0 24 24" fill="none" xmlns="http://www.w3.org/2000/svg">
<circle cx="12" cy="12" r="12" fill="#EDFBF4"/>
<path d="M10.4304 13.6611H13.0695V14.5896H10.4304V13.6611Z" fill="#124342"/>
<path d="M9.1106 9.71541C9.1106 10.9974 10.292 12.0366 11.7494 12.0366C13.2068 12.0366 14.3883 10.9974 14.3883 9.71541V6.1319C13.512 6.04582 12.6312 6.00179 11.7494 6C10.8677 6.00179 9.98685 6.04582 9.1106 6.1319V9.71541ZM11.7494 7.85845C12.9154 7.85845 13.8605 8.68989 13.8605 9.71541C13.8605 10.7409 12.9154 11.5724 11.7494 11.5724C10.5835 11.5724 9.63835 10.7409 9.63835 9.71541C9.63971 8.69038 10.5841 7.85964 11.7494 7.85845Z" fill="#124342"/>
<path d="M7.21208 6.37584C7.08795 6.39746 6.99899 6.49375 7.00001 6.60502V17.468C6.99899 17.5793 7.08795 17.6755 7.21197 17.6972C7.93094 17.8168 8.6524 17.9038 9.37498 17.9658V18.5358C9.37498 18.7921 9.61129 19 9.90273 19C10.1943 19 10.4305 18.7921 10.4305 18.5358V18.037C10.5176 18.0412 10.6047 18.0478 10.6918 18.0511L10.6944 18.0506L10.6978 18.0512C11.3991 18.078 12.1006 18.078 12.8022 18.0512L12.8056 18.0506L12.8082 18.0511C12.8952 18.0478 12.9824 18.0411 13.0694 18.0369V18.5358C13.0694 18.7921 13.3057 19 13.5972 19C13.8887 19 14.1249 18.7921 14.1249 18.5358V17.9659C14.8475 17.9039 15.5691 17.8169 16.2878 17.6973H16.288C16.4121 17.6756 16.501 17.5793 16.5 17.468V6.60502C16.501 6.49385 16.4121 6.39766 16.288 6.37594C15.8319 6.29997 15.3745 6.23948 14.9166 6.18662V9.71539C14.9166 11.2537 13.4988 12.5008 11.7499 12.5008C10.001 12.5008 8.58328 11.2537 8.58328 9.71539V6.18652C8.12554 6.23938 7.66825 6.29987 7.21208 6.37584ZM13.8611 16.911H13.3333C13.1876 16.911 13.0694 16.807 13.0694 16.6788C13.0694 16.5507 13.1876 16.4468 13.3333 16.4468H13.8611C14.0069 16.4468 14.1249 16.5507 14.1249 16.6788C14.1249 16.807 14.0069 16.911 13.8611 16.911ZM14.1249 15.7504C14.1249 15.8786 14.0069 15.9824 13.8611 15.9824H13.3333C13.1876 15.9824 13.0694 15.8786 13.0694 15.7504C13.0694 15.6222 13.1876 15.5182 13.3333 15.5182H13.8611C14.0069 15.5182 14.1249 15.6222 14.1249 15.7504ZM9.90273 13.6614C9.90307 13.4051 10.1392 13.1973 10.4305 13.1972H13.0694C13.3607 13.1973 13.5969 13.4051 13.5972 13.6614V14.5898C13.5969 14.8461 13.3607 15.0538 13.0694 15.054H10.4305C10.1392 15.0538 9.90307 14.8461 9.90273 14.5898V13.6614ZM9.63891 15.5182H10.1667C10.3124 15.5182 10.4305 15.6222 10.4305 15.7504C10.4305 15.8786 10.3124 15.9824 10.1667 15.9824H9.63891C9.49313 15.9824 9.37498 15.8786 9.37498 15.7504C9.37498 15.6222 9.49313 15.5182 9.63891 15.5182ZM9.63891 16.4468H10.1667C10.3124 16.4468 10.4305 16.5507 10.4305 16.6788C10.4305 16.807 10.3124 16.911 10.1667 16.911H9.63891C9.49313 16.911 9.37498 16.807 9.37498 16.6788C9.37498 16.5507 9.49313 16.4468 9.63891 16.4468ZM8.05552 16.911C8.05552 17.0391 7.93737 17.143 7.7917 17.143C7.64592 17.143 7.52777 17.0391 7.52777 16.911V14.1256C7.52777 13.9974 7.64592 13.8934 7.7917 13.8934C7.93737 13.8934 8.05552 13.9974 8.05552 14.1256V16.911ZM8.05552 13.1972C8.05552 13.3253 7.93737 13.4292 7.7917 13.4292C7.64592 13.4292 7.52777 13.3253 7.52777 13.1972V12.965C7.52777 12.8368 7.64592 12.7328 7.7917 12.7328C7.93737 12.7328 8.05552 12.8368 8.05552 12.965V13.1972Z" fill="#124342"/>
<path d="M11.7508 11.1076C12.6252 11.1076 13.3341 10.4841 13.3341 9.71491C13.3341 8.94575 12.6252 8.32227 11.7508 8.32227C10.8763 8.32227 10.1675 8.94575 10.1675 9.71491C10.1684 10.4838 10.8768 11.1068 11.7508 11.1076ZM11.5312 9.58619L12.059 8.88982C12.1109 8.82 12.2014 8.78003 12.2961 8.78509C12.3908 8.79025 12.475 8.83964 12.5169 8.91461C12.5586 8.98948 12.5515 9.07834 12.4981 9.14736L11.9704 9.84363C11.9184 9.91355 11.828 9.95351 11.7333 9.94836C11.6386 9.9432 11.5544 9.89381 11.5125 9.81894C11.4708 9.74407 11.4779 9.65511 11.5312 9.58619Z" fill="#124342"/>
</svg>
