<svg width="24" height="24" viewBox="0 0 24 24" fill="none" xmlns="http://www.w3.org/2000/svg">
<circle cx="12" cy="12" r="12" fill="#EDFBF4"/>
<path d="M17 7.83333V7.375C17 7.01033 16.8551 6.66059 16.5973 6.40273C16.3394 6.14487 15.9897 6 15.625 6C15.2603 6 14.9106 6.14487 14.6527 6.40273C14.3949 6.66059 14.25 7.01033 14.25 7.375V8.75H11.9583V7.375C11.9583 7.25344 12.0066 7.13686 12.0926 7.05091C12.1785 6.96496 12.2951 6.91667 12.4167 6.91667C12.5382 6.91667 12.6548 6.96496 12.7408 7.05091C12.8267 7.13686 12.875 7.25344 12.875 7.375V7.83333H13.7917V7.375C13.7917 7.01033 13.6468 6.66059 13.3889 6.40273C13.1311 6.14487 12.7813 6 12.4167 6C12.052 6 11.7023 6.14487 11.4444 6.40273C11.1865 6.66059 11.0417 7.01033 11.0417 7.375V12.4854C10.8315 12.4366 10.6161 12.4135 10.4003 12.4167C9.30034 12.4167 9.30034 12.875 8.20034 12.875C7.10034 12.875 7.1 12.4167 6 12.4167V14.25C7.1 14.25 7.1 14.7083 8.2 14.7083C9.3 14.7083 9.3 14.25 10.4 14.25C11.5 14.25 11.5 14.7083 12.6 14.7083C13.7 14.7083 13.7 14.25 14.8 14.25C15.9 14.25 15.9 14.7083 17 14.7083V12.875C16.0381 12.875 15.9172 12.5245 15.1667 12.4365V7.375C15.1667 7.25344 15.215 7.13686 15.3009 7.05091C15.3869 6.96496 15.5034 6.91667 15.625 6.91667C15.7466 6.91667 15.8631 6.96496 15.9491 7.05091C16.035 7.13686 16.0833 7.25344 16.0833 7.375V7.83333H17ZM14.25 9.66667V10.5833H11.9583V9.66667H14.25ZM11.9583 12.8063V11.5H14.25V12.4655C13.6557 12.5835 13.4777 12.875 12.6 12.875C12.3841 12.8782 12.1686 12.8551 11.9583 12.8063Z" fill="#124342"/>
<path d="M12.6 15.1663C11.5 15.1663 11.5 14.708 10.4 14.708C9.3 14.708 9.3 15.1663 8.2 15.1663C7.1 15.1663 7.1 14.708 6 14.708V16.9997H17V15.1663C15.9 15.1663 15.9 14.708 14.8 14.708C13.7 14.708 13.7 15.1663 12.6 15.1663Z" fill="#124342"/>
</svg>
