<svg width="960" height="782" viewBox="0 0 960 782" fill="none" xmlns="http://www.w3.org/2000/svg">
<path opacity="0.25" d="M70 50H940C951.046 50 960 58.9543 960 70V782H70V50Z" fill="#124342"/>
<ellipse cx="3" cy="3" rx="3" ry="3" transform="matrix(1 0 0 -1 829 126.863)" fill="#124342"/>
<ellipse cx="3" cy="3" rx="3" ry="3" transform="matrix(1 0 0 -1 883.583 126.863)" fill="#124342"/>
<ellipse cx="3" cy="3" rx="3" ry="3" transform="matrix(1 0 0 -1 856.292 126.863)" fill="#124342"/>
<ellipse cx="3" cy="3" rx="3" ry="3" transform="matrix(1 0 0 -1 910.875 126.863)" fill="#124342"/>
<ellipse cx="3" cy="3" rx="3" ry="3" transform="matrix(1 0 0 -1 829 102.691)" fill="#124342"/>
<ellipse cx="3" cy="3" rx="3" ry="3" transform="matrix(1 0 0 -1 883.583 102.691)" fill="#124342"/>
<ellipse cx="3" cy="3" rx="3" ry="3" transform="matrix(1 0 0 -1 856.292 102.691)" fill="#124342"/>
<ellipse cx="3" cy="3" rx="3" ry="3" transform="matrix(1 0 0 -1 910.875 102.691)" fill="#124342"/>
<ellipse cx="3" cy="3" rx="3" ry="3" transform="matrix(1 0 0 -1 829 78.5186)" fill="#124342"/>
<ellipse cx="3" cy="3" rx="3" ry="3" transform="matrix(1 0 0 -1 883.583 78.5186)" fill="#124342"/>
<ellipse cx="3" cy="3" rx="3" ry="3" transform="matrix(1 0 0 -1 856.292 78.5186)" fill="#124342"/>
<ellipse cx="3" cy="3" rx="3" ry="3" transform="matrix(1 0 0 -1 910.875 78.5186)" fill="#124342"/>
<ellipse cx="3" cy="3" rx="3" ry="3" transform="matrix(1 0 0 -1 829 54.3452)" fill="#124342"/>
<ellipse cx="3" cy="3" rx="3" ry="3" transform="matrix(1 0 0 -1 883.583 54.3452)" fill="#124342"/>
<ellipse cx="3" cy="3" rx="3" ry="3" transform="matrix(1 0 0 -1 856.292 54.3452)" fill="#124342"/>
<ellipse cx="3" cy="3" rx="3" ry="3" transform="matrix(1 0 0 -1 910.875 54.3452)" fill="#124342"/>
<ellipse cx="3" cy="3" rx="3" ry="3" transform="matrix(1 0 0 -1 829 30.1729)" fill="#124342"/>
<ellipse cx="3" cy="3" rx="3" ry="3" transform="matrix(1 0 0 -1 883.583 30.1729)" fill="#124342"/>
<ellipse cx="3" cy="3" rx="3" ry="3" transform="matrix(1 0 0 -1 856.292 30.1729)" fill="#124342"/>
<ellipse cx="3" cy="3" rx="3" ry="3" transform="matrix(1 0 0 -1 910.875 30.1729)" fill="#124342"/>
<ellipse cx="3" cy="3" rx="3" ry="3" transform="matrix(1 0 0 -1 829 6.00049)" fill="#124342"/>
<ellipse cx="3" cy="3" rx="3" ry="3" transform="matrix(1 0 0 -1 883.583 6.00049)" fill="#124342"/>
<ellipse cx="3" cy="3" rx="3" ry="3" transform="matrix(1 0 0 -1 856.292 6.00049)" fill="#124342"/>
<ellipse cx="3" cy="3" rx="3" ry="3" transform="matrix(1 0 0 -1 910.875 6.00049)" fill="#124342"/>
<ellipse cx="123.863" cy="447" rx="3" ry="3" transform="rotate(90 123.863 447)" fill="#124342"/>
<ellipse cx="123.863" cy="501.583" rx="3" ry="3" transform="rotate(90 123.863 501.583)" fill="#124342"/>
<ellipse cx="123.863" cy="474.292" rx="3" ry="3" transform="rotate(90 123.863 474.292)" fill="#124342"/>
<ellipse cx="123.863" cy="528.875" rx="3" ry="3" transform="rotate(90 123.863 528.875)" fill="#124342"/>
<ellipse cx="99.6907" cy="447" rx="3" ry="3" transform="rotate(90 99.6907 447)" fill="#124342"/>
<ellipse cx="99.6909" cy="501.583" rx="3" ry="3" transform="rotate(90 99.6909 501.583)" fill="#124342"/>
<ellipse cx="99.6909" cy="474.292" rx="3" ry="3" transform="rotate(90 99.6909 474.292)" fill="#124342"/>
<ellipse cx="99.6909" cy="528.875" rx="3" ry="3" transform="rotate(90 99.6909 528.875)" fill="#124342"/>
<ellipse cx="75.5185" cy="447" rx="3" ry="3" transform="rotate(90 75.5185 447)" fill="#124342"/>
<ellipse cx="75.5185" cy="501.583" rx="3" ry="3" transform="rotate(90 75.5185 501.583)" fill="#124342"/>
<ellipse cx="75.5185" cy="474.292" rx="3" ry="3" transform="rotate(90 75.5185 474.292)" fill="#124342"/>
<ellipse cx="75.5185" cy="528.875" rx="3" ry="3" transform="rotate(90 75.5185 528.875)" fill="#124342"/>
<ellipse cx="51.3452" cy="447" rx="3" ry="3" transform="rotate(90 51.3452 447)" fill="#124342"/>
<ellipse cx="51.3452" cy="501.583" rx="3" ry="3" transform="rotate(90 51.3452 501.583)" fill="#124342"/>
<ellipse cx="51.3452" cy="474.292" rx="3" ry="3" transform="rotate(90 51.3452 474.292)" fill="#124342"/>
<ellipse cx="51.3452" cy="528.875" rx="3" ry="3" transform="rotate(90 51.3452 528.875)" fill="#124342"/>
<ellipse cx="27.1728" cy="447" rx="3" ry="3" transform="rotate(90 27.1728 447)" fill="#124342"/>
<ellipse cx="27.1727" cy="501.583" rx="3" ry="3" transform="rotate(90 27.1727 501.583)" fill="#124342"/>
<ellipse cx="27.1727" cy="474.292" rx="3" ry="3" transform="rotate(90 27.1727 474.292)" fill="#124342"/>
<ellipse cx="27.1727" cy="528.875" rx="3" ry="3" transform="rotate(90 27.1727 528.875)" fill="#124342"/>
<ellipse cx="3.00018" cy="447" rx="3" ry="3" transform="rotate(90 3.00018 447)" fill="#124342"/>
<ellipse cx="3.00037" cy="501.583" rx="3" ry="3" transform="rotate(90 3.00037 501.583)" fill="#124342"/>
<ellipse cx="3.00037" cy="474.292" rx="3" ry="3" transform="rotate(90 3.00037 474.292)" fill="#124342"/>
<ellipse cx="3.00037" cy="528.875" rx="3" ry="3" transform="rotate(90 3.00037 528.875)" fill="#124342"/>
</svg>
