<svg width="24" height="24" viewBox="0 0 24 24" fill="none" xmlns="http://www.w3.org/2000/svg">
<circle cx="12" cy="12" r="12" fill="#EDFBF4"/>
<path d="M17.7695 7H6.23047C5.55196 7 5 7.52868 5 8.17858V12.1072C5 12.7571 5.55196 13.2858 6.23047 13.2858H17.7695C18.448 13.2858 19 12.7571 19 12.1072V8.17858C19 7.52868 18.448 7 17.7695 7ZM15.3086 9.35716C15.5351 9.35716 15.7188 9.53306 15.7188 9.75002C15.7188 9.96698 15.5351 10.1429 15.3086 10.1429C15.0821 10.1429 14.8984 9.96698 14.8984 9.75002C14.8984 9.53306 15.0821 9.35716 15.3086 9.35716ZM16.9492 11.7143H7.05078C6.82407 11.7143 6.64062 11.5386 6.64062 11.3215C6.64062 11.1043 6.82407 10.9286 7.05078 10.9286H16.9492C17.1759 10.9286 17.3594 11.1043 17.3594 11.3215C17.3594 11.5386 17.1759 11.7143 16.9492 11.7143ZM16.9492 10.1429C16.7227 10.1429 16.5391 9.96698 16.5391 9.75002C16.5391 9.53306 16.7227 9.35716 16.9492 9.35716C17.1757 9.35716 17.3594 9.53306 17.3594 9.75002C17.3594 9.96698 17.1757 10.1429 16.9492 10.1429Z" fill="#124342"/>
<path d="M8.7189 14.0713C8.4922 14.0713 8.30875 14.247 8.30875 14.4641V15.0646C8.30875 15.9984 7.76682 16.8378 6.89483 17.2556C6.69216 17.3527 6.61004 17.5886 6.71138 17.7827C6.81222 17.9753 7.05701 18.0558 7.26173 17.9585C8.41369 17.4068 9.12906 16.298 9.12906 15.0646V14.4641C9.12906 14.247 8.94561 14.0713 8.7189 14.0713Z" fill="#124342"/>
<path d="M15.2813 14.0713C15.0545 14.0713 14.8711 14.247 14.8711 14.4641V15.0646C14.8711 16.298 15.5865 17.4068 16.7384 17.9585C16.943 18.0557 17.1878 17.9755 17.2888 17.7827C17.3901 17.5886 17.308 17.3527 17.1053 17.2556C16.2333 16.8378 15.6914 15.9984 15.6914 15.0646V14.4641C15.6914 14.247 15.508 14.0713 15.2813 14.0713Z" fill="#124342"/>
<path d="M12.4102 17.607V14.4641C12.4102 14.247 12.2267 14.0713 12 14.0713C11.7733 14.0713 11.5898 14.247 11.5898 14.4641V17.607C11.5898 17.8242 11.7733 17.9999 12 17.9999C12.2267 17.9999 12.4102 17.8242 12.4102 17.607Z" fill="#124342"/>
<path d="M14.0508 17.607V14.4641C14.0508 14.247 13.8673 14.0713 13.6406 14.0713C13.4139 14.0713 13.2305 14.247 13.2305 14.4641V17.607C13.2305 17.8242 13.4139 17.9999 13.6406 17.9999C13.8673 17.9999 14.0508 17.8242 14.0508 17.607Z" fill="#124342"/>
<path d="M10.7695 17.607V14.4641C10.7695 14.247 10.5861 14.0713 10.3594 14.0713C10.1327 14.0713 9.94922 14.247 9.94922 14.4641V17.607C9.94922 17.8242 10.1327 17.9999 10.3594 17.9999C10.5861 17.9999 10.7695 17.8242 10.7695 17.607Z" fill="#124342"/>
</svg>
