<svg width="21" height="30" viewBox="0 0 21 30" fill="none" xmlns="http://www.w3.org/2000/svg">
<path d="M10.1705 14.0047C9.2228 14.0047 8.3139 13.6282 7.64375 12.958C6.97362 12.2879 6.59713 11.379 6.59713 10.4313C6.59713 9.48355 6.97362 8.57464 7.64375 7.9045C8.3139 7.23436 9.2228 6.85788 10.1705 6.85788C11.1182 6.85788 12.0271 7.23436 12.6973 7.9045C13.3674 8.57464 13.7439 9.48355 13.7439 10.4313C13.7439 10.9005 13.6515 11.3652 13.4719 11.7987C13.2923 12.2323 13.0291 12.6262 12.6973 12.958C12.3655 13.2899 11.9715 13.5531 11.538 13.7327C11.1045 13.9122 10.6398 14.0047 10.1705 14.0047ZM10.1705 0.425781C7.5169 0.425781 4.97197 1.47993 3.09558 3.35632C1.21918 5.23271 0.165039 7.77765 0.165039 10.4313C0.165039 17.9354 10.1705 29.0129 10.1705 29.0129C10.1705 29.0129 20.176 17.9354 20.176 10.4313C20.176 7.77765 19.1219 5.23271 17.2455 3.35632C15.3691 1.47993 12.8241 0.425781 10.1705 0.425781Z" fill="#012322" fill-opacity="0.97"/>
</svg>
