<svg width="390" height="490" viewBox="0 0 390 490" fill="none" xmlns="http://www.w3.org/2000/svg">
<path opacity="0.98" d="M0 15C0 6.71572 6.71573 0 15 0H375C383.284 0 390 6.71573 390 15V475C390 483.284 383.284 490 375 490H15C6.71574 490 0 483.284 0 475V15Z" fill="#012322" fill-opacity="0.97"/>
<path d="M192.935 243.797V230.036H196.057V243.797H192.935ZM187.616 238.477V235.355H201.377V238.477H187.616ZM155.37 262.636H159.884L165.93 277.392H166.168L172.214 262.636H176.728V283H173.188V269.01H172.999L167.371 282.94H164.726L159.099 268.98H158.91V283H155.37V262.636ZM198.941 272.818C198.941 275.012 198.53 276.892 197.708 278.456C196.893 280.014 195.779 281.207 194.367 282.036C192.962 282.864 191.367 283.278 189.584 283.278C187.801 283.278 186.204 282.864 184.792 282.036C183.386 281.2 182.273 280.004 181.451 278.446C180.635 276.882 180.228 275.006 180.228 272.818C180.228 270.624 180.635 268.748 181.451 267.19C182.273 265.626 183.386 264.429 184.792 263.601C186.204 262.772 187.801 262.358 189.584 262.358C191.367 262.358 192.962 262.772 194.367 263.601C195.779 264.429 196.893 265.626 197.708 267.19C198.53 268.748 198.941 270.624 198.941 272.818ZM195.232 272.818C195.232 271.274 194.99 269.971 194.506 268.911C194.029 267.843 193.366 267.038 192.518 266.494C191.669 265.944 190.691 265.669 189.584 265.669C188.477 265.669 187.5 265.944 186.651 266.494C185.803 267.038 185.136 267.843 184.653 268.911C184.175 269.971 183.937 271.274 183.937 272.818C183.937 274.363 184.175 275.669 184.653 276.736C185.136 277.796 185.803 278.602 186.651 279.152C187.5 279.696 188.477 279.967 189.584 279.967C190.691 279.967 191.669 279.696 192.518 279.152C193.366 278.602 194.029 277.796 194.506 276.736C194.99 275.669 195.232 274.363 195.232 272.818ZM202.428 283V262.636H210.065C211.629 262.636 212.942 262.908 214.002 263.452C215.07 263.995 215.875 264.758 216.419 265.739C216.969 266.713 217.244 267.85 217.244 269.149C217.244 270.455 216.965 271.589 216.409 272.55C215.858 273.504 215.046 274.243 213.972 274.767C212.899 275.284 211.579 275.543 210.015 275.543H204.576V272.48H209.518C210.433 272.48 211.182 272.354 211.765 272.102C212.348 271.844 212.779 271.469 213.058 270.979C213.343 270.482 213.485 269.872 213.485 269.149C213.485 268.427 213.343 267.81 213.058 267.3C212.773 266.783 212.338 266.392 211.755 266.126C211.172 265.855 210.419 265.719 209.498 265.719H206.117V283H202.428ZM212.948 273.773L217.99 283H213.873L208.921 273.773H212.948ZM220.639 283V262.636H233.884V265.729H224.328V271.257H233.198V274.349H224.328V279.908H233.963V283H220.639Z" fill="#E4B850"/>
</svg>
