<svg width="21" height="20" viewBox="0 0 21 20" fill="none" xmlns="http://www.w3.org/2000/svg">
<g opacity="0.5">
<path d="M12.8825 10C12.8825 11.0571 12.0222 11.9141 10.961 11.9141C9.89975 11.9141 9.03949 11.0571 9.03949 10C9.03949 8.94287 9.89975 8.08594 10.961 8.08594C12.0222 8.08594 12.8825 8.94287 12.8825 10Z" fill="white"/>
<path d="M15.4547 6.61295C15.3623 6.36362 15.215 6.13794 15.0235 5.9527C14.8375 5.76196 14.6111 5.61517 14.3607 5.52316C14.1576 5.44458 13.8524 5.35104 13.2904 5.32556C12.6824 5.29794 12.5001 5.29199 10.961 5.29199C9.42167 5.29199 9.23938 5.29779 8.63156 5.32541C8.06954 5.35104 7.76425 5.44458 7.56129 5.52316C7.31084 5.61517 7.08428 5.76196 6.89847 5.9527C6.707 6.13794 6.55964 6.36346 6.46712 6.61295C6.38823 6.81528 6.29433 7.11938 6.26875 7.67923C6.24102 8.2847 6.23505 8.46628 6.23505 9.99963C6.23505 11.5328 6.24102 11.7144 6.26875 12.32C6.29433 12.8799 6.38823 13.1838 6.46712 13.3862C6.55964 13.6357 6.70684 13.8612 6.89832 14.0464C7.08428 14.2372 7.31068 14.3839 7.56113 14.476C7.76425 14.5547 8.06954 14.6482 8.63156 14.6737C9.23938 14.7013 9.42151 14.7071 10.9608 14.7071C12.5003 14.7071 12.6826 14.7013 13.2903 14.6737C13.8523 14.6482 14.1576 14.5547 14.3607 14.476C14.8634 14.2828 15.2608 13.887 15.4547 13.3862C15.5336 13.1838 15.6275 12.8799 15.6532 12.32C15.6809 11.7144 15.6868 11.5328 15.6868 9.99963C15.6868 8.46628 15.6809 8.2847 15.6532 7.67923C15.6276 7.11938 15.5337 6.81528 15.4547 6.61295ZM10.961 12.9481C9.32608 12.9481 8.00076 11.6281 8.00076 9.99948C8.00076 8.37091 9.32608 7.05087 10.961 7.05087C12.5957 7.05087 13.921 8.37091 13.921 9.99948C13.921 11.6281 12.5957 12.9481 10.961 12.9481ZM14.0381 7.62338C13.656 7.62338 13.3463 7.31485 13.3463 6.9343C13.3463 6.55374 13.656 6.24521 14.0381 6.24521C14.4201 6.24521 14.7298 6.55374 14.7298 6.9343C14.7297 7.31485 14.4201 7.62338 14.0381 7.62338Z" fill="white"/>
<path d="M10.9612 0C5.4177 0 0.922302 4.478 0.922302 10C0.922302 15.522 5.4177 20 10.9612 20C16.5046 20 21 15.522 21 10C21 4.478 16.5046 0 10.9612 0ZM16.6909 12.3674C16.663 12.9787 16.5654 13.396 16.423 13.7613C16.1235 14.5326 15.5114 15.1424 14.7371 15.4407C14.3705 15.5826 13.9514 15.6796 13.3379 15.7076C12.7232 15.7355 12.5268 15.7422 10.9613 15.7422C9.39565 15.7422 9.19943 15.7355 8.58456 15.7076C7.97107 15.6796 7.55197 15.5826 7.18541 15.4407C6.80062 15.2965 6.45228 15.0705 6.1643 14.7783C5.87112 14.4916 5.64426 14.1444 5.4995 13.7613C5.35704 13.3961 5.25946 12.9787 5.23159 12.3676C5.20325 11.7551 5.19666 11.5594 5.19666 10C5.19666 8.44055 5.20325 8.24493 5.23143 7.6326C5.25931 7.02133 5.35673 6.604 5.49919 6.23871C5.64395 5.85556 5.87096 5.50842 6.1643 5.22171C6.45213 4.9295 6.80062 4.70352 7.18525 4.55933C7.55197 4.41742 7.97092 4.32037 8.58456 4.29245C9.19928 4.26453 9.39565 4.25781 10.9612 4.25781C12.5267 4.25781 12.723 4.26453 13.3378 4.2926C13.9514 4.32037 14.3704 4.41742 14.7371 4.55917C15.1217 4.70337 15.4702 4.9295 15.7582 5.22171C16.0514 5.50858 16.2784 5.85556 16.423 6.23871C16.5656 6.604 16.663 7.02133 16.691 7.6326C16.7191 8.24493 16.7257 8.44055 16.7257 10C16.7257 11.5594 16.7191 11.7551 16.6909 12.3674Z" fill="white"/>
</g>
</svg>
