<svg width="55" height="55" viewBox="0 0 55 55" fill="none" xmlns="http://www.w3.org/2000/svg">
<path d="M27.5 0C42.6632 0 55 12.3368 55 27.5C55 42.6632 42.6632 55 27.5 55C12.3368 55 0 42.6632 0 27.5C0 12.3368 12.3368 0 27.5 0ZM27.5 51.5625C40.7683 51.5625 51.5625 40.7683 51.5625 27.5C51.5625 14.2317 40.7683 3.4375 27.5 3.4375C14.2317 3.4375 3.4375 14.2317 3.4375 27.5C3.4375 40.7683 14.2317 51.5625 27.5 51.5625ZM15.9723 26.2848C15.3007 26.9564 15.3007 28.044 15.9723 28.7152L24.5661 37.3089C24.9017 37.6445 25.3417 37.8125 25.7812 37.8125C26.2208 37.8125 26.6608 37.6445 26.9964 37.3089C27.668 36.6373 27.668 35.5498 26.9964 34.8786L21.3366 29.2188H37.8125C38.7617 29.2188 39.5312 28.45 39.5312 27.5C39.5312 26.55 38.7617 25.7812 37.8125 25.7812H21.3366L26.9964 20.1214C27.668 19.4498 27.668 18.3623 26.9964 17.6911C26.3248 17.0199 25.2373 17.0195 24.5661 17.6911L15.9723 26.2848Z" fill="#124342"/>
</svg>
