<svg width="24" height="24" viewBox="0 0 24 24" fill="none" xmlns="http://www.w3.org/2000/svg">
<circle cx="12" cy="12" r="12" fill="#EDFBF4"/>
<path d="M9.29955 9.6326H8.84918V8.41427C8.84918 7.08089 9.93962 6 11.2849 6C12.6301 6 13.7205 7.08087 13.7205 8.41429V9.63263H13.2702V8.41429C13.2702 7.32728 12.3815 6.44642 11.2849 6.44642C10.1882 6.44642 9.29958 7.32728 9.29958 8.41429V9.6326H9.29955ZM15.1372 9.57524L14.7298 16.2158C14.7287 16.2337 14.737 16.2496 14.7525 16.259C14.7679 16.2683 14.786 16.2685 14.8016 16.2594L15.9765 15.5745C15.9935 15.5645 16.0023 15.5464 15.9995 15.527L15.1372 9.57524ZM14.9469 8.54734C14.9375 8.53748 14.9258 8.53247 14.9121 8.53247H13.959V9.75081C13.959 9.81607 13.9056 9.86899 13.8397 9.86899H13.1509C13.0851 9.86899 13.0317 9.81607 13.0317 9.75081V8.53247H9.53801V9.75081C9.53801 9.81607 9.48462 9.86899 9.41878 9.86899H8.72995C8.66411 9.86899 8.61072 9.81607 8.61072 9.75081V8.53247H7.52457C7.49931 8.53247 7.4785 8.5519 7.47697 8.57688L7.0001 16.3499C6.99927 16.3634 7.00363 16.3753 7.01298 16.3851C7.02232 16.395 7.03406 16.4 7.0477 16.4H14.4352C14.4605 16.4 14.4813 16.3806 14.4828 16.3556L14.9597 8.5826C14.9605 8.56911 14.9562 8.55719 14.9469 8.54734Z" fill="#124342"/>
</svg>
