<svg width="17" height="23" viewBox="0 0 17 23" fill="none" xmlns="http://www.w3.org/2000/svg">
<path fill-rule="evenodd" clip-rule="evenodd" d="M8.69903 22.5377H2.99148V20.2547H6.63436L3.21408 14.8062C2.97893 14.433 2.75405 14.0506 2.55314 13.659C1.10685 10.8246 -0.415923 6.657 3.04628 3.19252C4.54165 1.696 6.54843 0.871826 8.69903 0.871826C10.8485 0.871826 12.8564 1.696 14.3518 3.19137C17.8334 6.67526 16.2764 10.8806 14.8027 13.7401C14.6292 14.0779 14.434 14.409 14.2319 14.732L10.764 20.2547H14.4066V22.5377H8.69903ZM4.66037 4.80547C5.72426 3.74044 7.15799 3.15485 8.69903 3.15485C10.2401 3.15485 11.6727 3.74044 12.7377 4.80547C14.6337 6.70266 14.6452 9.06216 12.7719 12.6944C12.6281 12.9764 12.4637 13.2515 12.2971 13.5186L8.69903 19.2501L5.14665 13.5917C4.94803 13.2755 4.75512 12.9524 4.58617 12.6202C2.75291 9.03019 2.77574 6.69238 4.66037 4.80547ZM5.2745 8.83956C5.2745 10.7276 6.81097 12.2641 8.69903 12.2641C10.5871 12.2641 12.1236 10.7276 12.1236 8.83956C12.1236 6.95151 10.5871 5.41503 8.69903 5.41503C6.81097 5.41503 5.2745 6.95151 5.2745 8.83956ZM7.55752 8.83956C7.55752 8.21059 8.07006 7.69805 8.69903 7.69805C9.328 7.69805 9.84054 8.21059 9.84054 8.83956C9.84054 9.46853 9.328 9.98107 8.69903 9.98107C8.07006 9.98107 7.55752 9.46853 7.55752 8.83956Z" fill="#124342"/>
</svg>
