<svg width="21" height="29" viewBox="0 0 21 29" fill="none" xmlns="http://www.w3.org/2000/svg">
<path d="M10.2584 13.6192C9.31069 13.6192 8.40179 13.2427 7.73165 12.5725C7.06151 11.9024 6.68503 10.9935 6.68503 10.0458C6.68503 9.09805 7.06151 8.18915 7.73165 7.519C8.40179 6.84886 9.31069 6.47238 10.2584 6.47238C11.2061 6.47238 12.115 6.84886 12.7852 7.519C13.4553 8.18915 13.8318 9.09805 13.8318 10.0458C13.8318 10.515 13.7394 10.9797 13.5598 11.4132C13.3802 11.8468 13.117 12.2407 12.7852 12.5725C12.4534 12.9044 12.0594 13.1676 11.6259 13.3472C11.1923 13.5267 10.7277 13.6192 10.2584 13.6192ZM10.2584 0.0402832C7.60479 0.0402832 5.05986 1.09443 3.18347 2.97082C1.30708 4.84722 0.25293 7.39215 0.25293 10.0458C0.25293 17.5499 10.2584 28.6274 10.2584 28.6274C10.2584 28.6274 20.2639 17.5499 20.2639 10.0458C20.2639 7.39215 19.2097 4.84722 17.3334 2.97082C15.457 1.09443 12.912 0.0402832 10.2584 0.0402832Z" fill="#E0B109"/>
</svg>
