<svg width="20" height="20" viewBox="0 0 20 20" fill="none" xmlns="http://www.w3.org/2000/svg">
<path d="M9.99935 9.58329C9.44682 9.58329 8.91691 9.3638 8.52621 8.9731C8.13551 8.5824 7.91602 8.05249 7.91602 7.49996C7.91602 6.94743 8.13551 6.41752 8.52621 6.02682C8.91691 5.63612 9.44682 5.41663 9.99935 5.41663C10.5519 5.41663 11.0818 5.63612 11.4725 6.02682C11.8632 6.41752 12.0827 6.94743 12.0827 7.49996C12.0827 7.77355 12.0288 8.04446 11.9241 8.29722C11.8194 8.54998 11.6659 8.77964 11.4725 8.9731C11.279 9.16655 11.0494 9.32001 10.7966 9.42471C10.5438 9.52941 10.2729 9.58329 9.99935 9.58329ZM9.99935 1.66663C8.45225 1.66663 6.96852 2.28121 5.87456 3.37517C4.7806 4.46913 4.16602 5.95286 4.16602 7.49996C4.16602 11.875 9.99935 18.3333 9.99935 18.3333C9.99935 18.3333 15.8327 11.875 15.8327 7.49996C15.8327 5.95286 15.2181 4.46913 14.1241 3.37517C13.0302 2.28121 11.5464 1.66663 9.99935 1.66663Z" fill="#333333"/>
</svg>
