<svg width="20" height="20" viewBox="0 0 20 20" fill="none" xmlns="http://www.w3.org/2000/svg">
<path d="M0.714286 3.57143H2.24429C2.56357 4.8 3.67286 5.71429 5 5.71429C6.32714 5.71429 7.43643 4.8 7.75571 3.57143H19.2857C19.6807 3.57143 20 3.25143 20 2.85714C20 2.46286 19.6807 2.14286 19.2857 2.14286H7.75571C7.43643 0.914286 6.32714 0 5 0C3.67286 0 2.56357 0.914286 2.24429 2.14286H0.714286C0.32 2.14286 0 2.46286 0 2.85714C0 3.25143 0.32 3.57143 0.714286 3.57143ZM5 1.42857C5.78786 1.42857 6.42857 2.06929 6.42857 2.85714C6.42857 3.645 5.78786 4.28571 5 4.28571C4.21214 4.28571 3.57143 3.645 3.57143 2.85714C3.57143 2.06929 4.21214 1.42857 5 1.42857Z" fill="white"/>
<path d="M19.2857 9.28574H17.7557C17.4364 8.05717 16.3279 7.14288 15 7.14288C13.6721 7.14288 12.5636 8.05717 12.2443 9.28574H0.714286C0.32 9.28574 0 9.60574 0 10C0 10.3943 0.32 10.7143 0.714286 10.7143H12.2443C12.5636 11.9429 13.6721 12.8572 15 12.8572C16.3279 12.8572 17.4364 11.9429 17.7557 10.7143H19.2857C19.6807 10.7143 20 10.3943 20 10C20 9.60574 19.6807 9.28574 19.2857 9.28574ZM15 11.4286C14.2121 11.4286 13.5714 10.7879 13.5714 10C13.5714 9.21217 14.2121 8.57145 15 8.57145C15.7879 8.57145 16.4286 9.21217 16.4286 10C16.4286 10.7879 15.7879 11.4286 15 11.4286Z" fill="white"/>
<path d="M19.2857 16.4286H7.75571C7.43643 15.2 6.32714 14.2857 5 14.2857C3.67286 14.2857 2.56357 15.2 2.24429 16.4286H0.714286C0.32 16.4286 0 16.7486 0 17.1429C0 17.5372 0.32 17.8572 0.714286 17.8572H2.24429C2.56357 19.0857 3.67286 20 5 20C6.32714 20 7.43643 19.0857 7.75571 17.8572H19.2857C19.6807 17.8572 20 17.5372 20 17.1429C20 16.7486 19.6807 16.4286 19.2857 16.4286ZM5 18.5715C4.21214 18.5715 3.57143 17.9307 3.57143 17.1429C3.57143 16.355 4.21214 15.7143 5 15.7143C5.78786 15.7143 6.42857 16.355 6.42857 17.1429C6.42857 17.9307 5.78786 18.5715 5 18.5715Z" fill="white"/>
</svg>
