<svg width="69" height="25" viewBox="0 0 69 25" fill="none" xmlns="http://www.w3.org/2000/svg">
<path d="M22.6994 0H2.30063C1.03208 0 0 0.980948 0 2.18824C0 3.39401 1.03208 4.375 2.30063 4.375H22.6994C23.9679 4.375 25 3.39401 25 2.18824C25 0.980948 23.9679 0 22.6994 0Z" fill="#124342"/>
<path d="M22.6994 20.625H2.30063C1.03208 20.625 0 21.6059 0 22.8132C0 24.019 1.03208 25 2.30063 25H22.6994C23.9679 25 25 24.019 25 22.8132C25 21.6059 23.9679 20.625 22.6994 20.625Z" fill="#124342"/>
<path d="M22.6994 10H2.30063C1.03208 10 0 10.9809 0 12.1882C0 13.394 1.03208 14.375 2.30063 14.375H22.6994C23.9679 14.375 25 13.394 25 12.1882C25 10.9809 23.9679 10 22.6994 10Z" fill="#124342"/>
<g opacity="0.1">
<path d="M53.1617 0H46.1342C44.9574 0 44 0.957373 44 2.13413V9.16152C44 10.3383 44.9574 11.2957 46.1342 11.2957H53.1617C54.3385 11.2957 55.2958 10.3383 55.2958 9.16152V2.13413C55.2958 0.957373 54.3385 0 53.1617 0Z" fill="#636363"/>
<path d="M66.8658 0H59.8383C58.6615 0 57.7041 0.957373 57.7041 2.13413V9.16152C57.7041 10.3383 58.6615 11.2957 59.8383 11.2957H66.8658C68.0426 11.2957 68.9999 10.3383 68.9999 9.16152V2.13413C68.9999 0.957373 68.0426 0 66.8658 0Z" fill="#636363"/>
<path d="M53.1617 13.7043H46.1342C44.9574 13.7043 44 14.6617 44 15.8385V22.8659C44 24.0426 44.9574 25 46.1342 25H53.1617C54.3385 25 55.2958 24.0426 55.2958 22.8659V15.8385C55.2958 14.6617 54.3385 13.7043 53.1617 13.7043Z" fill="#636363"/>
<path d="M66.8658 13.7043H59.8383C58.6615 13.7043 57.7041 14.6617 57.7041 15.8385V22.8659C57.7041 24.0426 58.6615 25 59.8383 25H66.8658C68.0426 25 68.9999 24.0426 68.9999 22.8659V15.8385C68.9999 14.6617 68.0426 13.7043 66.8658 13.7043Z" fill="#636363"/>
</g>
</svg>
