<svg width="53" height="53" viewBox="0 0 53 53" fill="none" xmlns="http://www.w3.org/2000/svg">
<circle cx="26.5" cy="26.5" r="26.5" fill="#E3B64B"/>
<path d="M26.4993 33.1591C25.6811 33.1591 24.9538 33.0189 24.3175 32.7386C23.6849 32.4583 23.1849 32.0682 22.8175 31.5682C22.45 31.0682 22.255 30.4905 22.2322 29.8352H24.3686C24.3875 30.1496 24.4917 30.4242 24.6811 30.6591C24.8705 30.8902 25.1224 31.0701 25.4368 31.1989C25.7512 31.3277 26.1035 31.392 26.4936 31.392C26.9103 31.392 27.2796 31.3201 27.6016 31.1761C27.9235 31.0284 28.1754 30.8239 28.3572 30.5625C28.5391 30.3011 28.6281 30 28.6243 29.6591C28.6281 29.3068 28.5372 28.9962 28.3516 28.7273C28.166 28.4583 27.897 28.2481 27.5447 28.0966C27.1963 27.9451 26.7758 27.8693 26.2834 27.8693H25.255V26.2443H26.2834C26.6887 26.2443 27.0429 26.1742 27.3459 26.0341C27.6527 25.8939 27.8932 25.697 28.0675 25.4432C28.2417 25.1856 28.3269 24.8883 28.3232 24.5511C28.3269 24.2216 28.2531 23.9356 28.1016 23.6932C27.9538 23.447 27.7436 23.2557 27.4709 23.1193C27.2019 22.983 26.8857 22.9148 26.522 22.9148C26.166 22.9148 25.8364 22.9792 25.5334 23.108C25.2304 23.2367 24.986 23.4205 24.8004 23.6591C24.6148 23.8939 24.5163 24.1742 24.505 24.5H22.4766C22.4917 23.8485 22.6792 23.2765 23.0391 22.7841C23.4027 22.2879 23.8875 21.9015 24.4936 21.625C25.0997 21.3447 25.7796 21.2045 26.5334 21.2045C27.3099 21.2045 27.9841 21.3504 28.5561 21.642C29.1319 21.9299 29.5769 22.3182 29.8913 22.8068C30.2057 23.2955 30.3629 23.8352 30.3629 24.4261C30.3667 25.0814 30.1735 25.6307 29.7834 26.0739C29.397 26.517 28.8894 26.8068 28.2607 26.9432V27.0341C29.0788 27.1477 29.7057 27.4508 30.1413 27.9432C30.5807 28.4318 30.7985 29.0398 30.7947 29.767C30.7947 30.4186 30.6091 31.0019 30.2379 31.517C29.8705 32.0284 29.3629 32.4299 28.7152 32.7216C28.0713 33.0133 27.3326 33.1591 26.4993 33.1591Z" fill="#012322" fill-opacity="0.97"/>
</svg>
