<svg width="222" height="60" viewBox="0 0 222 60" fill="none" xmlns="http://www.w3.org/2000/svg">
<rect width="222" height="60" rx="8" fill="#E60022"/>
<path d="M65.0462 27.2727C64.978 26.697 64.7015 26.25 64.2166 25.9318C63.7318 25.6136 63.1371 25.4545 62.4325 25.4545C61.9174 25.4545 61.4666 25.5379 61.0803 25.7045C60.6977 25.8712 60.3984 26.1004 60.1825 26.392C59.9704 26.6837 59.8643 27.0152 59.8643 27.3864C59.8643 27.697 59.9382 27.964 60.0859 28.1875C60.2375 28.4072 60.4306 28.5909 60.6655 28.7386C60.9003 28.8826 61.1465 29.0019 61.4041 29.0966C61.6617 29.1875 61.8984 29.2614 62.1143 29.3182L63.2962 29.6364C63.5992 29.7159 63.9363 29.8258 64.3075 29.9659C64.6825 30.1061 65.0405 30.2973 65.3814 30.5398C65.7261 30.7784 66.0102 31.0852 66.2337 31.4602C66.4572 31.8352 66.5689 32.2955 66.5689 32.8409C66.5689 33.4697 66.4041 34.0379 66.0746 34.5455C65.7488 35.053 65.2715 35.4564 64.6428 35.7557C64.0178 36.0549 63.2583 36.2045 62.3643 36.2045C61.531 36.2045 60.8094 36.0701 60.1996 35.8011C59.5935 35.5322 59.1162 35.1572 58.7678 34.6761C58.4231 34.1951 58.228 33.6364 58.1825 33H59.6371C59.675 33.4394 59.8227 33.803 60.0803 34.0909C60.3416 34.375 60.6712 34.5871 61.0689 34.7273C61.4704 34.8636 61.9022 34.9318 62.3643 34.9318C62.9022 34.9318 63.3852 34.8447 63.8132 34.6705C64.2412 34.4924 64.5803 34.2462 64.8303 33.9318C65.0803 33.6136 65.2053 33.2424 65.2053 32.8182C65.2053 32.4318 65.0973 32.1174 64.8814 31.875C64.6655 31.6326 64.3814 31.4356 64.0291 31.2841C63.6768 31.1326 63.2962 31 62.8871 30.8864L61.4553 30.4773C60.5462 30.2159 59.8265 29.8428 59.2962 29.358C58.7659 28.8731 58.5007 28.2386 58.5007 27.4545C58.5007 26.803 58.6768 26.2348 59.0291 25.75C59.3852 25.2614 59.8625 24.8826 60.4609 24.6136C61.0632 24.3409 61.7356 24.2045 62.478 24.2045C63.228 24.2045 63.8946 24.339 64.478 24.608C65.0613 24.8731 65.5234 25.2367 65.8643 25.6989C66.209 26.161 66.3909 26.6856 66.4098 27.2727H65.0462ZM70.0447 30.75V36H68.7038V24.3636H70.0447V28.6364H70.1584C70.3629 28.1856 70.6697 27.8277 71.0788 27.5625C71.4917 27.2936 72.041 27.1591 72.7266 27.1591C73.3213 27.1591 73.8421 27.2784 74.2891 27.517C74.736 27.7519 75.0826 28.1136 75.3288 28.6023C75.5788 29.0871 75.7038 29.7045 75.7038 30.4545V36H74.3629V30.5455C74.3629 29.8523 74.183 29.3163 73.8232 28.9375C73.4671 28.5549 72.9728 28.3636 72.3402 28.3636C71.9008 28.3636 71.5069 28.4564 71.1584 28.642C70.8137 28.8277 70.541 29.0985 70.3402 29.4545C70.1432 29.8106 70.0447 30.2424 70.0447 30.75ZM80.7251 36.2045C80.1721 36.2045 79.6702 36.1004 79.2195 35.892C78.7687 35.6799 78.4107 35.375 78.1456 34.9773C77.8804 34.5758 77.7479 34.0909 77.7479 33.5227C77.7479 33.0227 77.8464 32.6174 78.0433 32.3068C78.2403 31.9924 78.5036 31.7462 78.8331 31.5682C79.1626 31.3902 79.5263 31.2576 79.924 31.1705C80.3255 31.0795 80.7289 31.0076 81.1342 30.9545C81.6645 30.8864 82.0945 30.8352 82.424 30.8011C82.7573 30.7633 82.9998 30.7008 83.1513 30.6136C83.3066 30.5265 83.3842 30.375 83.3842 30.1591V30.1136C83.3842 29.553 83.2308 29.1174 82.924 28.8068C82.621 28.4962 82.1607 28.3409 81.5433 28.3409C80.9032 28.3409 80.4013 28.4811 80.0376 28.7614C79.674 29.0417 79.4183 29.3409 79.2706 29.6591L77.9979 29.2045C78.2251 28.6742 78.5282 28.2614 78.907 27.9659C79.2895 27.6667 79.7062 27.4583 80.157 27.3409C80.6115 27.2197 81.0585 27.1591 81.4979 27.1591C81.7782 27.1591 82.1001 27.1932 82.4638 27.2614C82.8312 27.3258 83.1854 27.4602 83.5263 27.6648C83.871 27.8693 84.157 28.178 84.3842 28.5909C84.6115 29.0038 84.7251 29.5568 84.7251 30.25V36H83.3842V34.8182H83.3161C83.2251 35.0076 83.0736 35.2102 82.8615 35.4261C82.6494 35.642 82.3672 35.8258 82.0149 35.9773C81.6626 36.1288 81.2327 36.2045 80.7251 36.2045ZM80.9297 35C81.46 35 81.907 34.8958 82.2706 34.6875C82.638 34.4792 82.9145 34.2102 83.1001 33.8807C83.2895 33.5511 83.3842 33.2045 83.3842 32.8409V31.6136C83.3274 31.6818 83.2024 31.7443 83.0092 31.8011C82.8198 31.8542 82.6001 31.9015 82.3501 31.9432C82.1039 31.9811 81.8634 32.0152 81.6286 32.0455C81.3975 32.072 81.21 32.0947 81.0661 32.1136C80.7176 32.1591 80.3918 32.233 80.0888 32.3352C79.7895 32.4337 79.5471 32.5833 79.3615 32.7841C79.1797 32.9811 79.0888 33.25 79.0888 33.5909C79.0888 34.0568 79.2611 34.4091 79.6058 34.6477C79.9543 34.8826 80.3956 35 80.9297 35ZM87.1726 36V27.2727H88.468V28.5909H88.5589C88.718 28.1591 89.0059 27.8087 89.4226 27.5398C89.8393 27.2708 90.3089 27.1364 90.8317 27.1364C90.9302 27.1364 91.0533 27.1383 91.201 27.142C91.3487 27.1458 91.4605 27.1515 91.5362 27.1591V28.5227C91.4908 28.5114 91.3866 28.4943 91.2237 28.4716C91.0646 28.4451 90.8961 28.4318 90.718 28.4318C90.2938 28.4318 89.915 28.5208 89.5817 28.6989C89.2521 28.8731 88.9908 29.1155 88.7976 29.4261C88.6082 29.733 88.5135 30.0833 88.5135 30.4773V36H87.1726ZM96.5192 36.1818C95.6783 36.1818 94.9529 35.9962 94.343 35.625C93.737 35.25 93.2692 34.7273 92.9396 34.0568C92.6139 33.3826 92.451 32.5985 92.451 31.7045C92.451 30.8106 92.6139 30.0227 92.9396 29.3409C93.2692 28.6553 93.7275 28.1212 94.3146 27.7386C94.9055 27.3523 95.5949 27.1591 96.3828 27.1591C96.8374 27.1591 97.2862 27.2348 97.7294 27.3864C98.1726 27.5379 98.576 27.7841 98.9396 28.125C99.3033 28.4621 99.593 28.9091 99.8089 29.4659C100.025 30.0227 100.133 30.7083 100.133 31.5227V32.0909H93.4055V30.9318H98.7692C98.7692 30.4394 98.6707 30 98.4737 29.6136C98.2805 29.2273 98.004 28.9223 97.6442 28.6989C97.2881 28.4754 96.8677 28.3636 96.3828 28.3636C95.8487 28.3636 95.3866 28.4962 94.9964 28.7614C94.6101 29.0227 94.3127 29.3636 94.1044 29.7841C93.8961 30.2045 93.7919 30.6553 93.7919 31.1364V31.9091C93.7919 32.5682 93.9055 33.1269 94.1328 33.5852C94.3639 34.0398 94.6839 34.3864 95.093 34.625C95.5021 34.8598 95.9775 34.9773 96.5192 34.9773C96.8714 34.9773 97.1896 34.928 97.4737 34.8295C97.7616 34.7273 98.0097 34.5758 98.218 34.375C98.4264 34.1705 98.5874 33.9167 98.701 33.6136L99.9964 33.9773C99.8601 34.4167 99.6309 34.803 99.3089 35.1364C98.987 35.4659 98.5893 35.7235 98.1158 35.9091C97.6423 36.0909 97.1101 36.1818 96.5192 36.1818ZM110.468 27.2727V28.4091H105.945V27.2727H110.468ZM107.263 25.1818H108.604V33.5C108.604 33.8788 108.659 34.1629 108.769 34.3523C108.883 34.5379 109.027 34.6629 109.201 34.7273C109.379 34.7879 109.567 34.8182 109.763 34.8182C109.911 34.8182 110.032 34.8106 110.127 34.7955C110.222 34.7765 110.298 34.7614 110.354 34.75L110.627 35.9545C110.536 35.9886 110.409 36.0227 110.246 36.0568C110.084 36.0947 109.877 36.1136 109.627 36.1136C109.248 36.1136 108.877 36.0322 108.513 35.8693C108.154 35.7064 107.854 35.4583 107.616 35.125C107.381 34.7917 107.263 34.3712 107.263 33.8636V25.1818ZM115.937 36.1818C115.149 36.1818 114.458 35.9943 113.863 35.6193C113.272 35.2443 112.81 34.7197 112.477 34.0455C112.147 33.3712 111.982 32.5833 111.982 31.6818C111.982 30.7727 112.147 29.9792 112.477 29.3011C112.81 28.6231 113.272 28.0966 113.863 27.7216C114.458 27.3466 115.149 27.1591 115.937 27.1591C116.725 27.1591 117.414 27.3466 118.005 27.7216C118.6 28.0966 119.062 28.6231 119.391 29.3011C119.725 29.9792 119.891 30.7727 119.891 31.6818C119.891 32.5833 119.725 33.3712 119.391 34.0455C119.062 34.7197 118.6 35.2443 118.005 35.6193C117.414 35.9943 116.725 36.1818 115.937 36.1818ZM115.937 34.9773C116.535 34.9773 117.028 34.8239 117.414 34.517C117.8 34.2102 118.086 33.8068 118.272 33.3068C118.458 32.8068 118.55 32.2652 118.55 31.6818C118.55 31.0985 118.458 30.5549 118.272 30.0511C118.086 29.5473 117.8 29.1402 117.414 28.8295C117.028 28.5189 116.535 28.3636 115.937 28.3636C115.338 28.3636 114.846 28.5189 114.46 28.8295C114.073 29.1402 113.787 29.5473 113.602 30.0511C113.416 30.5549 113.323 31.0985 113.323 31.6818C113.323 32.2652 113.416 32.8068 113.602 33.3068C113.787 33.8068 114.073 34.2102 114.46 34.517C114.846 34.8239 115.338 34.9773 115.937 34.9773ZM126.62 36V24.3636H130.552C131.465 24.3636 132.211 24.5284 132.79 24.858C133.374 25.1837 133.806 25.625 134.086 26.1818C134.366 26.7386 134.506 27.3598 134.506 28.0455C134.506 28.7311 134.366 29.3542 134.086 29.9148C133.809 30.4754 133.381 30.9223 132.802 31.2557C132.222 31.5852 131.48 31.75 130.575 31.75H127.756V30.5H130.529C131.154 30.5 131.656 30.392 132.035 30.1761C132.414 29.9602 132.688 29.6686 132.859 29.3011C133.033 28.9299 133.12 28.5114 133.12 28.0455C133.12 27.5795 133.033 27.1629 132.859 26.7955C132.688 26.428 132.412 26.1402 132.029 25.9318C131.647 25.7197 131.139 25.6136 130.506 25.6136H128.029V36H126.62ZM136.594 36V27.2727H137.935V36H136.594ZM137.276 25.8182C137.015 25.8182 136.79 25.7292 136.6 25.5511C136.415 25.3731 136.322 25.1591 136.322 24.9091C136.322 24.6591 136.415 24.4451 136.6 24.267C136.79 24.089 137.015 24 137.276 24C137.538 24 137.761 24.089 137.947 24.267C138.136 24.4451 138.231 24.6591 138.231 24.9091C138.231 25.1591 138.136 25.3731 137.947 25.5511C137.761 25.7292 137.538 25.8182 137.276 25.8182ZM141.732 30.75V36H140.391V27.2727H141.687V28.6364H141.8C142.005 28.1932 142.316 27.8371 142.732 27.5682C143.149 27.2955 143.687 27.1591 144.346 27.1591C144.937 27.1591 145.454 27.2803 145.897 27.5227C146.34 27.7614 146.685 28.125 146.931 28.6136C147.177 29.0985 147.3 29.7121 147.3 30.4545V36H145.96V30.5455C145.96 29.8598 145.781 29.3258 145.425 28.9432C145.069 28.5568 144.581 28.3636 143.96 28.3636C143.531 28.3636 143.149 28.4564 142.812 28.642C142.478 28.8277 142.215 29.0985 142.022 29.4545C141.829 29.8106 141.732 30.2424 141.732 30.75ZM153.546 27.2727V28.4091H149.023V27.2727H153.546ZM150.342 25.1818H151.683V33.5C151.683 33.8788 151.737 34.1629 151.847 34.3523C151.961 34.5379 152.105 34.6629 152.279 34.7273C152.457 34.7879 152.645 34.8182 152.842 34.8182C152.989 34.8182 153.111 34.8106 153.205 34.7955C153.3 34.7765 153.376 34.7614 153.433 34.75L153.705 35.9545C153.614 35.9886 153.487 36.0227 153.325 36.0568C153.162 36.0947 152.955 36.1136 152.705 36.1136C152.326 36.1136 151.955 36.0322 151.592 35.8693C151.232 35.7064 150.933 35.4583 150.694 35.125C150.459 34.7917 150.342 34.3712 150.342 33.8636V25.1818ZM159.129 36.1818C158.288 36.1818 157.562 35.9962 156.952 35.625C156.346 35.25 155.879 34.7273 155.549 34.0568C155.223 33.3826 155.06 32.5985 155.06 31.7045C155.06 30.8106 155.223 30.0227 155.549 29.3409C155.879 28.6553 156.337 28.1212 156.924 27.7386C157.515 27.3523 158.204 27.1591 158.992 27.1591C159.447 27.1591 159.896 27.2348 160.339 27.3864C160.782 27.5379 161.185 27.7841 161.549 28.125C161.913 28.4621 162.202 28.9091 162.418 29.4659C162.634 30.0227 162.742 30.7083 162.742 31.5227V32.0909H156.015V30.9318H161.379C161.379 30.4394 161.28 30 161.083 29.6136C160.89 29.2273 160.613 28.9223 160.254 28.6989C159.897 28.4754 159.477 28.3636 158.992 28.3636C158.458 28.3636 157.996 28.4962 157.606 28.7614C157.219 29.0227 156.922 29.3636 156.714 29.7841C156.505 30.2045 156.401 30.6553 156.401 31.1364V31.9091C156.401 32.5682 156.515 33.1269 156.742 33.5852C156.973 34.0398 157.293 34.3864 157.702 34.625C158.112 34.8598 158.587 34.9773 159.129 34.9773C159.481 34.9773 159.799 34.928 160.083 34.8295C160.371 34.7273 160.619 34.5758 160.827 34.375C161.036 34.1705 161.197 33.9167 161.31 33.6136L162.606 33.9773C162.469 34.4167 162.24 34.803 161.918 35.1364C161.596 35.4659 161.199 35.7235 160.725 35.9091C160.252 36.0909 159.719 36.1818 159.129 36.1818ZM164.782 36V27.2727H166.077V28.5909H166.168C166.327 28.1591 166.615 27.8087 167.032 27.5398C167.449 27.2708 167.918 27.1364 168.441 27.1364C168.54 27.1364 168.663 27.1383 168.81 27.142C168.958 27.1458 169.07 27.1515 169.146 27.1591V28.5227C169.1 28.5114 168.996 28.4943 168.833 28.4716C168.674 28.4451 168.505 28.4318 168.327 28.4318C167.903 28.4318 167.524 28.5208 167.191 28.6989C166.862 28.8731 166.6 29.1155 166.407 29.4261C166.218 29.733 166.123 30.0833 166.123 30.4773V36H164.782ZM174.129 36.1818C173.288 36.1818 172.562 35.9962 171.952 35.625C171.346 35.25 170.879 34.7273 170.549 34.0568C170.223 33.3826 170.06 32.5985 170.06 31.7045C170.06 30.8106 170.223 30.0227 170.549 29.3409C170.879 28.6553 171.337 28.1212 171.924 27.7386C172.515 27.3523 173.204 27.1591 173.992 27.1591C174.447 27.1591 174.896 27.2348 175.339 27.3864C175.782 27.5379 176.185 27.7841 176.549 28.125C176.913 28.4621 177.202 28.9091 177.418 29.4659C177.634 30.0227 177.742 30.7083 177.742 31.5227V32.0909H171.015V30.9318H176.379C176.379 30.4394 176.28 30 176.083 29.6136C175.89 29.2273 175.613 28.9223 175.254 28.6989C174.897 28.4754 174.477 28.3636 173.992 28.3636C173.458 28.3636 172.996 28.4962 172.606 28.7614C172.219 29.0227 171.922 29.3636 171.714 29.7841C171.505 30.2045 171.401 30.6553 171.401 31.1364V31.9091C171.401 32.5682 171.515 33.1269 171.742 33.5852C171.973 34.0398 172.293 34.3864 172.702 34.625C173.112 34.8598 173.587 34.9773 174.129 34.9773C174.481 34.9773 174.799 34.928 175.083 34.8295C175.371 34.7273 175.619 34.5758 175.827 34.375C176.036 34.1705 176.197 33.9167 176.31 33.6136L177.606 33.9773C177.469 34.4167 177.24 34.803 176.918 35.1364C176.596 35.4659 176.199 35.7235 175.725 35.9091C175.252 36.0909 174.719 36.1818 174.129 36.1818ZM185.964 29.2273L184.759 29.5682C184.683 29.3674 184.572 29.1723 184.424 28.983C184.28 28.7898 184.083 28.6307 183.833 28.5057C183.583 28.3807 183.263 28.3182 182.873 28.3182C182.339 28.3182 181.894 28.4413 181.538 28.6875C181.185 28.9299 181.009 29.2386 181.009 29.6136C181.009 29.947 181.13 30.2102 181.373 30.4034C181.615 30.5966 181.994 30.7576 182.509 30.8864L183.805 31.2045C184.585 31.3939 185.166 31.6837 185.549 32.0739C185.932 32.4602 186.123 32.9583 186.123 33.5682C186.123 34.0682 185.979 34.5152 185.691 34.9091C185.407 35.303 185.009 35.6136 184.498 35.8409C183.987 36.0682 183.392 36.1818 182.714 36.1818C181.824 36.1818 181.087 35.9886 180.504 35.6023C179.92 35.2159 179.551 34.6515 179.396 33.9091L180.668 33.5909C180.79 34.0606 181.019 34.4129 181.356 34.6477C181.697 34.8826 182.142 35 182.691 35C183.316 35 183.812 34.8674 184.18 34.6023C184.551 34.3333 184.737 34.0114 184.737 33.6364C184.737 33.3333 184.63 33.0795 184.418 32.875C184.206 32.6667 183.88 32.5114 183.441 32.4091L181.987 32.0682C181.187 31.8788 180.6 31.5852 180.225 31.1875C179.854 30.786 179.668 30.2841 179.668 29.6818C179.668 29.1894 179.807 28.7538 180.083 28.375C180.363 27.9962 180.744 27.6989 181.225 27.483C181.71 27.267 182.259 27.1591 182.873 27.1591C183.737 27.1591 184.415 27.3485 184.907 27.7273C185.403 28.1061 185.755 28.6061 185.964 29.2273ZM191.937 27.2727V28.4091H187.414V27.2727H191.937ZM188.732 25.1818H190.073V33.5C190.073 33.8788 190.128 34.1629 190.238 34.3523C190.352 34.5379 190.496 34.6629 190.67 34.7273C190.848 34.7879 191.035 34.8182 191.232 34.8182C191.38 34.8182 191.501 34.8106 191.596 34.7955C191.691 34.7765 191.766 34.7614 191.823 34.75L192.096 35.9545C192.005 35.9886 191.878 36.0227 191.715 36.0568C191.552 36.0947 191.346 36.1136 191.096 36.1136C190.717 36.1136 190.346 36.0322 189.982 35.8693C189.622 35.7064 189.323 35.4583 189.085 35.125C188.85 34.7917 188.732 34.3712 188.732 33.8636V25.1818Z" fill="white"/>
<path d="M39 20C33.4771 20 29 24.4771 29 30C29 35.5229 33.4771 40 39 40C44.5229 40 49 35.5229 49 30C49 24.4771 44.5229 20 39 20ZM43.3132 30.6541C42.4518 32.8938 40.8438 33.3065 39.8249 33.3065C38.806 33.3065 38.1918 32.4712 38.1918 32.4712C38.1918 32.4712 37.8995 33.9852 37.6322 34.6638C37.4801 35.0502 37.2475 35.4529 37.0754 35.7288C37.0664 35.7464 37.0558 35.7631 37.0439 35.7789C36.917 35.9442 36.7636 36.0873 36.5898 36.2024C36.5598 36.222 36.5254 36.2336 36.4897 36.2363C36.454 36.2389 36.4182 36.2325 36.3856 36.2175C36.3531 36.2026 36.3248 36.1797 36.3035 36.1509C36.2822 36.1221 36.2686 36.0884 36.2638 36.0529C36.246 35.9201 36.2259 35.7311 36.2073 35.4652C36.1742 35.1044 36.1562 34.627 36.2496 34.2721C36.4062 33.677 37.2102 30.1216 37.2102 30.1216C36.542 28.3153 37.5443 27.313 38.4005 27.2711C39.2568 27.2292 39.382 28.3675 39.2254 28.8688C39.0687 29.3701 38.7086 30.6386 38.6459 30.8579C38.5832 31.0771 38.8025 32.3458 40.1025 32.0482C41.4024 31.7506 41.935 29.7772 41.935 28.4146C41.935 27.052 41.0735 25.8095 39.0375 25.7781C37.0014 25.7468 35.9677 27.2713 35.7171 28.3676C35.4666 29.4639 35.9521 30.2366 36.0983 30.4402C36.2445 30.6438 36.2236 30.7013 36.2027 30.9048C36.1818 31.1084 36.1246 31.5783 35.8268 31.5887C35.529 31.5992 34.9184 31.0458 34.6835 30.576C33.9143 29.0377 34.4126 27.2411 35.5248 25.9949C36.9489 24.3993 39.7262 24.1363 41.5591 25.1255C43.5325 26.1904 44.1746 28.4145 43.3132 30.6541Z" fill="white"/>
</svg>
