<svg width="466" height="133" viewBox="0 0 466 133" fill="none" xmlns="http://www.w3.org/2000/svg">
<rect opacity="0.5" x="0.499023" y="0.5" width="465" height="132" rx="14.5" stroke="#636363"/>
<rect x="366.499" y="28.5" width="71" height="79" rx="6.5" fill="#E4B850" stroke="#E4B850"/>
<path d="M403.767 76.5434C403.769 76.5411 403.771 76.5387 403.773 76.5364L409.724 69.3325C409.771 69.2753 409.813 69.212 409.849 69.1439L409.942 68.9365L409.981 68.795L409.981 68.6913C410.005 68.5323 410.005 68.3694 409.981 68.2104L409.981 68.1161L409.981 68.003L409.911 67.8427C409.871 67.7533 409.821 67.6709 409.763 67.5975L403.773 60.3653C403.377 59.881 402.732 59.8778 402.332 60.3583C402.33 60.3606 402.328 60.3629 402.326 60.3653C401.942 60.8535 401.942 61.6215 402.326 62.1097L405.874 66.4189C406.024 66.6048 406.022 66.9033 405.868 67.0856C405.797 67.1704 405.701 67.2186 405.601 67.2203L394.018 67.2203C393.455 67.2203 392.999 67.7733 392.999 68.4555C392.999 69.1377 393.455 69.6907 394.018 69.6908L394.018 69.6908L405.601 69.6908C405.816 69.6945 405.988 69.9085 405.985 70.1688C405.983 70.2899 405.944 70.4058 405.874 70.4923L402.326 74.7826C401.937 75.272 401.937 76.047 402.326 76.5364C402.723 77.0207 403.368 77.0239 403.767 76.5434Z" fill="white"/>
<path d="M125.879 45.224C127.319 45.544 128.183 46.488 128.183 48.008C128.183 49.912 126.775 51 123.975 51H118.823V39.8H123.655C126.151 39.8 127.591 40.856 127.591 42.68C127.591 43.96 126.903 44.808 125.879 45.224ZM123.575 40.776H120.007V44.84H123.575C125.367 44.84 126.407 44.152 126.407 42.808C126.407 41.464 125.367 40.776 123.575 40.776ZM123.959 50.024C125.927 50.024 126.999 49.384 126.999 47.912C126.999 46.456 125.927 45.816 123.959 45.816H120.007V50.024H123.959ZM134.086 51.08C131.622 51.08 129.798 49.288 129.798 46.792C129.798 44.296 131.622 42.52 134.086 42.52C136.55 42.52 138.358 44.296 138.358 46.792C138.358 49.288 136.55 51.08 134.086 51.08ZM134.086 50.072C135.878 50.072 137.206 48.76 137.206 46.792C137.206 44.824 135.878 43.512 134.086 43.512C132.294 43.512 130.95 44.824 130.95 46.792C130.95 48.76 132.294 50.072 134.086 50.072ZM144.117 51.08C141.653 51.08 139.829 49.288 139.829 46.792C139.829 44.296 141.653 42.52 144.117 42.52C146.581 42.52 148.389 44.296 148.389 46.792C148.389 49.288 146.581 51.08 144.117 51.08ZM144.117 50.072C145.909 50.072 147.237 48.76 147.237 46.792C147.237 44.824 145.909 43.512 144.117 43.512C142.325 43.512 140.981 44.824 140.981 46.792C140.981 48.76 142.325 50.072 144.117 50.072ZM157.22 51L153.828 46.776L151.844 48.6V51H150.708V39.128H151.844V47.176L156.868 42.584H158.276L154.676 46.024L158.612 51H157.22ZM173.065 39.8L168.585 47.128V51H167.417V47.128L162.937 39.8H164.201L168.041 46.088L171.881 39.8H173.065ZM177.148 51.08C174.684 51.08 172.86 49.288 172.86 46.792C172.86 44.296 174.684 42.52 177.148 42.52C179.612 42.52 181.42 44.296 181.42 46.792C181.42 49.288 179.612 51.08 177.148 51.08ZM177.148 50.072C178.94 50.072 180.268 48.76 180.268 46.792C180.268 44.824 178.94 43.512 177.148 43.512C175.356 43.512 174.012 44.824 174.012 46.792C174.012 48.76 175.356 50.072 177.148 50.072ZM190.187 42.584H191.323V51H190.235V49.464C189.643 50.488 188.555 51.08 187.211 51.08C185.067 51.08 183.659 49.88 183.659 47.464V42.584H184.795V47.352C184.795 49.144 185.723 50.056 187.323 50.056C189.083 50.056 190.187 48.92 190.187 47V42.584ZM195.593 44.232C196.121 43.112 197.193 42.52 198.745 42.52V43.624C198.649 43.624 198.553 43.608 198.473 43.608C196.713 43.608 195.641 44.728 195.641 46.712V51H194.505V42.584H195.593V44.232ZM205.354 51V39.8H209.914C213.498 39.8 215.914 42.104 215.914 45.4C215.914 48.696 213.498 51 209.914 51H205.354ZM206.538 49.976H209.85C212.826 49.976 214.746 48.088 214.746 45.4C214.746 42.712 212.826 40.824 209.85 40.824H206.538V49.976ZM219.421 44.232C219.949 43.112 221.021 42.52 222.573 42.52V43.624C222.477 43.624 222.381 43.608 222.301 43.608C220.541 43.608 219.469 44.728 219.469 46.712V51H218.333V42.584H219.421V44.232ZM231.896 46.792C231.896 46.888 231.88 47.016 231.88 47.144H224.84C224.968 48.904 226.312 50.072 228.152 50.072C229.176 50.072 230.088 49.704 230.728 48.968L231.368 49.704C230.616 50.6 229.448 51.08 228.12 51.08C225.496 51.08 223.704 49.288 223.704 46.792C223.704 44.296 225.448 42.52 227.816 42.52C230.184 42.52 231.896 44.264 231.896 46.792ZM227.816 43.496C226.184 43.496 224.984 44.648 224.84 46.296H230.808C230.664 44.648 229.464 43.496 227.816 43.496ZM236.918 42.52C239.094 42.52 240.326 43.608 240.326 45.784V51H239.238V49.688C238.726 50.552 237.734 51.08 236.342 51.08C234.438 51.08 233.27 50.088 233.27 48.632C233.27 47.336 234.102 46.248 236.518 46.248H239.19V45.736C239.19 44.296 238.374 43.512 236.806 43.512C235.718 43.512 234.694 43.896 234.006 44.504L233.494 43.656C234.342 42.936 235.59 42.52 236.918 42.52ZM236.518 50.184C237.798 50.184 238.742 49.576 239.19 48.472V47.096H236.55C234.918 47.096 234.39 47.736 234.39 48.6C234.39 49.576 235.174 50.184 236.518 50.184ZM253.907 42.52C255.955 42.52 257.299 43.704 257.299 46.12V51H256.163V46.232C256.163 44.456 255.267 43.544 253.747 43.544C252.019 43.544 250.931 44.664 250.931 46.584V51H249.795V46.232C249.795 44.456 248.899 43.544 247.363 43.544C245.651 43.544 244.547 44.664 244.547 46.584V51H243.411V42.584H244.499V44.12C245.091 43.112 246.179 42.52 247.587 42.52C248.979 42.52 250.067 43.112 250.579 44.296C251.187 43.208 252.387 42.52 253.907 42.52ZM268.999 39.8C271.847 39.8 273.575 41.24 273.575 43.64C273.575 46.024 271.847 47.464 268.999 47.464H265.991V51H264.807V39.8H268.999ZM268.967 46.424C271.207 46.424 272.391 45.4 272.391 43.64C272.391 41.848 271.207 40.824 268.967 40.824H265.991V46.424H268.967ZM276.765 44.232C277.293 43.112 278.365 42.52 279.917 42.52V43.624C279.821 43.624 279.725 43.608 279.645 43.608C277.885 43.608 276.813 44.728 276.813 46.712V51H275.677V42.584H276.765V44.232ZM285.336 51.08C282.872 51.08 281.048 49.288 281.048 46.792C281.048 44.296 282.872 42.52 285.336 42.52C287.8 42.52 289.608 44.296 289.608 46.792C289.608 49.288 287.8 51.08 285.336 51.08ZM285.336 50.072C287.128 50.072 288.456 48.76 288.456 46.792C288.456 44.824 287.128 43.512 285.336 43.512C283.544 43.512 282.2 44.824 282.2 46.792C282.2 48.76 283.544 50.072 285.336 50.072ZM296.263 42.52C298.663 42.52 300.455 44.248 300.455 46.792C300.455 49.352 298.663 51.08 296.263 51.08C294.919 51.08 293.767 50.504 293.063 49.416V54.104H291.927V42.584H293.015V44.248C293.703 43.128 294.871 42.52 296.263 42.52ZM296.183 50.072C297.959 50.072 299.319 48.76 299.319 46.792C299.319 44.84 297.959 43.512 296.183 43.512C294.391 43.512 293.047 44.84 293.047 46.792C293.047 48.76 294.391 50.072 296.183 50.072ZM310.115 46.792C310.115 46.888 310.099 47.016 310.099 47.144H303.059C303.187 48.904 304.531 50.072 306.371 50.072C307.395 50.072 308.307 49.704 308.947 48.968L309.587 49.704C308.835 50.6 307.667 51.08 306.339 51.08C303.715 51.08 301.923 49.288 301.923 46.792C301.923 44.296 303.667 42.52 306.035 42.52C308.403 42.52 310.115 44.264 310.115 46.792ZM306.035 43.496C304.403 43.496 303.203 44.648 303.059 46.296H309.027C308.883 44.648 307.683 43.496 306.035 43.496ZM313.515 44.232C314.043 43.112 315.115 42.52 316.667 42.52V43.624C316.571 43.624 316.475 43.608 316.395 43.608C314.635 43.608 313.563 44.728 313.563 46.712V51H312.427V42.584H313.515V44.232ZM323.115 49.672L323.515 50.488C323.067 50.888 322.395 51.08 321.739 51.08C320.155 51.08 319.275 50.184 319.275 48.632V43.544H317.771V42.584H319.275V40.744H320.411V42.584H322.971V43.544H320.411V48.568C320.411 49.56 320.923 50.104 321.867 50.104C322.331 50.104 322.795 49.96 323.115 49.672ZM331.379 42.584H332.499L328.291 52.008C327.587 53.656 326.691 54.184 325.491 54.184C324.707 54.184 323.955 53.928 323.443 53.416L323.971 52.568C324.387 52.984 324.899 53.208 325.507 53.208C326.259 53.208 326.771 52.856 327.251 51.8L327.619 50.984L323.859 42.584H325.043L328.211 49.736L331.379 42.584Z" fill="#222222"/>
<path d="M129.047 92.36C121.343 92.36 115.583 86.924 115.583 79.4C115.583 71.876 121.343 66.44 129.083 66.44C133.187 66.44 136.715 67.916 139.055 70.652L136.031 73.496C134.195 71.516 131.927 70.544 129.299 70.544C124.079 70.544 120.299 74.216 120.299 79.4C120.299 84.584 124.079 88.256 129.299 88.256C131.927 88.256 134.195 87.284 136.031 85.268L139.055 88.148C136.715 90.884 133.187 92.36 129.047 92.36ZM150.275 72.56C155.819 72.56 159.023 75.188 159.023 80.732V92H154.775V89.66C153.695 91.316 151.607 92.252 148.727 92.252C144.335 92.252 141.563 89.84 141.563 86.492C141.563 83.288 143.723 80.768 149.555 80.768H154.523V80.48C154.523 77.852 152.939 76.304 149.735 76.304C147.575 76.304 145.343 77.024 143.903 78.212L142.139 74.936C144.191 73.352 147.179 72.56 150.275 72.56ZM149.663 88.976C151.859 88.976 153.767 87.968 154.523 85.988V83.756H149.879C146.819 83.756 145.991 84.908 145.991 86.312C145.991 87.932 147.359 88.976 149.663 88.976ZM164.799 92V65.288H169.299V92H164.799ZM175.205 92V65.288H179.705V92H175.205ZM213.74 66.8H218.384V92H214.532L200.636 74.936V92H195.992V66.8H199.844L213.74 83.864V66.8ZM233.345 92.252C227.441 92.252 223.121 88.148 223.121 82.388C223.121 76.628 227.441 72.56 233.345 72.56C239.321 72.56 243.605 76.628 243.605 82.388C243.605 88.148 239.321 92.252 233.345 92.252ZM233.345 88.4C236.621 88.4 239.069 86.06 239.069 82.388C239.069 78.716 236.621 76.376 233.345 76.376C230.105 76.376 227.657 78.716 227.657 82.388C227.657 86.06 230.105 88.4 233.345 88.4ZM273.373 72.776H277.369L270.277 92H265.957L260.989 78.752L255.949 92H251.629L244.573 72.776H248.821L253.897 86.96L259.189 72.776H262.969L268.153 87.032L273.373 72.776Z" fill="#012322" fill-opacity="0.97"/>
<path d="M82.3184 52.1339H89.4249" stroke="#585858" stroke-opacity="0.8" stroke-width="7.80294" stroke-linecap="round" stroke-linejoin="round"/>
<path d="M74.1729 52.1339H75.3014" stroke="#585858" stroke-opacity="0.8" stroke-width="7.80294" stroke-linecap="round" stroke-linejoin="round"/>
<path d="M81.7979 59.77V44.4978" stroke="#585858" stroke-opacity="0.8" stroke-width="7.80294" stroke-linecap="round" stroke-linejoin="round"/>
<path d="M55.5385 52.1644C56.0875 52.928 56.484 53.6305 56.7585 54.3025C57.033 54.9439 57.1855 55.5854 57.1855 56.1657C57.1855 56.8988 56.972 57.6318 56.545 58.3344C56.1485 59.0369 55.569 59.7699 54.837 60.503L52.519 62.916C52.1835 63.252 52.031 63.6491 52.031 64.1378C52.031 64.3821 52.0615 64.5959 52.1225 64.8403C52.214 65.0847 52.3055 65.2679 52.3665 65.4512C52.9155 66.4591 53.861 67.7726 55.203 69.3609C56.5755 70.9492 58.0395 72.568 59.6255 74.1869C61.2725 75.8057 62.8585 77.3024 64.475 78.6769C66.061 80.0208 67.3725 80.9372 68.4095 81.4869C68.562 81.548 68.745 81.6397 68.9585 81.7313C69.2025 81.8229 69.4465 81.8535 69.721 81.8535C70.2395 81.8535 70.636 81.6702 70.9715 81.3342L73.2895 79.0434C74.052 78.2798 74.784 77.6995 75.4855 77.3329C76.187 76.9053 76.8885 76.6915 77.651 76.6915C78.2305 76.6915 78.8405 76.8137 79.5115 77.0886C80.1825 77.3635 80.884 77.7605 81.6465 78.2798L91.742 85.4577C92.535 86.0075 93.084 86.6489 93.4195 87.4125C93.7245 88.1762 93.9075 88.9398 93.9075 89.795C93.9075 90.8946 93.6635 92.0247 93.145 93.1243C92.6265 94.2239 91.9555 95.2624 91.071 96.2399C89.5765 97.8892 87.9295 99.0805 86.069 99.8441C84.239 100.608 82.2565 101.005 80.1215 101.005C77.0105 101.005 73.686 100.272 70.1785 98.775C66.671 97.2784 63.1635 95.2624 59.6865 92.7273C56.179 90.1615 52.8545 87.3209 49.6825 84.1748C46.541 80.9982 43.7045 77.6689 41.173 74.1869C38.672 70.7048 36.659 67.2228 35.195 63.7712C33.731 60.2892 32.999 56.9599 32.999 53.7833C32.999 51.7062 33.365 49.7209 34.097 47.8882C34.829 46.025 35.988 44.3145 37.6045 42.7873C39.5565 40.863 41.6915 39.9161 43.9485 39.9161C44.8025 39.9161 45.6565 40.0994 46.419 40.4659C47.212 40.8325 47.9135 41.3823 48.4625 42.1764" stroke="#585858" stroke-opacity="0.8" stroke-width="7.80294" stroke-miterlimit="10" stroke-linecap="round" stroke-linejoin="round"/>
</svg>
