<svg width="40" height="40" viewBox="0 0 40 40" fill="none" xmlns="http://www.w3.org/2000/svg">
<rect x="0.25" y="0.25" width="39.5" height="39.5" rx="4.75" stroke="#636363" stroke-width="0.5"/>
<path d="M27.9167 25H25.4167C25.1867 25 25 24.8133 25 24.5833C25 24.3533 25.1867 24.1667 25.4167 24.1667H27.9167C28.6058 24.1667 29.1667 23.6058 29.1667 22.9167V17.0833C29.1667 16.3942 28.6058 15.8333 27.9167 15.8333H12.0833C11.3942 15.8333 10.8333 16.3942 10.8333 17.0833V22.9167C10.8333 23.6058 11.3942 24.1667 12.0833 24.1667H14.5833C14.8133 24.1667 15 24.3533 15 24.5833C15 24.8133 14.8133 25 14.5833 25H12.0833C10.9342 25 10 24.065 10 22.9167V17.0833C10 15.935 10.9342 15 12.0833 15H27.9167C29.0658 15 30 15.935 30 17.0833V22.9167C30 24.065 29.0658 25 27.9167 25Z" fill="#636363"/>
<path d="M22.0837 27.4998H17.0837C16.8537 27.4998 16.667 27.3132 16.667 27.0832C16.667 26.8532 16.8537 26.6665 17.0837 26.6665H22.0837C22.3137 26.6665 22.5003 26.8532 22.5003 27.0832C22.5003 27.3132 22.3137 27.4998 22.0837 27.4998Z" fill="#636363"/>
<path d="M22.0837 25.8333H17.0837C16.8537 25.8333 16.667 25.6467 16.667 25.4167C16.667 25.1867 16.8537 25 17.0837 25H22.0837C22.3137 25 22.5003 25.1867 22.5003 25.4167C22.5003 25.6467 22.3137 25.8333 22.0837 25.8333Z" fill="#636363"/>
<path d="M18.7503 24.1668H17.0837C16.8537 24.1668 16.667 23.9802 16.667 23.7502C16.667 23.5202 16.8537 23.3335 17.0837 23.3335H18.7503C18.9803 23.3335 19.167 23.5202 19.167 23.7502C19.167 23.9802 18.9803 24.1668 18.7503 24.1668Z" fill="#636363"/>
<path d="M25.417 15.8333C25.187 15.8333 25.0003 15.6467 25.0003 15.4167V12.0833C25.0003 11.3942 24.4395 10.8333 23.7503 10.8333H16.2503C15.5612 10.8333 15.0003 11.3942 15.0003 12.0833V15.4167C15.0003 15.6467 14.8137 15.8333 14.5837 15.8333C14.3537 15.8333 14.167 15.6467 14.167 15.4167V12.0833C14.167 10.935 15.1012 10 16.2503 10H23.7503C24.8995 10 25.8337 10.935 25.8337 12.0833V15.4167C25.8337 15.6467 25.647 15.8333 25.417 15.8333Z" fill="#636363"/>
<path d="M23.7503 30.0002H16.2503C15.1012 30.0002 14.167 29.0652 14.167 27.9168V21.2502C14.167 21.0202 14.3537 20.8335 14.5837 20.8335H25.417C25.647 20.8335 25.8337 21.0202 25.8337 21.2502V27.9168C25.8337 29.0652 24.8995 30.0002 23.7503 30.0002ZM15.0003 21.6668V27.9168C15.0003 28.606 15.5612 29.1668 16.2503 29.1668H23.7503C24.4395 29.1668 25.0003 28.606 25.0003 27.9168V21.6668H15.0003Z" fill="#636363"/>
</svg>
