<svg width="119" height="15" viewBox="0 0 119 15" fill="none" xmlns="http://www.w3.org/2000/svg">
<path d="M14.8691 6.15033L11.519 9.58177L12.3065 14.4383C12.3759 14.8258 11.9552 15.1096 11.619 14.9258L7.5 12.6444V0C7.67501 0 7.85002 0.0812544 7.92502 0.250013L9.99388 4.6565L14.6004 5.35654C14.9854 5.42529 15.1273 5.87844 14.8691 6.15033Z" fill="#FFC107"/>
<path d="M7.50007 0V12.6444L3.3811 14.9258C3.05046 15.1114 2.62356 14.8302 2.69356 14.4383L3.48111 9.58177L0.130927 6.15033C-0.127212 5.87844 0.0140454 5.42529 0.399691 5.35654L5.00619 4.6565L7.07505 0.250013C7.15006 0.0812544 7.32507 0 7.50007 0Z" fill="#FFC107"/>
<path d="M33.8691 6.15033L30.519 9.58177L31.3065 14.4383C31.3759 14.8258 30.9552 15.1096 30.619 14.9258L26.5 12.6444V0C26.675 0 26.85 0.0812544 26.925 0.250013L28.9939 4.6565L33.6004 5.35654C33.9854 5.42529 34.1273 5.87844 33.8691 6.15033Z" fill="#FFC107"/>
<path d="M26.5001 0V12.6444L22.3811 14.9258C22.0505 15.1114 21.6236 14.8302 21.6936 14.4383L22.4811 9.58177L19.1309 6.15033C18.8728 5.87844 19.014 5.42529 19.3997 5.35654L24.0062 4.6565L26.0751 0.250013C26.1501 0.0812544 26.3251 0 26.5001 0Z" fill="#FFC107"/>
<path d="M52.8691 6.15033L49.519 9.58177L50.3065 14.4383C50.3759 14.8258 49.9552 15.1096 49.619 14.9258L45.5 12.6444V0C45.675 0 45.85 0.0812544 45.925 0.250013L47.9939 4.6565L52.6004 5.35654C52.9854 5.42529 53.1273 5.87844 52.8691 6.15033Z" fill="#FFC107"/>
<path d="M45.5001 0V12.6444L41.3811 14.9258C41.0505 15.1114 40.6236 14.8302 40.6936 14.4383L41.4811 9.58177L38.1309 6.15033C37.8728 5.87844 38.014 5.42529 38.3997 5.35654L43.0062 4.6565L45.0751 0.250013C45.1501 0.0812544 45.3251 0 45.5001 0Z" fill="#FFC107"/>
<path d="M71.8691 6.15033L68.519 9.58177L69.3065 14.4383C69.3759 14.8258 68.9552 15.1096 68.619 14.9258L64.5 12.6444V0C64.675 0 64.85 0.0812544 64.925 0.250013L66.9939 4.6565L71.6004 5.35654C71.9854 5.42529 72.1273 5.87844 71.8691 6.15033Z" fill="#FFC107"/>
<path d="M64.5001 0V12.6444L60.3811 14.9258C60.0505 15.1114 59.6236 14.8302 59.6936 14.4383L60.4811 9.58177L57.1309 6.15033C56.8728 5.87844 57.014 5.42529 57.3997 5.35654L62.0062 4.6565L64.0751 0.250013C64.1501 0.0812544 64.3251 0 64.5001 0Z" fill="#FFC107"/>
<path opacity="0.2" d="M91.8691 6.15033L88.519 9.58177L89.3065 14.4383C89.3759 14.8258 88.9552 15.1096 88.619 14.9258L84.5 12.6444V0C84.675 0 84.85 0.0812544 84.925 0.250013L86.9939 4.6565L91.6004 5.35654C91.9854 5.42529 92.1273 5.87844 91.8691 6.15033Z" fill="#636363"/>
<path d="M84.5001 0V12.6444L80.3811 14.9258C80.0505 15.1114 79.6236 14.8302 79.6936 14.4383L80.4811 9.58177L77.1309 6.15033C76.8728 5.87844 77.014 5.42529 77.3997 5.35654L82.0062 4.6565L84.0751 0.250013C84.1501 0.0812544 84.3251 0 84.5001 0Z" fill="#FFC107"/>
<path opacity="0.5" d="M102.582 10.5085V9.78409L105.778 4.72727H106.304V5.84943H105.949L103.534 9.67045V9.72727H107.838V10.5085H102.582ZM106.006 12V10.2884V9.95099V4.72727H106.844V12H106.006ZM111.754 4.38636L109.41 13.0938H108.643L110.987 4.38636H111.754ZM115.006 12.0994C114.589 12.0994 114.214 12.0166 113.88 11.8509C113.547 11.6851 113.279 11.4579 113.078 11.169C112.877 10.8802 112.766 10.5511 112.748 10.1818H113.6C113.633 10.5109 113.782 10.7831 114.047 10.9986C114.315 11.2116 114.634 11.3182 115.006 11.3182C115.304 11.3182 115.569 11.2483 115.801 11.1087C116.036 10.969 116.219 10.7772 116.352 10.5334C116.487 10.2872 116.554 10.009 116.554 9.69886C116.554 9.38163 116.484 9.09872 116.345 8.85014C116.208 8.5992 116.018 8.40152 115.777 8.2571C115.535 8.11269 115.259 8.0393 114.949 8.03693C114.727 8.03456 114.498 8.06889 114.264 8.13991C114.029 8.20857 113.837 8.29735 113.685 8.40625L112.861 8.30682L113.301 4.72727H117.08V5.50852H114.04L113.784 7.65341H113.827C113.976 7.53504 114.163 7.43679 114.388 7.35866C114.613 7.28054 114.847 7.24148 115.091 7.24148C115.536 7.24148 115.933 7.34801 116.281 7.56108C116.631 7.77178 116.906 8.06061 117.105 8.42756C117.306 8.79451 117.407 9.21354 117.407 9.68466C117.407 10.1487 117.302 10.563 117.094 10.9276C116.888 11.2898 116.604 11.5762 116.242 11.7869C115.88 11.9953 115.468 12.0994 115.006 12.0994Z" fill="#636363"/>
</svg>
