<svg width="26" height="26" viewBox="0 0 26 26" fill="none" xmlns="http://www.w3.org/2000/svg">
<path fill-rule="evenodd" clip-rule="evenodd" d="M12.6972 25.2453C5.76241 25.2453 0.140625 19.6235 0.140625 12.6887C0.140625 5.75386 5.76241 0.13208 12.6972 0.13208C19.632 0.13208 25.2538 5.75386 25.2538 12.6887C25.2538 19.6235 19.632 25.2453 12.6972 25.2453ZM12.6972 22.9623C18.3712 22.9623 22.9708 18.3626 22.9708 12.6887C22.9708 7.01474 18.3712 2.4151 12.6972 2.4151C7.02328 2.4151 2.42364 7.01474 2.42364 12.6887C2.42364 18.3626 7.02328 22.9623 12.6972 22.9623ZM18.4048 11.5472H13.8387V5.83963H11.5557V13.8302H18.4048V11.5472Z" fill="#012322" fill-opacity="0.97"/>
</svg>
