<svg width="21" height="20" viewBox="0 0 21 20" fill="none" xmlns="http://www.w3.org/2000/svg">
<path opacity="0.5" d="M10.2306 0C4.69517 0 0.191711 4.48602 0.191711 10C0.191711 15.5136 4.69517 20 10.2306 20C15.7656 20 20.2694 15.5136 20.2694 10C20.2694 4.48602 15.7664 0 10.2306 0ZM14.709 7.71127C14.7134 7.81036 14.7158 7.91026 14.7158 8.01015C14.7158 11.0517 12.3923 14.5577 8.1412 14.5577C6.8363 14.5577 5.62158 14.1779 4.59933 13.5245C4.78008 13.5459 4.96407 13.5568 5.15049 13.5568C6.23339 13.5568 7.22935 13.1886 8.02029 12.5715C7.00937 12.553 6.15575 11.8875 5.86177 10.9728C6.00249 10.9994 6.14766 11.0143 6.29606 11.0143C6.50674 11.0143 6.71135 10.9869 6.90504 10.9341C5.84802 10.723 5.05182 9.79296 5.05182 8.67719C5.05182 8.66753 5.05182 8.65746 5.05222 8.64819C5.36359 8.82019 5.71984 8.92411 6.09833 8.93579C5.47883 8.52373 5.07083 7.81882 5.07083 7.02046C5.07083 6.59832 5.18445 6.20277 5.3834 5.86281C6.52251 7.2557 8.22571 8.17167 10.1457 8.26835C10.106 8.09957 10.0862 7.92435 10.0862 7.74349C10.0862 6.47265 11.1206 5.44188 12.3964 5.44188C13.0612 5.44188 13.6608 5.72142 14.083 6.16853C14.6099 6.06542 15.1032 5.87449 15.5509 5.60984C15.377 6.14759 15.0118 6.59832 14.5335 6.88351C15.0013 6.82792 15.4477 6.70466 15.8606 6.52139C15.5525 6.9822 15.1606 7.38782 14.709 7.71127Z" fill="white"/>
</svg>
