<svg width="80" height="80" viewBox="0 0 80 80" fill="none" xmlns="http://www.w3.org/2000/svg">
<circle cx="40" cy="40" r="39" fill="#EDFBF4" stroke="#124342" stroke-width="2"/>
<path d="M22.5394 46.2216V43.2884L31.18 29.6364H33.6261V33.8125H32.1346L26.3178 43.0298V43.1889H38.3789V46.2216H22.5394ZM32.2539 50V45.3267L32.2937 44.0142V29.6364H35.7738V50H32.2539ZM49.0131 50.2784C48.0387 50.2718 47.0875 50.1027 46.1594 49.7713C45.2314 49.4332 44.3962 48.8864 43.6538 48.1307C42.9113 47.3684 42.3214 46.3575 41.8839 45.098C41.4464 43.8319 41.2309 42.2642 41.2376 40.3949C41.2376 38.6515 41.4232 37.0971 41.7944 35.7315C42.1656 34.366 42.6992 33.2126 43.3952 32.2713C44.0913 31.3234 44.9298 30.6009 45.9109 30.1037C46.8986 29.6065 48.0022 29.358 49.2219 29.358C50.5013 29.358 51.6348 29.6098 52.6225 30.1136C53.6168 30.6174 54.4189 31.3068 55.0288 32.1818C55.6386 33.0502 56.0165 34.0312 56.1623 35.125H52.533C52.3474 34.3428 51.9663 33.7197 51.3896 33.2557C50.8195 32.785 50.0969 32.5497 49.2219 32.5497C47.81 32.5497 46.7229 33.1629 45.9606 34.3892C45.2049 35.6155 44.8237 37.2992 44.8171 39.4403H44.9563C45.2811 38.857 45.7021 38.3565 46.2191 37.9389C46.7362 37.5213 47.3195 37.1998 47.9691 36.9744C48.6254 36.7424 49.3181 36.6264 50.0472 36.6264C51.2404 36.6264 52.311 36.9115 53.2589 37.4815C54.2134 38.0516 54.9691 38.8371 55.5259 39.8381C56.0827 40.8324 56.3578 41.9725 56.3512 43.2585C56.3578 44.5975 56.0529 45.8007 55.4364 46.8679C54.82 47.9285 53.9615 48.7637 52.8612 49.3736C51.7608 49.9834 50.4781 50.285 49.0131 50.2784ZM48.9933 47.2955C49.7158 47.2955 50.3621 47.1198 50.9322 46.7685C51.5022 46.4171 51.953 45.9432 52.2844 45.3466C52.6159 44.75 52.7783 44.0805 52.7717 43.3381C52.7783 42.6089 52.6192 41.9493 52.2944 41.3594C51.9762 40.7694 51.5354 40.3021 50.9719 39.9574C50.4085 39.6127 49.7655 39.4403 49.043 39.4403C48.506 39.4403 48.0056 39.5431 47.5415 39.7486C47.0775 39.9541 46.6732 40.2391 46.3285 40.6037C45.9838 40.9616 45.712 41.3793 45.5131 41.8565C45.3209 42.3272 45.2215 42.831 45.2148 43.3679C45.2215 44.0772 45.3872 44.7301 45.712 45.3267C46.0368 45.9233 46.4843 46.4006 47.0543 46.7585C47.6244 47.1165 48.2707 47.2955 48.9933 47.2955Z" fill="#124342"/>
</svg>
