<svg width="80" height="80" viewBox="0 0 80 80" fill="none" xmlns="http://www.w3.org/2000/svg">
<circle cx="40" cy="40" r="39" fill="#EDFBF4" stroke="#124342" stroke-width="2"/>
<path d="M30.4616 50.2784C29.0298 50.2784 27.7571 50.0331 26.6435 49.5426C25.5365 49.0521 24.6615 48.3693 24.0185 47.4943C23.3755 46.6193 23.0341 45.6084 22.9943 44.4616H26.733C26.7661 45.0118 26.9484 45.4924 27.2798 45.9034C27.6113 46.3078 28.0521 46.6226 28.6023 46.848C29.1525 47.0734 29.7689 47.1861 30.4517 47.1861C31.1809 47.1861 31.8272 47.0601 32.3906 46.8082C32.9541 46.5497 33.3949 46.1918 33.7131 45.7344C34.0313 45.277 34.187 44.75 34.1804 44.1534C34.187 43.5369 34.0279 42.9934 33.7031 42.5227C33.3783 42.0521 32.9077 41.6842 32.2912 41.419C31.6813 41.1539 30.9455 41.0213 30.0838 41.0213H28.2841V38.1776H30.0838C30.7931 38.1776 31.4129 38.0549 31.9432 37.8097C32.4801 37.5644 32.901 37.2197 33.206 36.7756C33.5109 36.3248 33.66 35.8045 33.6534 35.2145C33.66 34.6378 33.5308 34.1373 33.2656 33.7131C33.0071 33.2822 32.6392 32.9474 32.1619 32.7088C31.6913 32.4702 31.1378 32.3509 30.5014 32.3509C29.8783 32.3509 29.3016 32.4635 28.7713 32.6889C28.241 32.9143 27.8134 33.2358 27.4886 33.6534C27.1638 34.0644 26.9915 34.5549 26.9716 35.125H23.4219C23.4484 33.9848 23.7765 32.9839 24.4062 32.1222C25.0426 31.2538 25.8911 30.5777 26.9517 30.0938C28.0123 29.6032 29.2022 29.358 30.5213 29.358C31.8802 29.358 33.0601 29.6132 34.0611 30.1236C35.0687 30.6274 35.8475 31.3068 36.3977 32.1619C36.9479 33.017 37.223 33.9616 37.223 34.9957C37.2296 36.1425 36.8916 37.1037 36.2088 37.8793C35.5327 38.6548 34.6444 39.1619 33.544 39.4006V39.5597C34.9759 39.7585 36.0729 40.2888 36.8352 41.1506C37.6042 42.0057 37.9853 43.0696 37.9787 44.3423C37.9787 45.4825 37.6539 46.5033 37.0043 47.4048C36.3613 48.2997 35.473 49.0024 34.3395 49.5128C33.2126 50.0232 31.92 50.2784 30.4616 50.2784ZM48.6303 50.2784C47.1521 50.2784 45.8396 50.0298 44.6928 49.5327C43.5527 49.0355 42.6578 48.3561 42.0082 47.4943C41.3652 46.6259 41.047 45.6416 41.0536 44.5412C41.047 43.6861 41.2326 42.9006 41.6104 42.1847C41.9883 41.4688 42.4987 40.8722 43.1417 40.3949C43.7913 39.911 44.5138 39.6027 45.3093 39.4702V39.331C44.262 39.099 43.4135 38.5653 42.7638 37.7301C42.1209 36.8883 41.8027 35.9171 41.8093 34.8168C41.8027 33.7694 42.0943 32.8348 42.6843 32.0128C43.2743 31.1908 44.083 30.5445 45.1104 30.0739C46.1379 29.5966 47.3112 29.358 48.6303 29.358C49.9362 29.358 51.0996 29.5966 52.1204 30.0739C53.1478 30.5445 53.9566 31.1908 54.5465 32.0128C55.1431 32.8348 55.4414 33.7694 55.4414 34.8168C55.4414 35.9171 55.1133 36.8883 54.457 37.7301C53.8074 38.5653 52.9689 39.099 51.9414 39.331V39.4702C52.7369 39.6027 53.4528 39.911 54.0891 40.3949C54.7321 40.8722 55.2425 41.4688 55.6204 42.1847C56.0049 42.9006 56.1971 43.6861 56.1971 44.5412C56.1971 45.6416 55.8723 46.6259 55.2227 47.4943C54.573 48.3561 53.6781 49.0355 52.538 49.5327C51.4045 50.0298 50.1019 50.2784 48.6303 50.2784ZM48.6303 47.4347C49.3926 47.4347 50.0555 47.3054 50.619 47.0469C51.1824 46.7817 51.6199 46.4105 51.9315 45.9332C52.243 45.456 52.4021 44.9058 52.4087 44.2827C52.4021 43.633 52.2331 43.0597 51.9016 42.5625C51.5768 42.0587 51.1294 41.6643 50.5593 41.3793C49.9959 41.0942 49.3529 40.9517 48.6303 40.9517C47.9012 40.9517 47.2515 41.0942 46.6815 41.3793C46.1114 41.6643 45.6606 42.0587 45.3292 42.5625C45.0044 43.0597 44.8453 43.633 44.8519 44.2827C44.8453 44.9058 44.9978 45.456 45.3093 45.9332C45.6209 46.4039 46.0584 46.7718 46.6218 47.0369C47.1919 47.3021 47.8614 47.4347 48.6303 47.4347ZM48.6303 38.1577C49.2534 38.1577 49.8036 38.0317 50.2809 37.7798C50.7648 37.5279 51.146 37.1766 51.4244 36.7259C51.7028 36.2751 51.8453 35.7547 51.8519 35.1648C51.8453 34.5814 51.7061 34.071 51.4343 33.6335C51.1625 33.1894 50.7847 32.848 50.3008 32.6094C49.8169 32.3641 49.2601 32.2415 48.6303 32.2415C47.9873 32.2415 47.4206 32.3641 46.93 32.6094C46.4461 32.848 46.0683 33.1894 45.7965 33.6335C45.5314 34.071 45.4021 34.5814 45.4087 35.1648C45.4021 35.7547 45.5347 36.2751 45.8065 36.7259C46.0849 37.17 46.466 37.5213 46.9499 37.7798C47.4405 38.0317 48.0006 38.1577 48.6303 38.1577Z" fill="#124342"/>
</svg>
