<svg width="80" height="80" viewBox="0 0 80 80" fill="none" xmlns="http://www.w3.org/2000/svg">
<circle cx="40" cy="40" r="40" fill="#EDFBF4"/>
<path d="M42.5345 23.0345C42.5286 22.0429 42.85 21.0721 43.458 20.245C44.0659 19.418 44.9331 18.772 45.9494 18.3889C46.9658 18.0058 48.0857 17.9028 49.1672 18.093C50.2487 18.2832 51.2431 18.758 52.0244 19.4573C52.8057 20.1566 53.3387 21.0489 53.5558 22.021C53.773 22.9932 53.6645 24.0014 53.2442 24.918C52.8238 25.8347 52.1106 26.6183 51.1947 27.1698C50.2789 27.7213 49.2017 28.0156 48.0998 28.0157C46.6297 28.0133 45.2201 27.4886 44.1778 26.5558C43.1355 25.6229 42.5449 24.3573 42.5345 23.0345Z" fill="#124342"/>
<path d="M59.7045 41.982C59.4895 42.3753 59.1566 42.7068 58.7434 42.9389C58.3302 43.1711 57.8531 43.2948 57.3659 43.2961C56.9769 43.2906 56.5948 43.2024 56.2509 43.0386L49.8666 40.2062C49.4178 40.0099 49.041 39.7017 48.7812 39.3183L46.3834 35.6601L43.0581 42.5947L47.7155 49.0587C48.0519 49.5235 48.2303 50.0666 48.2286 50.6214V59.0921C48.2293 59.5126 48.1282 59.9283 47.9322 60.3101C47.7362 60.692 47.4502 61.0308 47.0939 61.303C46.507 61.7442 45.7667 61.9862 45.002 61.9867C44.8216 62.0038 44.6397 62.0038 44.4593 61.9867C43.7012 61.8497 43.0206 61.478 42.5356 60.9361C42.0506 60.3943 41.7921 59.7167 41.8049 59.021V51.4915L38.0553 46.2884C37.6093 46.3327 37.1592 46.3327 36.7133 46.2884L34.5424 50.4172C34.3327 50.8067 34.0293 51.1494 33.6544 51.4205L25.267 57.6359C24.6879 58.0547 23.9674 58.2834 23.2244 58.2841C22.7423 58.2798 22.2675 58.1778 21.8353 57.9857C21.4031 57.7935 21.0246 57.5161 20.7279 57.1742C20.4588 56.8824 20.2573 56.5451 20.1353 56.1822C20.0133 55.8193 19.9732 55.438 20.0175 55.061C20.1043 54.2926 20.5266 53.5868 21.1917 53.0987L29.0857 47.345L31.967 41.8843C31.8289 40.9653 31.9687 40.0298 32.3716 39.1762L36.1311 31.3271L33.6149 32.215L30.1218 39.3183C29.8345 39.875 29.3151 40.3076 28.6761 40.5224C28.0371 40.7372 27.3297 40.7169 26.7071 40.466C26.0846 40.2151 25.5968 39.7537 25.3495 39.1816C25.1021 38.6095 25.115 37.9728 25.3854 37.4093L29.3324 29.418C29.4734 29.1158 29.6859 28.8448 29.9552 28.624C30.2244 28.4032 30.5439 28.2378 30.8915 28.1395L37.6606 25.8753C38.3258 25.6552 39.0358 25.5666 39.7425 25.6157C40.4491 25.6647 41.1357 25.8502 41.7556 26.1594C41.8485 26.2075 41.929 26.2726 41.9919 26.3507C42.0549 26.4287 42.0987 26.5179 42.1207 26.6122C42.31 27.4719 42.8243 28.2459 43.5763 28.8028C44.3283 29.3596 45.2714 29.6649 46.2453 29.6667C46.6325 29.6701 47.0182 29.6222 47.3899 29.5246C47.5044 29.4936 47.6257 29.4887 47.7429 29.5104C47.86 29.5321 47.9693 29.5797 48.0609 29.6489C48.7354 30.1466 49.3067 30.7478 49.7482 31.4247L52.9058 36.2905L58.6191 38.821C59.226 39.1133 59.6802 39.6091 59.8834 40.2009C60.0867 40.7926 60.0224 41.4326 59.7045 41.982Z" fill="#124342"/>
</svg>
