<svg width="80" height="80" viewBox="0 0 80 80" fill="none" xmlns="http://www.w3.org/2000/svg">
<circle cx="40" cy="40" r="39" fill="#EDFBF4" stroke="#124342" stroke-width="2"/>
<path d="M32.2722 50.2784C30.8404 50.2784 29.5676 50.0331 28.454 49.5426C27.347 49.0521 26.472 48.3693 25.829 47.4943C25.186 46.6193 24.8446 45.6084 24.8049 44.4616H28.5435C28.5766 45.0118 28.7589 45.4924 29.0904 45.9034C29.4218 46.3078 29.8626 46.6226 30.4128 46.848C30.963 47.0734 31.5795 47.1861 32.2623 47.1861C32.9914 47.1861 33.6377 47.0601 34.2012 46.8082C34.7646 46.5497 35.2054 46.1918 35.5236 45.7344C35.8418 45.277 35.9976 44.75 35.9909 44.1534C35.9976 43.5369 35.8385 42.9934 35.5137 42.5227C35.1889 42.0521 34.7182 41.6842 34.1017 41.419C33.4919 41.1539 32.7561 41.0213 31.8944 41.0213H30.0946V38.1776H31.8944C32.6036 38.1776 33.2234 38.0549 33.7537 37.8097C34.2907 37.5644 34.7116 37.2197 35.0165 36.7756C35.3214 36.3248 35.4706 35.8045 35.464 35.2145C35.4706 34.6378 35.3413 34.1373 35.0762 33.7131C34.8176 33.2822 34.4498 32.9474 33.9725 32.7088C33.5018 32.4702 32.9483 32.3509 32.312 32.3509C31.6889 32.3509 31.1122 32.4635 30.5819 32.6889C30.0516 32.9143 29.624 33.2358 29.2992 33.6534C28.9744 34.0644 28.802 34.5549 28.7821 35.125H25.2324C25.2589 33.9848 25.5871 32.9839 26.2168 32.1222C26.8532 31.2538 27.7016 30.5777 28.7623 30.0938C29.8229 29.6032 31.0127 29.358 32.3319 29.358C33.6908 29.358 34.8707 29.6132 35.8716 30.1236C36.8792 30.6274 37.6581 31.3068 38.2083 32.1619C38.7585 33.017 39.0336 33.9616 39.0336 34.9957C39.0402 36.1425 38.7021 37.1037 38.0194 37.8793C37.3432 38.6548 36.455 39.1619 35.3546 39.4006V39.5597C36.7864 39.7585 37.8835 40.2888 38.6458 41.1506C39.4147 42.0057 39.7959 43.0696 39.7892 44.3423C39.7892 45.4825 39.4644 46.5033 38.8148 47.4048C38.1718 48.2997 37.2836 49.0024 36.15 49.5128C35.0231 50.0232 33.7305 50.2784 32.2722 50.2784ZM51.4849 29.6364V50H47.796V33.2259H47.6767L42.9139 36.2685V32.8878L47.975 29.6364H51.4849Z" fill="#124342"/>
</svg>
