<svg width="16" height="16" viewBox="0 0 16 16" fill="none" xmlns="http://www.w3.org/2000/svg">
<path d="M8 0C3.58218 0 0 3.58164 0 8C0 12.4184 3.58183 16 8 16C12.4185 16 16 12.4184 16 8C16 3.58164 12.4185 0 8 0ZM8 2.39209C9.46183 2.39209 10.6464 3.57707 10.6464 5.03826C10.6464 6.4998 9.46183 7.68443 8 7.68443C6.53887 7.68443 5.3543 6.4998 5.3543 5.03826C5.3543 3.57707 6.53887 2.39209 8 2.39209ZM7.99824 13.9084C6.54028 13.9084 5.20495 13.3774 4.175 12.4985C3.9241 12.2845 3.77932 11.9707 3.77932 11.6414C3.77932 10.1595 4.97865 8.97342 6.46086 8.97342H9.53984C11.0224 8.97342 12.2172 10.1595 12.2172 11.6414C12.2172 11.971 12.0731 12.2841 11.8218 12.4981C10.7922 13.3774 9.45656 13.9084 7.99824 13.9084Z" fill="#636363"/>
</svg>
