<svg width="28" height="29" viewBox="0 0 28 29" fill="none" xmlns="http://www.w3.org/2000/svg">
<path fill-rule="evenodd" clip-rule="evenodd" d="M7.46477 6.69806C7.53326 7.714 7.70449 8.70711 7.97845 9.65457L6.60864 11.0244C6.14062 9.65457 5.84383 8.20485 5.74109 6.69806H7.46477ZM18.7201 20.419C19.6903 20.693 20.6835 20.8642 21.688 20.9327V22.6335C20.1812 22.5308 18.7315 22.234 17.3502 21.7774L18.7201 20.419ZM8.56062 4.41504H4.56534C3.93751 4.41504 3.42383 4.92872 3.42383 5.55655C3.42383 16.2753 12.1107 24.9622 22.8295 24.9622C23.4573 24.9622 23.971 24.4485 23.971 23.8207V19.8368C23.971 19.209 23.4573 18.6953 22.8295 18.6953C21.414 18.6953 20.0328 18.467 18.7543 18.0447C18.6402 17.999 18.5146 17.9876 18.4004 17.9876C18.1036 17.9876 17.8183 18.1017 17.59 18.3186L15.0786 20.8299C11.8482 19.1748 9.19987 16.5379 7.55609 13.3074L10.0674 10.7961C10.387 10.4765 10.4784 10.0313 10.3528 9.63174C9.93043 8.35325 9.70213 6.98344 9.70213 5.55655C9.70213 4.92872 9.18845 4.41504 8.56062 4.41504Z" fill="#012322" fill-opacity="0.97"/>
</svg>
