<svg width="17" height="16" viewBox="0 0 17 16" fill="none" xmlns="http://www.w3.org/2000/svg">
<path opacity="0.5" d="M8.50001 0C3.81312 0 2.28441e-05 3.39986 2.28441e-05 7.57895C2.28441e-05 9.03972 0.466389 10.4547 1.35095 11.6783C1.1835 13.5133 0.734705 14.8755 0.0830394 15.5208C-0.00309382 15.6062 -0.0246271 15.7367 0.0297728 15.8445C0.0779394 15.9408 0.177106 16 0.283356 16C0.296389 16 0.309422 15.9992 0.322739 15.9972C0.437489 15.9812 3.10309 15.6011 5.03117 14.4985C6.12596 14.9361 7.29216 15.1579 8.50001 15.1579C13.1869 15.1579 17 11.758 17 7.57895C17 3.39986 13.1869 0 8.50001 0ZM4.53335 8.70175C3.90832 8.70175 3.40002 8.19818 3.40002 7.57895C3.40002 6.95972 3.90832 6.45614 4.53335 6.45614C5.15838 6.45614 5.66668 6.95972 5.66668 7.57895C5.66668 8.19818 5.15838 8.70175 4.53335 8.70175ZM8.50001 8.70175C7.87498 8.70175 7.36668 8.19818 7.36668 7.57895C7.36668 6.95972 7.87498 6.45614 8.50001 6.45614C9.12504 6.45614 9.63334 6.95972 9.63334 7.57895C9.63334 8.19818 9.12504 8.70175 8.50001 8.70175ZM12.4667 8.70175C11.8416 8.70175 11.3333 8.19818 11.3333 7.57895C11.3333 6.95972 11.8416 6.45614 12.4667 6.45614C13.0917 6.45614 13.6 6.95972 13.6 7.57895C13.6 8.19818 13.0917 8.70175 12.4667 8.70175Z" fill="#636363"/>
</svg>
