<svg width="25" height="37" viewBox="0 0 25 37" fill="none" xmlns="http://www.w3.org/2000/svg">
<path d="M12.3949 17.6539C11.2286 17.6539 10.1101 17.1906 9.28543 16.366C8.46075 15.5413 7.99745 14.4228 7.99745 13.2565C7.99745 12.0902 8.46075 10.9717 9.28543 10.147C10.1101 9.32233 11.2286 8.85902 12.3949 8.85902C13.5612 8.85902 14.6797 9.32233 15.5044 10.147C16.329 10.9717 16.7924 12.0902 16.7924 13.2565C16.7924 13.834 16.6786 14.4058 16.4576 14.9393C16.2366 15.4728 15.9127 15.9576 15.5044 16.366C15.096 16.7743 14.6113 17.0982 14.0777 17.3192C13.5442 17.5402 12.9724 17.6539 12.3949 17.6539ZM12.3949 0.943604C9.12932 0.943604 5.9975 2.24085 3.68839 4.54996C1.37928 6.85907 0.0820313 9.9909 0.0820312 13.2565C0.0820313 22.4911 12.3949 36.1232 12.3949 36.1232C12.3949 36.1232 24.7078 22.4911 24.7078 13.2565C24.7078 9.9909 23.4105 6.85907 21.1014 4.54996C18.7923 2.24085 15.6605 0.943604 12.3949 0.943604Z" fill="#124342"/>
</svg>
