<svg width="16" height="16" viewBox="0 0 16 16" fill="none" xmlns="http://www.w3.org/2000/svg">
<g opacity="0.3">
<path d="M0.473673 8.9707C0.212068 8.9707 0 8.75877 0 8.49739V1.54558C0 1.28417 0.212099 1.07227 0.473673 1.07227H3.3275V8.9707H0.473673Z" fill="#636363"/>
<path d="M16.0005 6.35666C16.0005 6.9575 15.6774 7.48437 15.1958 7.77294C15.3803 8.03922 15.4885 8.36225 15.4885 8.70997C15.4885 9.61975 14.7478 10.3599 13.8373 10.3599H10.3516C10.4584 10.8437 10.6046 11.5696 10.7063 12.3295C10.971 14.307 10.7901 15.4037 10.1369 15.7809C9.72963 16.016 9.29055 16.0637 8.9005 15.9153C8.59918 15.8006 8.19225 15.5187 7.96035 14.8266L7.04422 12.4297C6.57977 11.2836 5.15747 10.0803 4.27539 9.41494V0.8625C5.9102 0.290125 7.61612 0 9.35651 0H13.1546C14.0651 0 14.8058 0.740188 14.8058 1.64997C14.8058 1.96856 14.715 2.26637 14.5578 2.51884C15.1083 2.78672 15.4885 3.35153 15.4885 4.00331C15.4885 4.35106 15.3802 4.67403 15.1957 4.94034C15.6774 5.22891 16.0005 5.75581 16.0005 6.35666Z" fill="#636363"/>
</g>
</svg>
