<svg width="88" height="127" viewBox="0 0 88 127" fill="none" xmlns="http://www.w3.org/2000/svg">
<circle cx="3" cy="3" r="3" transform="matrix(1 0 0 -1 0 126.863)" fill="white"/>
<circle cx="3" cy="3" r="3" transform="matrix(1 0 0 -1 54.5834 126.863)" fill="white"/>
<circle cx="3" cy="3" r="3" transform="matrix(1 0 0 -1 27.2916 126.863)" fill="white"/>
<circle cx="3" cy="3" r="3" transform="matrix(1 0 0 -1 81.875 126.863)" fill="white"/>
<circle cx="3" cy="3" r="3" transform="matrix(1 0 0 -1 0 102.69)" fill="white"/>
<circle cx="3" cy="3" r="3" transform="matrix(1 0 0 -1 54.5834 102.69)" fill="white"/>
<circle cx="3" cy="3" r="3" transform="matrix(1 0 0 -1 27.2916 102.69)" fill="white"/>
<circle cx="3" cy="3" r="3" transform="matrix(1 0 0 -1 81.875 102.69)" fill="white"/>
<circle cx="3" cy="3" r="3" transform="matrix(1 0 0 -1 0 78.5186)" fill="white"/>
<circle cx="3" cy="3" r="3" transform="matrix(1 0 0 -1 54.5834 78.5186)" fill="white"/>
<circle cx="3" cy="3" r="3" transform="matrix(1 0 0 -1 27.2916 78.5186)" fill="white"/>
<circle cx="3" cy="3" r="3" transform="matrix(1 0 0 -1 81.875 78.5186)" fill="white"/>
<circle cx="3" cy="3" r="3" transform="matrix(1 0 0 -1 0 54.3452)" fill="white"/>
<circle cx="3" cy="3" r="3" transform="matrix(1 0 0 -1 54.5834 54.3452)" fill="white"/>
<circle cx="3" cy="3" r="3" transform="matrix(1 0 0 -1 27.2916 54.3452)" fill="white"/>
<circle cx="3" cy="3" r="3" transform="matrix(1 0 0 -1 81.875 54.3452)" fill="white"/>
<circle cx="3" cy="3" r="3" transform="matrix(1 0 0 -1 0 30.1729)" fill="white"/>
<circle cx="3" cy="3" r="3" transform="matrix(1 0 0 -1 54.5834 30.1729)" fill="white"/>
<circle cx="3" cy="3" r="3" transform="matrix(1 0 0 -1 27.2916 30.1729)" fill="white"/>
<circle cx="3" cy="3" r="3" transform="matrix(1 0 0 -1 81.875 30.1729)" fill="white"/>
<circle cx="3" cy="3" r="3" transform="matrix(1 0 0 -1 0 6)" fill="white"/>
<circle cx="3" cy="3" r="3" transform="matrix(1 0 0 -1 54.5834 6)" fill="white"/>
<circle cx="3" cy="3" r="3" transform="matrix(1 0 0 -1 27.2916 6)" fill="white"/>
<circle cx="3" cy="3" r="3" transform="matrix(1 0 0 -1 81.875 6)" fill="white"/>
</svg>
