<svg width="452" height="397" viewBox="0 0 452 397" fill="none" xmlns="http://www.w3.org/2000/svg">
<rect opacity="0.07" width="452" height="397" rx="20" fill="#124342"/>
<g opacity="0.5">
<circle cx="251.5" cy="163.75" r="3.5" transform="rotate(-90 251.5 163.75)" fill="#124342"/>
<circle cx="251.5" cy="89.5831" r="3.5" transform="rotate(-90 251.5 89.5831)" fill="#124342"/>
<circle cx="251.5" cy="126.667" r="3.5" transform="rotate(-90 251.5 126.667)" fill="#124342"/>
<circle cx="251.5" cy="52.5" r="3.5" transform="rotate(-90 251.5 52.5)" fill="#124342"/>
<circle cx="284.345" cy="163.75" r="3.5" transform="rotate(-90 284.345 163.75)" fill="#124342"/>
<circle cx="284.345" cy="89.5831" r="3.5" transform="rotate(-90 284.345 89.5831)" fill="#124342"/>
<circle cx="284.345" cy="126.667" r="3.5" transform="rotate(-90 284.345 126.667)" fill="#124342"/>
<circle cx="284.345" cy="52.5" r="3.5" transform="rotate(-90 284.345 52.5)" fill="#124342"/>
<circle cx="317.189" cy="163.75" r="3.5" transform="rotate(-90 317.189 163.75)" fill="#124342"/>
<circle cx="317.189" cy="89.5831" r="3.5" transform="rotate(-90 317.189 89.5831)" fill="#124342"/>
<circle cx="317.189" cy="126.667" r="3.5" transform="rotate(-90 317.189 126.667)" fill="#124342"/>
<circle cx="317.189" cy="52.5" r="3.5" transform="rotate(-90 317.189 52.5)" fill="#124342"/>
<circle cx="350.036" cy="163.75" r="3.5" transform="rotate(-90 350.036 163.75)" fill="#124342"/>
<circle cx="350.036" cy="89.5831" r="3.5" transform="rotate(-90 350.036 89.5831)" fill="#124342"/>
<circle cx="350.036" cy="126.667" r="3.5" transform="rotate(-90 350.036 126.667)" fill="#124342"/>
<circle cx="350.036" cy="52.5" r="3.5" transform="rotate(-90 350.036 52.5)" fill="#124342"/>
<circle cx="382.881" cy="163.75" r="3.5" transform="rotate(-90 382.881 163.75)" fill="#124342"/>
<circle cx="382.881" cy="89.5831" r="3.5" transform="rotate(-90 382.881 89.5831)" fill="#124342"/>
<circle cx="382.881" cy="126.667" r="3.5" transform="rotate(-90 382.881 126.667)" fill="#124342"/>
<circle cx="382.881" cy="52.5" r="3.5" transform="rotate(-90 382.881 52.5)" fill="#124342"/>
<circle cx="415.726" cy="163.75" r="3.5" transform="rotate(-90 415.726 163.75)" fill="#124342"/>
<circle cx="415.726" cy="89.5831" r="3.5" transform="rotate(-90 415.726 89.5831)" fill="#124342"/>
<circle cx="415.726" cy="126.667" r="3.5" transform="rotate(-90 415.726 126.667)" fill="#124342"/>
<circle cx="415.726" cy="52.5" r="3.5" transform="rotate(-90 415.726 52.5)" fill="#124342"/>
</g>
</svg>
