<svg width="222" height="60" viewBox="0 0 222 60" fill="none" xmlns="http://www.w3.org/2000/svg">
<rect width="222" height="60" rx="8" fill="#0376E7"/>
<path d="M60.1087 27.2727C60.0405 26.697 59.764 26.25 59.2791 25.9318C58.7943 25.6136 58.1996 25.4545 57.495 25.4545C56.9799 25.4545 56.5291 25.5379 56.1428 25.7045C55.7602 25.8712 55.4609 26.1004 55.245 26.392C55.0329 26.6837 54.9268 27.0152 54.9268 27.3864C54.9268 27.697 55.0007 27.964 55.1484 28.1875C55.3 28.4072 55.4931 28.5909 55.728 28.7386C55.9628 28.8826 56.209 29.0019 56.4666 29.0966C56.7242 29.1875 56.9609 29.2614 57.1768 29.3182L58.3587 29.6364C58.6617 29.7159 58.9988 29.8258 59.37 29.9659C59.745 30.1061 60.103 30.2973 60.4439 30.5398C60.7886 30.7784 61.0727 31.0852 61.2962 31.4602C61.5197 31.8352 61.6314 32.2955 61.6314 32.8409C61.6314 33.4697 61.4666 34.0379 61.1371 34.5455C60.8113 35.053 60.334 35.4564 59.7053 35.7557C59.0803 36.0549 58.3208 36.2045 57.4268 36.2045C56.5935 36.2045 55.8719 36.0701 55.2621 35.8011C54.656 35.5322 54.1787 35.1572 53.8303 34.6761C53.4856 34.1951 53.2905 33.6364 53.245 33H54.6996C54.7375 33.4394 54.8852 33.803 55.1428 34.0909C55.4041 34.375 55.7337 34.5871 56.1314 34.7273C56.5329 34.8636 56.9647 34.9318 57.4268 34.9318C57.9647 34.9318 58.4477 34.8447 58.8757 34.6705C59.3037 34.4924 59.6428 34.2462 59.8928 33.9318C60.1428 33.6136 60.2678 33.2424 60.2678 32.8182C60.2678 32.4318 60.1598 32.1174 59.9439 31.875C59.728 31.6326 59.4439 31.4356 59.0916 31.2841C58.7393 31.1326 58.3587 31 57.9496 30.8864L56.5178 30.4773C55.6087 30.2159 54.889 29.8428 54.3587 29.358C53.8284 28.8731 53.5632 28.2386 53.5632 27.4545C53.5632 26.803 53.7393 26.2348 54.0916 25.75C54.4477 25.2614 54.925 24.8826 55.5234 24.6136C56.1257 24.3409 56.7981 24.2045 57.5405 24.2045C58.2905 24.2045 58.9571 24.339 59.5405 24.608C60.1238 24.8731 60.5859 25.2367 60.9268 25.6989C61.2715 26.161 61.4534 26.6856 61.4723 27.2727H60.1087ZM65.1072 30.75V36H63.7663V24.3636H65.1072V28.6364H65.2209C65.4254 28.1856 65.7322 27.8277 66.1413 27.5625C66.5542 27.2936 67.1035 27.1591 67.7891 27.1591C68.3838 27.1591 68.9046 27.2784 69.3516 27.517C69.7985 27.7519 70.1451 28.1136 70.3913 28.6023C70.6413 29.0871 70.7663 29.7045 70.7663 30.4545V36H69.4254V30.5455C69.4254 29.8523 69.2455 29.3163 68.8857 28.9375C68.5296 28.5549 68.0353 28.3636 67.4027 28.3636C66.9633 28.3636 66.5694 28.4564 66.2209 28.642C65.8762 28.8277 65.6035 29.0985 65.4027 29.4545C65.2057 29.8106 65.1072 30.2424 65.1072 30.75ZM75.7876 36.2045C75.2346 36.2045 74.7327 36.1004 74.282 35.892C73.8312 35.6799 73.4732 35.375 73.2081 34.9773C72.9429 34.5758 72.8104 34.0909 72.8104 33.5227C72.8104 33.0227 72.9089 32.6174 73.1058 32.3068C73.3028 31.9924 73.5661 31.7462 73.8956 31.5682C74.2251 31.3902 74.5888 31.2576 74.9865 31.1705C75.388 31.0795 75.7914 31.0076 76.1967 30.9545C76.727 30.8864 77.157 30.8352 77.4865 30.8011C77.8198 30.7633 78.0623 30.7008 78.2138 30.6136C78.3691 30.5265 78.4467 30.375 78.4467 30.1591V30.1136C78.4467 29.553 78.2933 29.1174 77.9865 28.8068C77.6835 28.4962 77.2232 28.3409 76.6058 28.3409C75.9657 28.3409 75.4638 28.4811 75.1001 28.7614C74.7365 29.0417 74.4808 29.3409 74.3331 29.6591L73.0604 29.2045C73.2876 28.6742 73.5907 28.2614 73.9695 27.9659C74.352 27.6667 74.7687 27.4583 75.2195 27.3409C75.674 27.2197 76.121 27.1591 76.5604 27.1591C76.8407 27.1591 77.1626 27.1932 77.5263 27.2614C77.8937 27.3258 78.2479 27.4602 78.5888 27.6648C78.9335 27.8693 79.2195 28.178 79.4467 28.5909C79.674 29.0038 79.7876 29.5568 79.7876 30.25V36H78.4467V34.8182H78.3786C78.2876 35.0076 78.1361 35.2102 77.924 35.4261C77.7119 35.642 77.4297 35.8258 77.0774 35.9773C76.7251 36.1288 76.2952 36.2045 75.7876 36.2045ZM75.9922 35C76.5225 35 76.9695 34.8958 77.3331 34.6875C77.7005 34.4792 77.977 34.2102 78.1626 33.8807C78.352 33.5511 78.4467 33.2045 78.4467 32.8409V31.6136C78.3899 31.6818 78.2649 31.7443 78.0717 31.8011C77.8823 31.8542 77.6626 31.9015 77.4126 31.9432C77.1664 31.9811 76.9259 32.0152 76.6911 32.0455C76.46 32.072 76.2725 32.0947 76.1286 32.1136C75.7801 32.1591 75.4543 32.233 75.1513 32.3352C74.852 32.4337 74.6096 32.5833 74.424 32.7841C74.2422 32.9811 74.1513 33.25 74.1513 33.5909C74.1513 34.0568 74.3236 34.4091 74.6683 34.6477C75.0168 34.8826 75.4581 35 75.9922 35ZM82.2351 36V27.2727H83.5305V28.5909H83.6214C83.7805 28.1591 84.0684 27.8087 84.4851 27.5398C84.9018 27.2708 85.3714 27.1364 85.8942 27.1364C85.9927 27.1364 86.1158 27.1383 86.2635 27.142C86.4112 27.1458 86.523 27.1515 86.5987 27.1591V28.5227C86.5533 28.5114 86.4491 28.4943 86.2862 28.4716C86.1271 28.4451 85.9586 28.4318 85.7805 28.4318C85.3563 28.4318 84.9775 28.5208 84.6442 28.6989C84.3146 28.8731 84.0533 29.1155 83.8601 29.4261C83.6707 29.733 83.576 30.0833 83.576 30.4773V36H82.2351ZM91.5817 36.1818C90.7408 36.1818 90.0154 35.9962 89.4055 35.625C88.7995 35.25 88.3317 34.7273 88.0021 34.0568C87.6764 33.3826 87.5135 32.5985 87.5135 31.7045C87.5135 30.8106 87.6764 30.0227 88.0021 29.3409C88.3317 28.6553 88.79 28.1212 89.3771 27.7386C89.968 27.3523 90.6574 27.1591 91.4453 27.1591C91.8999 27.1591 92.3487 27.2348 92.7919 27.3864C93.2351 27.5379 93.6385 27.7841 94.0021 28.125C94.3658 28.4621 94.6555 28.9091 94.8714 29.4659C95.0874 30.0227 95.1953 30.7083 95.1953 31.5227V32.0909H88.468V30.9318H93.8317C93.8317 30.4394 93.7332 30 93.5362 29.6136C93.343 29.2273 93.0665 28.9223 92.7067 28.6989C92.3506 28.4754 91.9302 28.3636 91.4453 28.3636C90.9112 28.3636 90.4491 28.4962 90.0589 28.7614C89.6726 29.0227 89.3752 29.3636 89.1669 29.7841C88.9586 30.2045 88.8544 30.6553 88.8544 31.1364V31.9091C88.8544 32.5682 88.968 33.1269 89.1953 33.5852C89.4264 34.0398 89.7464 34.3864 90.1555 34.625C90.5646 34.8598 91.04 34.9773 91.5817 34.9773C91.9339 34.9773 92.2521 34.928 92.5362 34.8295C92.8241 34.7273 93.0722 34.5758 93.2805 34.375C93.4889 34.1705 93.6499 33.9167 93.7635 33.6136L95.0589 33.9773C94.9226 34.4167 94.6934 34.803 94.3714 35.1364C94.0495 35.4659 93.6518 35.7235 93.1783 35.9091C92.7048 36.0909 92.1726 36.1818 91.5817 36.1818ZM105.531 27.2727V28.4091H101.008V27.2727H105.531ZM102.326 25.1818H103.667V33.5C103.667 33.8788 103.722 34.1629 103.832 34.3523C103.945 34.5379 104.089 34.6629 104.263 34.7273C104.442 34.7879 104.629 34.8182 104.826 34.8182C104.974 34.8182 105.095 34.8106 105.19 34.7955C105.284 34.7765 105.36 34.7614 105.417 34.75L105.69 35.9545C105.599 35.9886 105.472 36.0227 105.309 36.0568C105.146 36.0947 104.94 36.1136 104.69 36.1136C104.311 36.1136 103.94 36.0322 103.576 35.8693C103.216 35.7064 102.917 35.4583 102.678 35.125C102.443 34.7917 102.326 34.3712 102.326 33.8636V25.1818ZM110.999 36.1818C110.211 36.1818 109.52 35.9943 108.925 35.6193C108.335 35.2443 107.872 34.7197 107.539 34.0455C107.21 33.3712 107.045 32.5833 107.045 31.6818C107.045 30.7727 107.21 29.9792 107.539 29.3011C107.872 28.6231 108.335 28.0966 108.925 27.7216C109.52 27.3466 110.211 27.1591 110.999 27.1591C111.787 27.1591 112.477 27.3466 113.067 27.7216C113.662 28.0966 114.124 28.6231 114.454 29.3011C114.787 29.9792 114.954 30.7727 114.954 31.6818C114.954 32.5833 114.787 33.3712 114.454 34.0455C114.124 34.7197 113.662 35.2443 113.067 35.6193C112.477 35.9943 111.787 36.1818 110.999 36.1818ZM110.999 34.9773C111.598 34.9773 112.09 34.8239 112.477 34.517C112.863 34.2102 113.149 33.8068 113.335 33.3068C113.52 32.8068 113.613 32.2652 113.613 31.6818C113.613 31.0985 113.52 30.5549 113.335 30.0511C113.149 29.5473 112.863 29.1402 112.477 28.8295C112.09 28.5189 111.598 28.3636 110.999 28.3636C110.401 28.3636 109.908 28.5189 109.522 28.8295C109.136 29.1402 108.85 29.5473 108.664 30.0511C108.478 30.5549 108.386 31.0985 108.386 31.6818C108.386 32.2652 108.478 32.8068 108.664 33.3068C108.85 33.8068 109.136 34.2102 109.522 34.517C109.908 34.8239 110.401 34.9773 110.999 34.9773ZM121.683 36V24.3636H128.66V25.6136H123.092V29.5455H128.137V30.7955H123.092V36H121.683ZM133.46 36.2045C132.906 36.2045 132.405 36.1004 131.954 35.892C131.503 35.6799 131.145 35.375 130.88 34.9773C130.615 34.5758 130.482 34.0909 130.482 33.5227C130.482 33.0227 130.581 32.6174 130.778 32.3068C130.975 31.9924 131.238 31.7462 131.567 31.5682C131.897 31.3902 132.261 31.2576 132.658 31.1705C133.06 31.0795 133.463 31.0076 133.869 30.9545C134.399 30.8864 134.829 30.8352 135.158 30.8011C135.492 30.7633 135.734 30.7008 135.886 30.6136C136.041 30.5265 136.119 30.375 136.119 30.1591V30.1136C136.119 29.553 135.965 29.1174 135.658 28.8068C135.355 28.4962 134.895 28.3409 134.278 28.3409C133.638 28.3409 133.136 28.4811 132.772 28.7614C132.408 29.0417 132.153 29.3409 132.005 29.6591L130.732 29.2045C130.96 28.6742 131.263 28.2614 131.641 27.9659C132.024 27.6667 132.441 27.4583 132.891 27.3409C133.346 27.2197 133.793 27.1591 134.232 27.1591C134.513 27.1591 134.835 27.1932 135.198 27.2614C135.566 27.3258 135.92 27.4602 136.261 27.6648C136.605 27.8693 136.891 28.178 137.119 28.5909C137.346 29.0038 137.46 29.5568 137.46 30.25V36H136.119V34.8182H136.05C135.96 35.0076 135.808 35.2102 135.596 35.4261C135.384 35.642 135.102 35.8258 134.749 35.9773C134.397 36.1288 133.967 36.2045 133.46 36.2045ZM133.664 35C134.194 35 134.641 34.8958 135.005 34.6875C135.372 34.4792 135.649 34.2102 135.835 33.8807C136.024 33.5511 136.119 33.2045 136.119 32.8409V31.6136C136.062 31.6818 135.937 31.7443 135.744 31.8011C135.554 31.8542 135.335 31.9015 135.085 31.9432C134.838 31.9811 134.598 32.0152 134.363 32.0455C134.132 32.072 133.944 32.0947 133.8 32.1136C133.452 32.1591 133.126 32.233 132.823 32.3352C132.524 32.4337 132.281 32.5833 132.096 32.7841C131.914 32.9811 131.823 33.25 131.823 33.5909C131.823 34.0568 131.996 34.4091 132.34 34.6477C132.689 34.8826 133.13 35 133.664 35ZM143.452 36.1818C142.634 36.1818 141.93 35.9886 141.339 35.6023C140.748 35.2159 140.293 34.6837 139.975 34.0057C139.657 33.3277 139.498 32.553 139.498 31.6818C139.498 30.7955 139.661 30.0133 139.987 29.3352C140.316 28.6534 140.774 28.1212 141.362 27.7386C141.952 27.3523 142.642 27.1591 143.43 27.1591C144.043 27.1591 144.596 27.2727 145.089 27.5C145.581 27.7273 145.985 28.0455 146.299 28.4545C146.613 28.8636 146.808 29.3409 146.884 29.8864H145.543C145.441 29.4886 145.214 29.1364 144.862 28.8295C144.513 28.5189 144.043 28.3636 143.452 28.3636C142.93 28.3636 142.471 28.5 142.077 28.7727C141.687 29.0417 141.382 29.4223 141.163 29.9148C140.947 30.4034 140.839 30.9773 140.839 31.6364C140.839 32.3106 140.945 32.8977 141.157 33.3977C141.373 33.8977 141.676 34.286 142.066 34.5625C142.46 34.839 142.922 34.9773 143.452 34.9773C143.801 34.9773 144.117 34.9167 144.401 34.7955C144.685 34.6742 144.926 34.5 145.123 34.2727C145.32 34.0455 145.46 33.7727 145.543 33.4545H146.884C146.808 33.9697 146.621 34.4337 146.322 34.8466C146.026 35.2557 145.634 35.5814 145.146 35.8239C144.661 36.0625 144.096 36.1818 143.452 36.1818ZM152.504 36.1818C151.663 36.1818 150.937 35.9962 150.327 35.625C149.721 35.25 149.254 34.7273 148.924 34.0568C148.598 33.3826 148.435 32.5985 148.435 31.7045C148.435 30.8106 148.598 30.0227 148.924 29.3409C149.254 28.6553 149.712 28.1212 150.299 27.7386C150.89 27.3523 151.579 27.1591 152.367 27.1591C152.822 27.1591 153.271 27.2348 153.714 27.3864C154.157 27.5379 154.56 27.7841 154.924 28.125C155.288 28.4621 155.577 28.9091 155.793 29.4659C156.009 30.0227 156.117 30.7083 156.117 31.5227V32.0909H149.39V30.9318H154.754C154.754 30.4394 154.655 30 154.458 29.6136C154.265 29.2273 153.988 28.9223 153.629 28.6989C153.272 28.4754 152.852 28.3636 152.367 28.3636C151.833 28.3636 151.371 28.4962 150.981 28.7614C150.594 29.0227 150.297 29.3636 150.089 29.7841C149.88 30.2045 149.776 30.6553 149.776 31.1364V31.9091C149.776 32.5682 149.89 33.1269 150.117 33.5852C150.348 34.0398 150.668 34.3864 151.077 34.625C151.487 34.8598 151.962 34.9773 152.504 34.9773C152.856 34.9773 153.174 34.928 153.458 34.8295C153.746 34.7273 153.994 34.5758 154.202 34.375C154.411 34.1705 154.572 33.9167 154.685 33.6136L155.981 33.9773C155.844 34.4167 155.615 34.803 155.293 35.1364C154.971 35.4659 154.574 35.7235 154.1 35.9091C153.627 36.0909 153.094 36.1818 152.504 36.1818ZM158.339 36V24.3636H159.68V28.6591H159.793C159.892 28.5076 160.028 28.3144 160.202 28.0795C160.38 27.8409 160.634 27.6288 160.964 27.4432C161.297 27.2538 161.748 27.1591 162.316 27.1591C163.051 27.1591 163.699 27.3428 164.259 27.7102C164.82 28.0777 165.257 28.5985 165.572 29.2727C165.886 29.947 166.043 30.7424 166.043 31.6591C166.043 32.5833 165.886 33.3845 165.572 34.0625C165.257 34.7367 164.822 35.2595 164.265 35.6307C163.708 35.9981 163.066 36.1818 162.339 36.1818C161.778 36.1818 161.329 36.089 160.992 35.9034C160.655 35.714 160.396 35.5 160.214 35.2614C160.032 35.0189 159.892 34.8182 159.793 34.6591H159.634V36H158.339ZM159.657 31.6364C159.657 32.2955 159.754 32.8769 159.947 33.3807C160.14 33.8807 160.422 34.2727 160.793 34.5568C161.165 34.8371 161.619 34.9773 162.157 34.9773C162.718 34.9773 163.185 34.8295 163.56 34.5341C163.939 34.2348 164.223 33.8333 164.413 33.3295C164.606 32.822 164.702 32.2576 164.702 31.6364C164.702 31.0227 164.608 30.4697 164.418 29.9773C164.233 29.4811 163.951 29.089 163.572 28.8011C163.197 28.5095 162.725 28.3636 162.157 28.3636C161.612 28.3636 161.153 28.5019 160.782 28.7784C160.411 29.0511 160.13 29.4337 159.941 29.9261C159.752 30.4148 159.657 30.9848 159.657 31.6364ZM171.64 36.1818C170.852 36.1818 170.161 35.9943 169.566 35.6193C168.975 35.2443 168.513 34.7197 168.18 34.0455C167.85 33.3712 167.685 32.5833 167.685 31.6818C167.685 30.7727 167.85 29.9792 168.18 29.3011C168.513 28.6231 168.975 28.0966 169.566 27.7216C170.161 27.3466 170.852 27.1591 171.64 27.1591C172.428 27.1591 173.117 27.3466 173.708 27.7216C174.303 28.0966 174.765 28.6231 175.094 29.3011C175.428 29.9792 175.594 30.7727 175.594 31.6818C175.594 32.5833 175.428 33.3712 175.094 34.0455C174.765 34.7197 174.303 35.2443 173.708 35.6193C173.117 35.9943 172.428 36.1818 171.64 36.1818ZM171.64 34.9773C172.238 34.9773 172.731 34.8239 173.117 34.517C173.504 34.2102 173.79 33.8068 173.975 33.3068C174.161 32.8068 174.254 32.2652 174.254 31.6818C174.254 31.0985 174.161 30.5549 173.975 30.0511C173.79 29.5473 173.504 29.1402 173.117 28.8295C172.731 28.5189 172.238 28.3636 171.64 28.3636C171.041 28.3636 170.549 28.5189 170.163 28.8295C169.776 29.1402 169.49 29.5473 169.305 30.0511C169.119 30.5549 169.026 31.0985 169.026 31.6818C169.026 32.2652 169.119 32.8068 169.305 33.3068C169.49 33.8068 169.776 34.2102 170.163 34.517C170.549 34.8239 171.041 34.9773 171.64 34.9773ZM181.187 36.1818C180.399 36.1818 179.708 35.9943 179.113 35.6193C178.522 35.2443 178.06 34.7197 177.727 34.0455C177.397 33.3712 177.232 32.5833 177.232 31.6818C177.232 30.7727 177.397 29.9792 177.727 29.3011C178.06 28.6231 178.522 28.0966 179.113 27.7216C179.708 27.3466 180.399 27.1591 181.187 27.1591C181.975 27.1591 182.664 27.3466 183.255 27.7216C183.85 28.0966 184.312 28.6231 184.641 29.3011C184.975 29.9792 185.141 30.7727 185.141 31.6818C185.141 32.5833 184.975 33.3712 184.641 34.0455C184.312 34.7197 183.85 35.2443 183.255 35.6193C182.664 35.9943 181.975 36.1818 181.187 36.1818ZM181.187 34.9773C181.785 34.9773 182.278 34.8239 182.664 34.517C183.05 34.2102 183.336 33.8068 183.522 33.3068C183.708 32.8068 183.8 32.2652 183.8 31.6818C183.8 31.0985 183.708 30.5549 183.522 30.0511C183.336 29.5473 183.05 29.1402 182.664 28.8295C182.278 28.5189 181.785 28.3636 181.187 28.3636C180.588 28.3636 180.096 28.5189 179.71 28.8295C179.323 29.1402 179.037 29.5473 178.852 30.0511C178.666 30.5549 178.573 31.0985 178.573 31.6818C178.573 32.2652 178.666 32.8068 178.852 33.3068C179.037 33.8068 179.323 34.2102 179.71 34.517C180.096 34.8239 180.588 34.9773 181.187 34.9773ZM188.438 32.8182L188.415 31.1591H188.688L192.506 27.2727H194.165L190.097 31.3864H189.984L188.438 32.8182ZM187.188 36V24.3636H188.529V36H187.188ZM192.734 36L189.325 31.6818L190.279 30.75L194.438 36H192.734Z" fill="white"/>
<path d="M34.0389 20C28.5035 20 24 24.486 24 30C24 35.5136 28.5035 40 34.0389 40C39.5739 40 44.0777 35.5136 44.0777 30C44.0777 24.486 39.5747 20 34.0389 20ZM36.5354 30.3521H34.9022V36.1508H32.482C32.482 36.1508 32.482 32.9824 32.482 30.3521H31.3316V28.3026H32.482V26.977C32.482 26.0276 32.9349 24.544 34.9244 24.544L36.7178 24.5509V26.5403C36.7178 26.5403 35.628 26.5403 35.4161 26.5403C35.2043 26.5403 34.903 26.6459 34.903 27.0986V28.303H36.7469L36.5354 30.3521Z" fill="white"/>
</svg>
