<svg width="24" height="24" viewBox="0 0 24 24" fill="none" xmlns="http://www.w3.org/2000/svg">
<circle cx="12" cy="12" r="12" fill="#EDFBF4"/>
<path d="M15.75 7H8.25C7.91848 7 7.60054 7.12417 7.36612 7.3452C7.1317 7.56622 7 7.86599 7 8.17857V16.8214C7 17.134 7.1317 17.4338 7.36612 17.6548C7.60054 17.8758 7.91848 18 8.25 18H15.75C16.0815 18 16.3995 17.8758 16.6339 17.6548C16.8683 17.4338 17 17.134 17 16.8214V8.17857C17 7.86599 16.8683 7.56622 16.6339 7.3452C16.3995 7.12417 16.0815 7 15.75 7ZM14.0833 8.17857C14.1657 8.17857 14.2463 8.20161 14.3148 8.24478C14.3833 8.28795 14.4367 8.3493 14.4683 8.42109C14.4998 8.49287 14.5081 8.57186 14.492 8.64807C14.4759 8.72428 14.4362 8.79428 14.378 8.84922C14.3197 8.90416 14.2454 8.94158 14.1646 8.95674C14.0838 8.9719 14 8.96412 13.9239 8.93438C13.8477 8.90465 13.7827 8.85429 13.7369 8.78969C13.6911 8.72508 13.6667 8.64913 13.6667 8.57143C13.6667 8.46724 13.7106 8.36731 13.7887 8.29364C13.8668 8.21996 13.9728 8.17857 14.0833 8.17857ZM8.25 8.57143C8.25 8.46724 8.2939 8.36731 8.37204 8.29364C8.45018 8.21996 8.55616 8.17857 8.66667 8.17857H9.91667C10.0272 8.17857 10.1332 8.21996 10.2113 8.29364C10.2894 8.36731 10.3333 8.46724 10.3333 8.57143C10.3333 8.67562 10.2894 8.77555 10.2113 8.84922C10.1332 8.9229 10.0272 8.96429 9.91667 8.96429H8.66667C8.55616 8.96429 8.45018 8.9229 8.37204 8.84922C8.2939 8.77555 8.25 8.67562 8.25 8.57143ZM12 16.8214C11.3407 16.8214 10.6963 16.6371 10.1481 16.2918C9.59994 15.9464 9.17269 15.4556 8.9204 14.8813C8.66811 14.307 8.6021 13.6751 8.73072 13.0654C8.85933 12.4558 9.1768 11.8958 9.64298 11.4562C10.1092 11.0167 10.7031 10.7174 11.3497 10.5961C11.9963 10.4748 12.6665 10.5371 13.2756 10.775C13.8847 11.0128 14.4053 11.4157 14.7716 11.9325C15.1378 12.4493 15.3333 13.057 15.3333 13.6786C15.3323 14.5118 14.9808 15.3107 14.3559 15.8999C13.731 16.4891 12.8837 16.8205 12 16.8214ZM15.3333 8.96429C15.2509 8.96429 15.1704 8.94124 15.1018 8.89808C15.0333 8.85491 14.9799 8.79355 14.9484 8.72177C14.9168 8.64998 14.9086 8.57099 14.9247 8.49479C14.9407 8.41858 14.9804 8.34858 15.0387 8.29364C15.097 8.23869 15.1712 8.20128 15.252 8.18612C15.3329 8.17096 15.4166 8.17874 15.4928 8.20848C15.5689 8.23821 15.634 8.28856 15.6798 8.35317C15.7256 8.41777 15.75 8.49373 15.75 8.57143C15.75 8.67562 15.7061 8.77555 15.628 8.84922C15.5498 8.9229 15.4438 8.96429 15.3333 8.96429Z" fill="#124342"/>
<path d="M12.0125 13.6782C11.6226 13.4931 11.1919 13.3972 10.7554 13.3984C10.3188 13.3997 9.88872 13.4979 9.5 13.6853C9.50039 14.3104 9.76415 14.9098 10.2333 15.3516C10.4655 15.5704 10.7413 15.7438 11.0446 15.8621C11.348 15.9804 11.6732 16.0412 12.0015 16.041C12.3298 16.0408 12.6548 15.9797 12.9581 15.8611C13.2613 15.7424 13.5368 15.5687 13.7688 15.3497C14.0008 15.1307 14.1848 14.8707 14.3103 14.5846C14.4357 14.2986 14.5002 13.992 14.5 13.6825C14.1136 13.8644 13.6876 13.9587 13.2557 13.958C12.8239 13.9572 12.3982 13.8614 12.0125 13.6782Z" fill="#124342"/>
</svg>
