<svg width="24" height="24" viewBox="0 0 24 24" fill="none" xmlns="http://www.w3.org/2000/svg">
<circle cx="12" cy="12" r="12" fill="#EDFBF4"/>
<path d="M14.5798 15.9112C14.8505 11.9344 16.4941 8.79262 16.4941 8.79262C13.2399 10.4697 12.6465 14.5876 12.5414 16.268C12.6931 10.2934 14.6468 6 14.6468 6C10.8143 8.99019 10.5085 14.8457 10.503 16.534C10.4439 15.0721 9.979 10.5667 6.53654 8.79262C6.53654 8.79262 8.29758 12.1587 8.47415 16.3329C8.37627 15.2097 7.81818 12.9869 5 12.2035C5 12.2035 6.46316 13.8023 6.46316 17H16.5368C16.5368 13.8023 18 12.2035 18 12.2035C15.5019 12.8979 14.7798 14.7232 14.5798 15.9112Z" fill="#124342"/>
</svg>
