<svg width="122" height="122" viewBox="0 0 122 122" fill="none" xmlns="http://www.w3.org/2000/svg">
<rect x="1.11101" y="1.12012" width="119.831" height="119.831" rx="40.5" fill="#012322" fill-opacity="0.97" stroke="black"/>
<rect x="36.029" y="36.0391" width="31.67" height="31.67" rx="8" fill="url(#paint0_linear_3_1039)"/>
<path d="M37.6972 54.0374V49.3712C37.6972 42.3718 42.3634 37.7056 49.3628 37.7056H72.694C79.6934 37.7056 84.3596 42.3718 84.3596 49.3712V54.0374" stroke="#E6C058" stroke-width="2.2" stroke-miterlimit="10" stroke-linecap="round" stroke-linejoin="round"/>
<path d="M37.6972 68.0356V72.7019C37.6972 79.7012 42.3634 84.3675 49.3628 84.3675H72.694C79.6934 84.3675 84.3596 79.7012 84.3596 72.7019V68.0356" stroke="#E6C058" stroke-width="2.2" stroke-miterlimit="10" stroke-linecap="round" stroke-linejoin="round"/>
<path d="M61.0289 60.2434C64.0313 60.2434 66.4651 57.8095 66.4651 54.8072C66.4651 51.8048 64.0313 49.3711 61.0289 49.3711C58.0266 49.3711 55.5928 51.8048 55.5928 54.8072C55.5928 57.8095 58.0266 60.2434 61.0289 60.2434Z" stroke="#E6C058" stroke-width="2.2" stroke-linecap="round" stroke-linejoin="round"/>
<path d="M70.3609 73.4491C70.3609 69.2495 66.1846 65.8433 61.0284 65.8433C55.8722 65.8433 51.6959 69.2495 51.6959 73.4491" stroke="#E6C058" stroke-width="2.2" stroke-linecap="round" stroke-linejoin="round"/>
<defs>
<linearGradient id="paint0_linear_3_1039" x1="20.529" y1="164.539" x2="73.529" y2="14.0391" gradientUnits="userSpaceOnUse">
<stop offset="0.538342" stop-color="#E6C058"/>
<stop offset="0.764209" stop-color="#F0EEFF" stop-opacity="0"/>
</linearGradient>
</defs>
</svg>
