<svg width="35" height="35" viewBox="0 0 35 35" fill="none" xmlns="http://www.w3.org/2000/svg">
<g opacity="0.8">
<path d="M18.3088 23.8814H19.4158C20.5229 23.8814 21.4426 22.8935 21.4426 21.7013C21.4426 20.2196 20.9146 19.93 20.046 19.6234L18.3258 19.0273V23.8814H18.3088Z" fill="#E3B64B"/>
<path d="M16.9807 2.85847e-05C7.57918 0.0340918 -0.0339494 7.68128 0.000113862 17.0828C0.0341771 26.4843 7.68137 34.0974 17.0829 34.0633C26.4843 34.0293 34.0974 26.3821 34.0634 16.9806C34.0293 7.57909 26.3821 -0.017003 16.9807 2.85847e-05ZM20.8809 17.202C22.2094 17.6619 23.9977 18.6497 23.9977 21.6984C23.9977 24.3212 21.9369 26.4332 19.4162 26.4332H18.3091V27.421C18.3091 28.1193 17.7301 28.6984 17.0318 28.6984C16.3335 28.6984 15.7544 28.1193 15.7544 27.421V26.4332H15.1413C12.348 26.4332 10.0828 24.0828 10.0828 21.1874C10.0828 20.4891 10.6619 19.9101 11.3602 19.9101C12.0585 19.9101 12.6376 20.4891 12.6376 21.1874C12.6376 22.6692 13.7617 23.8784 15.1413 23.8784H15.7544V18.1217L13.1826 17.202C11.8541 16.7422 10.0658 15.7544 10.0658 12.7056C10.0658 10.0827 12.1266 7.97082 14.6473 7.97082H15.7544V6.98299C15.7544 6.28469 16.3335 5.70562 17.0318 5.70562C17.7301 5.70562 18.3091 6.28469 18.3091 6.98299V7.97082H18.9223C21.7155 7.97082 23.9807 10.3212 23.9807 13.2166C23.9807 13.9149 23.4016 14.494 22.7033 14.494C22.005 14.494 21.4259 13.9149 21.4259 13.2166C21.4259 11.7348 20.3018 10.5256 18.9223 10.5256H18.3091V16.2823L20.8809 17.202Z" fill="#E3B64B"/>
<path d="M12.6405 12.722C12.6405 14.2037 13.1685 14.4932 14.0371 14.7998L15.7573 15.3959V10.5249H14.6503C13.5432 10.5249 12.6405 11.5127 12.6405 12.722Z" fill="#E3B64B"/>
</g>
</svg>
