<svg width="144" height="31" viewBox="0 0 144 31" fill="none" xmlns="http://www.w3.org/2000/svg">
<path d="M0.633331 5C0.633331 2.23858 2.87191 0 5.63333 0H25.9942C28.7556 0 30.9942 2.23858 30.9942 5V25.3608C30.9942 28.1223 28.7556 30.3608 25.9942 30.3608H5.63333C2.87191 30.3608 0.633331 28.1223 0.633331 25.3608V5Z" fill="#124342"/>
<path d="M17.269 24.5527V16.0152H20.1492L20.5773 12.6725H17.269V10.5433C17.269 9.57876 17.5377 8.91834 18.9221 8.91834H20.6763V5.93813C19.8228 5.84666 18.9649 5.8025 18.1065 5.80584C15.5606 5.80584 13.8127 7.36001 13.8127 10.2131V12.6663H10.9513V16.009H13.819V24.5527H17.269Z" fill="white"/>
<path d="M37.9942 5C37.9942 2.23858 40.2327 0 42.9942 0H63.355C66.1164 0 68.355 2.23858 68.355 5V25.3608C68.355 28.1223 66.1164 30.3608 63.355 30.3608H42.9942C40.2327 30.3608 37.9942 28.1223 37.9942 25.3608V5Z" fill="#124342"/>
<path d="M53.1746 11.9265C51.3826 11.9265 49.9202 13.3889 49.9202 15.1809C49.9202 16.9729 51.3826 18.4353 53.1746 18.4353C54.9666 18.4353 56.429 16.9729 56.429 15.1809C56.429 13.3889 54.9666 11.9265 53.1746 11.9265ZM62.9353 15.1809C62.9353 13.8332 62.9475 12.4978 62.8719 11.1526C62.7962 9.59008 62.4397 8.20336 61.2971 7.06078C60.1521 5.91577 58.7678 5.56176 57.2053 5.48608C55.8577 5.41039 54.5222 5.4226 53.177 5.4226C51.8294 5.4226 50.4939 5.41039 49.1487 5.48608C47.5862 5.56176 46.1995 5.91821 45.0569 7.06078C43.9119 8.2058 43.5579 9.59008 43.4822 11.1526C43.4065 12.5002 43.4187 13.8357 43.4187 15.1809C43.4187 16.5261 43.4065 17.864 43.4822 19.2092C43.5579 20.7717 43.9143 22.1584 45.0569 23.301C46.2019 24.446 47.5862 24.8 49.1487 24.8757C50.4964 24.9514 51.8318 24.9392 53.177 24.9392C54.5247 24.9392 55.8601 24.9514 57.2053 24.8757C58.7678 24.8 60.1546 24.4436 61.2971 23.301C62.4422 22.156 62.7962 20.7717 62.8719 19.2092C62.95 17.864 62.9353 16.5286 62.9353 15.1809ZM53.1746 20.1882C50.4036 20.1882 48.1673 17.9519 48.1673 15.1809C48.1673 12.4099 50.4036 10.1736 53.1746 10.1736C55.9456 10.1736 58.1819 12.4099 58.1819 15.1809C58.1819 17.9519 55.9456 20.1882 53.1746 20.1882ZM58.387 11.1379C57.74 11.1379 57.2176 10.6155 57.2176 9.9685C57.2176 9.32153 57.74 8.79907 58.387 8.79907C59.034 8.79907 59.5564 9.32153 59.5564 9.9685C59.5566 10.1221 59.5265 10.2743 59.4678 10.4163C59.4091 10.5582 59.323 10.6872 59.2143 10.7958C59.1057 10.9045 58.9767 10.9906 58.8347 11.0493C58.6928 11.108 58.5406 11.1381 58.387 11.1379Z" fill="white"/>
<path d="M75.355 5C75.355 2.23858 77.5936 0 80.355 0H100.716C103.477 0 105.716 2.23858 105.716 5V25.3608C105.716 28.1223 103.477 30.3608 100.716 30.3608H80.355C77.5936 30.3608 75.355 28.1223 75.355 25.3608V5Z" fill="#124342"/>
<path d="M85.2646 7.88906C85.2643 8.4416 85.0446 8.97139 84.6537 9.3619C84.2628 9.7524 83.7328 9.97163 83.1802 9.97135C82.6277 9.97108 82.0979 9.75132 81.7074 9.36042C81.3169 8.96953 81.0977 8.43951 81.0979 7.88698C81.0982 7.33444 81.318 6.80465 81.7089 6.41415C82.0998 6.02364 82.6298 5.80441 83.1823 5.80469C83.7348 5.80496 84.2646 6.02472 84.6551 6.41562C85.0456 6.80651 85.2649 7.33653 85.2646 7.88906ZM85.3271 11.5141H81.1604V24.5557H85.3271V11.5141ZM91.9104 11.5141H87.7646V24.5557H91.8688V17.712C91.8688 13.8995 96.8375 13.5453 96.8375 17.712V24.5557H100.952V16.2953C100.952 9.86823 93.5979 10.1078 91.8688 13.2641L91.9104 11.5141Z" fill="white"/>
<path d="M112.716 5C112.716 2.23858 114.954 0 117.716 0H138.077C140.838 0 143.077 2.23858 143.077 5V25.3608C143.077 28.1223 140.838 30.3608 138.077 30.3608H117.716C114.954 30.3608 112.716 28.1223 112.716 25.3608V5Z" fill="#124342"/>
<path d="M127.356 4.80664C132.879 4.80664 137.356 9.28364 137.356 14.8066C137.356 20.3296 132.879 24.8066 127.356 24.8066C125.589 24.8095 123.853 24.3418 122.326 23.4516L117.36 24.8066L118.712 19.8386C117.821 18.3115 117.353 16.5746 117.356 14.8066C117.356 9.28364 121.833 4.80664 127.356 4.80664ZM123.948 10.1066L123.748 10.1146C123.618 10.1225 123.492 10.1565 123.376 10.2146C123.267 10.2761 123.168 10.3529 123.082 10.4426C122.962 10.5556 122.894 10.6536 122.821 10.7486C122.451 11.2295 122.252 11.82 122.255 12.4266C122.257 12.9166 122.385 13.3936 122.585 13.8396C122.994 14.7416 123.667 15.6966 124.555 16.5816C124.769 16.7946 124.979 17.0086 125.205 17.2076C126.308 18.1791 127.623 18.8797 129.045 19.2536L129.613 19.3406C129.798 19.3506 129.983 19.3366 130.169 19.3276C130.46 19.3126 130.745 19.2337 131.002 19.0966C131.133 19.0292 131.261 18.9558 131.385 18.8766C131.385 18.8766 131.428 18.8486 131.51 18.7866C131.645 18.6866 131.728 18.6156 131.84 18.4986C131.923 18.4126 131.995 18.3116 132.05 18.1966C132.128 18.0336 132.206 17.7226 132.238 17.4636C132.262 17.2656 132.255 17.1576 132.252 17.0906C132.248 16.9836 132.159 16.8726 132.062 16.8256L131.48 16.5646C131.48 16.5646 130.61 16.1856 130.078 15.9436C130.022 15.9193 129.963 15.9054 129.902 15.9026C129.834 15.8956 129.764 15.9033 129.699 15.9252C129.634 15.9471 129.574 15.9827 129.524 16.0296C129.519 16.0276 129.452 16.0846 128.729 16.9606C128.687 17.0164 128.63 17.0585 128.565 17.0817C128.499 17.1048 128.428 17.108 128.361 17.0906C128.296 17.0732 128.232 17.0511 128.17 17.0246C128.046 16.9726 128.003 16.9526 127.918 16.9166C127.344 16.6662 126.813 16.3278 126.343 15.9136C126.217 15.8036 126.1 15.6836 125.98 15.5676C125.587 15.1909 125.244 14.7646 124.96 14.2996L124.901 14.2046C124.859 14.1408 124.824 14.0719 124.799 13.9996C124.761 13.8526 124.86 13.7346 124.86 13.7346C124.86 13.7346 125.103 13.4686 125.216 13.3246C125.326 13.1846 125.419 13.0486 125.479 12.9516C125.597 12.7616 125.634 12.5666 125.572 12.4156C125.292 11.7316 125.002 11.0506 124.704 10.3746C124.645 10.2406 124.47 10.1446 124.311 10.1256C124.257 10.1196 124.203 10.1136 124.149 10.1096C124.015 10.103 123.88 10.1043 123.746 10.1136L123.947 10.1056L123.948 10.1066Z" fill="white"/>
</svg>
