<svg width="40" height="40" viewBox="0 0 40 40" fill="none" xmlns="http://www.w3.org/2000/svg">
<rect x="0.25" y="0.25" width="39.5" height="39.5" rx="4.75" stroke="#636363" stroke-width="0.5"/>
<path d="M19.5 13.551L19.0981 13.0077C18.6931 12.4605 18.2368 11.9956 17.7373 11.6181L17.7373 11.6181C16.7529 10.874 15.6426 10.5 14.4251 10.5C12.7829 10.5 11.2818 11.141 10.1882 12.3003L19.5 13.551ZM19.5 13.551L19.9019 13.0078M19.5 13.551L19.9019 13.0078M19.9019 13.0078C20.307 12.4603 20.7633 11.9956 21.2626 11.6181C22.2471 10.874 23.3574 10.5 24.5749 10.5C26.2171 10.5 27.718 11.141 28.8117 12.3003C29.8936 13.4474 30.5 15.0256 30.5 16.7557C30.5 18.5099 29.8382 20.1397 28.3376 21.9093L28.3376 21.9094C26.9796 23.5111 25.0173 25.1475 22.689 27.0867L22.689 27.0868L22.6685 27.1038C21.8822 27.7589 20.9899 28.5022 20.0639 29.2937L20.0637 29.2939C19.9098 29.4257 19.7096 29.5 19.5 29.5C19.2904 29.5 19.0904 29.4257 18.936 29.2936L18.9357 29.2933C18.0026 28.496 17.1043 27.7476 16.3139 27.0892L16.3116 27.0873L16.3115 27.0873M19.9019 13.0078L16.3115 27.0873M16.3115 27.0873C13.9829 25.1477 12.0206 23.5111 10.6626 21.9095C9.16194 20.1397 8.5 18.5099 8.5 16.7559C8.5 15.0256 9.10639 13.4474 10.1881 12.3004L16.3115 27.0873Z" stroke="#636363"/>
</svg>
