<svg width="222" height="60" viewBox="0 0 222 60" fill="none" xmlns="http://www.w3.org/2000/svg">
<rect width="222" height="60" rx="8" fill="#0B65C2"/>
<path d="M70.1321 27.2727C70.0639 26.697 69.7874 26.25 69.3026 25.9318C68.8177 25.6136 68.223 25.4545 67.5185 25.4545C67.0033 25.4545 66.5526 25.5379 66.1662 25.7045C65.7836 25.8712 65.4844 26.1004 65.2685 26.392C65.0563 26.6837 64.9503 27.0152 64.9503 27.3864C64.9503 27.697 65.0241 27.964 65.1719 28.1875C65.3234 28.4072 65.5166 28.5909 65.7514 28.7386C65.9863 28.8826 66.2325 29.0019 66.4901 29.0966C66.7476 29.1875 66.9844 29.2614 67.2003 29.3182L68.3821 29.6364C68.6851 29.7159 69.0223 29.8258 69.3935 29.9659C69.7685 30.1061 70.1264 30.2973 70.4673 30.5398C70.812 30.7784 71.0961 31.0852 71.3196 31.4602C71.5431 31.8352 71.6548 32.2955 71.6548 32.8409C71.6548 33.4697 71.4901 34.0379 71.1605 34.5455C70.8348 35.053 70.3575 35.4564 69.7287 35.7557C69.1037 36.0549 68.3442 36.2045 67.4503 36.2045C66.617 36.2045 65.8954 36.0701 65.2855 35.8011C64.6795 35.5322 64.2022 35.1572 63.8537 34.6761C63.509 34.1951 63.3139 33.6364 63.2685 33H64.723C64.7609 33.4394 64.9086 33.803 65.1662 34.0909C65.4276 34.375 65.7571 34.5871 66.1548 34.7273C66.5563 34.8636 66.9882 34.9318 67.4503 34.9318C67.9882 34.9318 68.4711 34.8447 68.8991 34.6705C69.3272 34.4924 69.6662 34.2462 69.9162 33.9318C70.1662 33.6136 70.2912 33.2424 70.2912 32.8182C70.2912 32.4318 70.1832 32.1174 69.9673 31.875C69.7514 31.6326 69.4673 31.4356 69.1151 31.2841C68.7628 31.1326 68.3821 31 67.973 30.8864L66.5412 30.4773C65.6321 30.2159 64.9124 29.8428 64.3821 29.358C63.8518 28.8731 63.5866 28.2386 63.5866 27.4545C63.5866 26.803 63.7628 26.2348 64.1151 25.75C64.4711 25.2614 64.9484 24.8826 65.5469 24.6136C66.1491 24.3409 66.8215 24.2045 67.5639 24.2045C68.3139 24.2045 68.9806 24.339 69.5639 24.608C70.1473 24.8731 70.6094 25.2367 70.9503 25.6989C71.295 26.161 71.4768 26.6856 71.4957 27.2727H70.1321ZM75.1307 30.75V36H73.7898V24.3636H75.1307V28.6364H75.2443C75.4489 28.1856 75.7557 27.8277 76.1648 27.5625C76.5777 27.2936 77.1269 27.1591 77.8125 27.1591C78.4072 27.1591 78.928 27.2784 79.375 27.517C79.822 27.7519 80.1686 28.1136 80.4148 28.6023C80.6648 29.0871 80.7898 29.7045 80.7898 30.4545V36H79.4489V30.5455C79.4489 29.8523 79.2689 29.3163 78.9091 28.9375C78.553 28.5549 78.0587 28.3636 77.4261 28.3636C76.9867 28.3636 76.5928 28.4564 76.2443 28.642C75.8996 28.8277 75.6269 29.0985 75.4261 29.4545C75.2292 29.8106 75.1307 30.2424 75.1307 30.75ZM85.8111 36.2045C85.258 36.2045 84.7562 36.1004 84.3054 35.892C83.8546 35.6799 83.4967 35.375 83.2315 34.9773C82.9664 34.5758 82.8338 34.0909 82.8338 33.5227C82.8338 33.0227 82.9323 32.6174 83.1293 32.3068C83.3262 31.9924 83.5895 31.7462 83.919 31.5682C84.2486 31.3902 84.6122 31.2576 85.0099 31.1705C85.4115 31.0795 85.8149 31.0076 86.2202 30.9545C86.7505 30.8864 87.1804 30.8352 87.5099 30.8011C87.8433 30.7633 88.0857 30.7008 88.2372 30.6136C88.3925 30.5265 88.4702 30.375 88.4702 30.1591V30.1136C88.4702 29.553 88.3168 29.1174 88.0099 28.8068C87.7069 28.4962 87.2467 28.3409 86.6293 28.3409C85.9891 28.3409 85.4872 28.4811 85.1236 28.7614C84.7599 29.0417 84.5043 29.3409 84.3565 29.6591L83.0838 29.2045C83.3111 28.6742 83.6141 28.2614 83.9929 27.9659C84.3755 27.6667 84.7921 27.4583 85.2429 27.3409C85.6974 27.2197 86.1444 27.1591 86.5838 27.1591C86.8641 27.1591 87.1861 27.1932 87.5497 27.2614C87.9171 27.3258 88.2713 27.4602 88.6122 27.6648C88.9569 27.8693 89.2429 28.178 89.4702 28.5909C89.6974 29.0038 89.8111 29.5568 89.8111 30.25V36H88.4702V34.8182H88.402C88.3111 35.0076 88.1596 35.2102 87.9474 35.4261C87.7353 35.642 87.4531 35.8258 87.1009 35.9773C86.7486 36.1288 86.3187 36.2045 85.8111 36.2045ZM86.0156 35C86.5459 35 86.9929 34.8958 87.3565 34.6875C87.724 34.4792 88.0005 34.2102 88.1861 33.8807C88.3755 33.5511 88.4702 33.2045 88.4702 32.8409V31.6136C88.4134 31.6818 88.2884 31.7443 88.0952 31.8011C87.9058 31.8542 87.6861 31.9015 87.4361 31.9432C87.1899 31.9811 86.9493 32.0152 86.7145 32.0455C86.4834 32.072 86.2959 32.0947 86.152 32.1136C85.8035 32.1591 85.4777 32.233 85.1747 32.3352C84.8755 32.4337 84.633 32.5833 84.4474 32.7841C84.2656 32.9811 84.1747 33.25 84.1747 33.5909C84.1747 34.0568 84.3471 34.4091 84.6918 34.6477C85.0402 34.8826 85.4815 35 86.0156 35ZM92.2585 36V27.2727H93.554V28.5909H93.6449C93.804 28.1591 94.0919 27.8087 94.5085 27.5398C94.9252 27.2708 95.3949 27.1364 95.9176 27.1364C96.0161 27.1364 96.1392 27.1383 96.2869 27.142C96.4347 27.1458 96.5464 27.1515 96.6222 27.1591V28.5227C96.5767 28.5114 96.4725 28.4943 96.3097 28.4716C96.1506 28.4451 95.982 28.4318 95.804 28.4318C95.3797 28.4318 95.0009 28.5208 94.6676 28.6989C94.3381 28.8731 94.0767 29.1155 93.8835 29.4261C93.6941 29.733 93.5994 30.0833 93.5994 30.4773V36H92.2585ZM101.605 36.1818C100.764 36.1818 100.039 35.9962 99.429 35.625C98.8229 35.25 98.3551 34.7273 98.0256 34.0568C97.6998 33.3826 97.5369 32.5985 97.5369 31.7045C97.5369 30.8106 97.6998 30.0227 98.0256 29.3409C98.3551 28.6553 98.8134 28.1212 99.4006 27.7386C99.9915 27.3523 100.681 27.1591 101.469 27.1591C101.923 27.1591 102.372 27.2348 102.815 27.3864C103.259 27.5379 103.662 27.7841 104.026 28.125C104.389 28.4621 104.679 28.9091 104.895 29.4659C105.111 30.0227 105.219 30.7083 105.219 31.5227V32.0909H98.4915V30.9318H103.855C103.855 30.4394 103.757 30 103.56 29.6136C103.366 29.2273 103.09 28.9223 102.73 28.6989C102.374 28.4754 101.954 28.3636 101.469 28.3636C100.935 28.3636 100.473 28.4962 100.082 28.7614C99.696 29.0227 99.3987 29.3636 99.1903 29.7841C98.982 30.2045 98.8778 30.6553 98.8778 31.1364V31.9091C98.8778 32.5682 98.9915 33.1269 99.2188 33.5852C99.4498 34.0398 99.7699 34.3864 100.179 34.625C100.588 34.8598 101.063 34.9773 101.605 34.9773C101.957 34.9773 102.276 34.928 102.56 34.8295C102.848 34.7273 103.096 34.5758 103.304 34.375C103.512 34.1705 103.673 33.9167 103.787 33.6136L105.082 33.9773C104.946 34.4167 104.717 34.803 104.395 35.1364C104.073 35.4659 103.675 35.7235 103.202 35.9091C102.728 36.0909 102.196 36.1818 101.605 36.1818ZM115.554 27.2727V28.4091H111.031V27.2727H115.554ZM112.349 25.1818H113.69V33.5C113.69 33.8788 113.745 34.1629 113.855 34.3523C113.969 34.5379 114.113 34.6629 114.287 34.7273C114.465 34.7879 114.652 34.8182 114.849 34.8182C114.997 34.8182 115.118 34.8106 115.213 34.7955C115.308 34.7765 115.384 34.7614 115.44 34.75L115.713 35.9545C115.622 35.9886 115.495 36.0227 115.332 36.0568C115.17 36.0947 114.963 36.1136 114.713 36.1136C114.334 36.1136 113.963 36.0322 113.599 35.8693C113.24 35.7064 112.94 35.4583 112.702 35.125C112.467 34.7917 112.349 34.3712 112.349 33.8636V25.1818ZM121.023 36.1818C120.235 36.1818 119.544 35.9943 118.949 35.6193C118.358 35.2443 117.896 34.7197 117.562 34.0455C117.233 33.3712 117.068 32.5833 117.068 31.6818C117.068 30.7727 117.233 29.9792 117.562 29.3011C117.896 28.6231 118.358 28.0966 118.949 27.7216C119.544 27.3466 120.235 27.1591 121.023 27.1591C121.811 27.1591 122.5 27.3466 123.091 27.7216C123.686 28.0966 124.148 28.6231 124.477 29.3011C124.811 29.9792 124.977 30.7727 124.977 31.6818C124.977 32.5833 124.811 33.3712 124.477 34.0455C124.148 34.7197 123.686 35.2443 123.091 35.6193C122.5 35.9943 121.811 36.1818 121.023 36.1818ZM121.023 34.9773C121.621 34.9773 122.114 34.8239 122.5 34.517C122.886 34.2102 123.172 33.8068 123.358 33.3068C123.544 32.8068 123.636 32.2652 123.636 31.6818C123.636 31.0985 123.544 30.5549 123.358 30.0511C123.172 29.5473 122.886 29.1402 122.5 28.8295C122.114 28.5189 121.621 28.3636 121.023 28.3636C120.424 28.3636 119.932 28.5189 119.545 28.8295C119.159 29.1402 118.873 29.5473 118.688 30.0511C118.502 30.5549 118.409 31.0985 118.409 31.6818C118.409 32.2652 118.502 32.8068 118.688 33.3068C118.873 33.8068 119.159 34.2102 119.545 34.517C119.932 34.8239 120.424 34.9773 121.023 34.9773ZM131.706 36V24.3636H133.115V34.75H138.524V36H131.706ZM140.524 36V27.2727H141.865V36H140.524ZM141.206 25.8182C140.945 25.8182 140.719 25.7292 140.53 25.5511C140.344 25.3731 140.251 25.1591 140.251 24.9091C140.251 24.6591 140.344 24.4451 140.53 24.267C140.719 24.089 140.945 24 141.206 24C141.467 24 141.691 24.089 141.876 24.267C142.066 24.4451 142.161 24.6591 142.161 24.9091C142.161 25.1591 142.066 25.3731 141.876 25.5511C141.691 25.7292 141.467 25.8182 141.206 25.8182ZM145.662 30.75V36H144.321V27.2727H145.616V28.6364H145.73C145.935 28.1932 146.245 27.8371 146.662 27.5682C147.079 27.2955 147.616 27.1591 148.276 27.1591C148.866 27.1591 149.384 27.2803 149.827 27.5227C150.27 27.7614 150.615 28.125 150.861 28.6136C151.107 29.0985 151.23 29.7121 151.23 30.4545V36H149.889V30.5455C149.889 29.8598 149.711 29.3258 149.355 28.9432C148.999 28.5568 148.51 28.3636 147.889 28.3636C147.461 28.3636 147.079 28.4564 146.741 28.642C146.408 28.8277 146.145 29.0985 145.952 29.4545C145.759 29.8106 145.662 30.2424 145.662 30.75ZM154.93 32.8182L154.908 31.1591H155.18L158.999 27.2727H160.658L156.589 31.3864H156.476L154.93 32.8182ZM153.68 36V24.3636H155.021V36H153.68ZM159.226 36L155.817 31.6818L156.771 30.75L160.93 36H159.226ZM165.683 36.1818C164.842 36.1818 164.117 35.9962 163.507 35.625C162.901 35.25 162.433 34.7273 162.104 34.0568C161.778 33.3826 161.615 32.5985 161.615 31.7045C161.615 30.8106 161.778 30.0227 162.104 29.3409C162.433 28.6553 162.892 28.1212 163.479 27.7386C164.07 27.3523 164.759 27.1591 165.547 27.1591C166.001 27.1591 166.45 27.2348 166.893 27.3864C167.337 27.5379 167.74 27.7841 168.104 28.125C168.467 28.4621 168.757 28.9091 168.973 29.4659C169.189 30.0227 169.297 30.7083 169.297 31.5227V32.0909H162.57V30.9318H167.933C167.933 30.4394 167.835 30 167.638 29.6136C167.445 29.2273 167.168 28.9223 166.808 28.6989C166.452 28.4754 166.032 28.3636 165.547 28.3636C165.013 28.3636 164.551 28.4962 164.161 28.7614C163.774 29.0227 163.477 29.3636 163.268 29.7841C163.06 30.2045 162.956 30.6553 162.956 31.1364V31.9091C162.956 32.5682 163.07 33.1269 163.297 33.5852C163.528 34.0398 163.848 34.3864 164.257 34.625C164.666 34.8598 165.142 34.9773 165.683 34.9773C166.036 34.9773 166.354 34.928 166.638 34.8295C166.926 34.7273 167.174 34.5758 167.382 34.375C167.59 34.1705 167.751 33.9167 167.865 33.6136L169.161 33.9773C169.024 34.4167 168.795 34.803 168.473 35.1364C168.151 35.4659 167.753 35.7235 167.28 35.9091C166.806 36.0909 166.274 36.1818 165.683 36.1818ZM174.632 36.1818C173.905 36.1818 173.263 35.9981 172.706 35.6307C172.149 35.2595 171.714 34.7367 171.399 34.0625C171.085 33.3845 170.928 32.5833 170.928 31.6591C170.928 30.7424 171.085 29.947 171.399 29.2727C171.714 28.5985 172.151 28.0777 172.712 27.7102C173.272 27.3428 173.92 27.1591 174.655 27.1591C175.223 27.1591 175.672 27.2538 176.001 27.4432C176.335 27.6288 176.589 27.8409 176.763 28.0795C176.941 28.3144 177.079 28.5076 177.178 28.6591H177.291V24.3636H178.632V36H177.337V34.6591H177.178C177.079 34.8182 176.939 35.0189 176.757 35.2614C176.575 35.5 176.316 35.714 175.979 35.9034C175.642 36.089 175.193 36.1818 174.632 36.1818ZM174.814 34.9773C175.352 34.9773 175.806 34.8371 176.178 34.5568C176.549 34.2727 176.831 33.8807 177.024 33.3807C177.217 32.8769 177.314 32.2955 177.314 31.6364C177.314 30.9848 177.219 30.4148 177.03 29.9261C176.84 29.4337 176.56 29.0511 176.189 28.7784C175.818 28.5019 175.359 28.3636 174.814 28.3636C174.246 28.3636 173.772 28.5095 173.393 28.8011C173.018 29.089 172.736 29.4811 172.547 29.9773C172.361 30.4697 172.268 31.0227 172.268 31.6364C172.268 32.2576 172.363 32.822 172.553 33.3295C172.746 33.8333 173.03 34.2348 173.405 34.5341C173.784 34.8295 174.253 34.9773 174.814 34.9773ZM182.865 24.3636V36H181.456V24.3636H182.865ZM186.849 30.75V36H185.509V27.2727H186.804V28.6364H186.918C187.122 28.1932 187.433 27.8371 187.849 27.5682C188.266 27.2955 188.804 27.1591 189.463 27.1591C190.054 27.1591 190.571 27.2803 191.014 27.5227C191.457 27.7614 191.802 28.125 192.048 28.6136C192.295 29.0985 192.418 29.7121 192.418 30.4545V36H191.077V30.5455C191.077 29.8598 190.899 29.3258 190.543 28.9432C190.187 28.5568 189.698 28.3636 189.077 28.3636C188.649 28.3636 188.266 28.4564 187.929 28.642C187.596 28.8277 187.332 29.0985 187.139 29.4545C186.946 29.8106 186.849 30.2424 186.849 30.75Z" fill="white"/>
<path d="M41.0389 20C39.0534 20 37.1125 20.5865 35.4616 21.6853C33.8107 22.7841 32.524 24.3459 31.7642 26.1732C31.0043 28.0004 30.8055 30.0111 31.1929 31.9509C31.5802 33.8907 32.5364 35.6725 33.9403 37.0711C35.3443 38.4696 37.133 39.422 39.0804 39.8078C41.0277 40.1937 43.0462 39.9957 44.8806 39.2388C46.7149 38.4819 48.2828 37.2002 49.3859 35.5557C50.489 33.9112 51.0777 31.9778 51.0777 30C51.0777 27.3478 50.0201 24.8043 48.1374 22.9289C46.2548 21.0536 43.7013 20 41.0389 20ZM38.1197 35.2632H35.9296V28.2355H38.1197V35.2632ZM37.0233 27.2763C36.7713 27.2774 36.5246 27.2039 36.3144 27.0653C36.1042 26.9267 35.94 26.7292 35.8426 26.4976C35.7451 26.2661 35.7187 26.011 35.7668 25.7645C35.8148 25.518 35.9351 25.2913 36.1125 25.1129C36.2899 24.9346 36.5164 24.8126 36.7634 24.7625C37.0104 24.7123 37.2667 24.7362 37.5 24.8311C37.7334 24.9261 37.9332 25.0878 38.0743 25.2958C38.2154 25.5039 38.2914 25.7489 38.2927 26C38.2934 26.3367 38.1603 26.6599 37.9224 26.8991C37.6845 27.1383 37.3613 27.2739 37.0233 27.2763ZM46.3225 35.2632H44.1337V31.8421C44.1337 31.0263 44.1179 29.9803 42.9951 29.9803C41.8724 29.9803 41.6742 30.8671 41.6742 31.7829V35.2632H39.4934V28.2355H41.595V29.1934H41.6253C41.9173 28.6408 42.6319 28.0579 43.6978 28.0579C45.9143 28.0579 46.3225 29.5132 46.3225 31.4026V35.2632Z" fill="white"/>
</svg>
