<svg width="21" height="20" viewBox="0 0 21 20" fill="none" xmlns="http://www.w3.org/2000/svg">
<path opacity="0.5" d="M10.5 0C8.51448 0 6.57357 0.58649 4.92269 1.6853C3.27181 2.78412 1.98511 4.3459 1.22529 6.17316C0.46547 8.00042 0.266667 10.0111 0.654019 11.9509C1.04137 13.8907 1.99748 15.6725 3.40144 17.0711C4.8054 18.4696 6.59415 19.422 8.5415 19.8078C10.4888 20.1937 12.5073 19.9957 14.3417 19.2388C16.176 18.4819 17.7439 17.2002 18.847 15.5557C19.9501 13.9112 20.5388 11.9778 20.5388 10C20.5388 7.34783 19.4812 4.80429 17.5985 2.92893C15.7159 1.05357 13.1625 0 10.5 0ZM7.58079 15.2632H5.39073V8.23552H7.58079V15.2632ZM6.48444 7.27631C6.23239 7.27735 5.9857 7.20393 5.77553 7.06533C5.56536 6.92674 5.40117 6.72918 5.30369 6.49765C5.20621 6.26611 5.17983 6.01098 5.22788 5.76452C5.27593 5.51805 5.39626 5.2913 5.57365 5.11294C5.75105 4.93458 5.97754 4.81261 6.22451 4.76245C6.47148 4.71229 6.72783 4.73619 6.96116 4.83113C7.1945 4.92606 7.39434 5.08778 7.53543 5.29583C7.67652 5.50388 7.75252 5.74893 7.75383 6C7.75453 6.33667 7.6214 6.65992 7.38353 6.89909C7.14566 7.13825 6.82241 7.27388 6.48444 7.27631ZM15.7836 15.2632H13.5949V11.8421C13.5949 11.0263 13.579 9.98026 12.4562 9.98026C11.3335 9.98026 11.1353 10.8671 11.1353 11.7829V15.2632H8.95453V8.23552H11.0561V9.19342H11.0865C11.3784 8.64079 12.093 8.05789 13.159 8.05789C15.3754 8.05789 15.7836 9.51316 15.7836 11.4026V15.2632Z" fill="white"/>
</svg>
