<svg width="24" height="24" viewBox="0 0 24 24" fill="none" xmlns="http://www.w3.org/2000/svg">
<circle cx="12" cy="12" r="12" fill="#EDFBF4"/>
<path d="M17.0332 11.5332H13.4668V7.9668C13.4668 7.43285 13.034 7 12.5 7C11.966 7 11.5332 7.43285 11.5332 7.9668V11.5332H7.9668C7.43285 11.5332 7 11.966 7 12.5C7 13.034 7.43285 13.4668 7.9668 13.4668H11.5332V17.0332C11.5332 17.5672 11.966 18 12.5 18C13.034 18 13.4668 17.5672 13.4668 17.0332V13.4668H17.0332C17.5672 13.4668 18 13.034 18 12.5C18 11.966 17.5672 11.5332 17.0332 11.5332Z" fill="#124342"/>
</svg>
