<svg width="24" height="24" viewBox="0 0 24 24" fill="none" xmlns="http://www.w3.org/2000/svg">
<circle cx="12" cy="12" r="12" fill="#EDFBF4"/>
<path d="M15.8809 12.9521V14.7893C15.8809 15.4566 15.506 16.0521 14.9255 16.3308C14.22 16.6687 13.1517 17.0361 11.8496 17.0361C10.5475 17.0361 9.47923 16.6687 8.76973 16.3308C8.19327 16.0521 7.81836 15.4566 7.81836 14.7893V12.9521L10.6846 14.3247C11.0514 14.5021 11.4465 14.5908 11.8496 14.5908C12.2527 14.5908 12.6478 14.5021 13.0146 14.3247L15.8809 12.9521Z" fill="#124342"/>
<path d="M17.4933 12.1797V14.9249C17.4933 15.1571 17.3119 15.3472 17.0901 15.3472C16.8684 15.3472 16.687 15.1571 16.687 14.9249V12.5682L17.4933 12.1797Z" fill="#124342"/>
<path d="M11.0182 13.5578C11.2822 13.684 11.5656 13.7474 11.8494 13.7474C12.1332 13.7474 12.4162 13.6845 12.6807 13.5578L17.829 11.0922C18.1192 10.9532 18.2994 10.6589 18.2994 10.3239C18.2994 9.98903 18.1192 9.69424 17.829 9.55529L12.6807 7.09012C12.1522 6.83715 11.5471 6.83715 11.0186 7.09012L5.86986 9.55487C5.57961 9.69424 5.39941 9.98861 5.39941 10.3235C5.39941 10.6584 5.57961 10.9528 5.86986 11.0922L11.0182 13.5578Z" fill="#124342"/>
</svg>
