<svg width="8" height="12" viewBox="0 0 8 12" fill="none" xmlns="http://www.w3.org/2000/svg">
<path d="M4 0C2.93957 0.00158253 1.92297 0.476196 1.17313 1.31977C0.423286 2.16334 0.00140669 3.30701 0 4.5C0 7.73062 3.72667 11.7769 3.885 11.9475C3.9158 11.9812 3.95705 12 4 12C4.04295 12 4.0842 11.9812 4.115 11.9475C4.27333 11.7769 8 7.73062 8 4.5C7.99859 3.30701 7.57671 2.16334 6.82687 1.31977C6.07703 0.476196 5.06043 0.00158253 4 0ZM4 6.56249C3.6374 6.56249 3.28294 6.44153 2.98145 6.2149C2.67996 5.98827 2.44498 5.66615 2.30622 5.28928C2.16746 4.91241 2.13115 4.49771 2.20189 4.09762C2.27263 3.69754 2.44724 3.33003 2.70364 3.04159C2.96003 2.75314 3.2867 2.55671 3.64233 2.47713C3.99797 2.39755 4.36659 2.43839 4.70159 2.5945C5.03658 2.7506 5.32291 3.01496 5.52436 3.35413C5.72581 3.69331 5.83333 4.09207 5.83333 4.5C5.83304 5.0469 5.63979 5.57132 5.29604 5.95804C4.95229 6.34476 4.48614 6.56217 4 6.56249Z" fill="#E4B850"/>
</svg>
