<svg width="118" height="15" viewBox="0 0 118 15" fill="none" xmlns="http://www.w3.org/2000/svg">
<path d="M14.8691 6.15033L11.519 9.58177L12.3065 14.4383C12.3759 14.8258 11.9552 15.1096 11.619 14.9258L7.5 12.6444V0C7.67501 0 7.85002 0.0812544 7.92502 0.250013L9.99388 4.6565L14.6004 5.35654C14.9854 5.42529 15.1273 5.87844 14.8691 6.15033Z" fill="#FFC107"/>
<path d="M7.50007 0V12.6444L3.3811 14.9258C3.05046 15.1114 2.62356 14.8302 2.69356 14.4383L3.48111 9.58177L0.130927 6.15033C-0.127212 5.87844 0.0140454 5.42529 0.399691 5.35654L5.00619 4.6565L7.07505 0.250013C7.15006 0.0812544 7.32507 0 7.50007 0Z" fill="#FFC107"/>
<path d="M33.8691 6.15033L30.519 9.58177L31.3065 14.4383C31.3759 14.8258 30.9552 15.1096 30.619 14.9258L26.5 12.6444V0C26.675 0 26.85 0.0812544 26.925 0.250013L28.9939 4.6565L33.6004 5.35654C33.9854 5.42529 34.1273 5.87844 33.8691 6.15033Z" fill="#FFC107"/>
<path d="M26.5001 0V12.6444L22.3811 14.9258C22.0505 15.1114 21.6236 14.8302 21.6936 14.4383L22.4811 9.58177L19.1309 6.15033C18.8728 5.87844 19.014 5.42529 19.3997 5.35654L24.0062 4.6565L26.0751 0.250013C26.1501 0.0812544 26.3251 0 26.5001 0Z" fill="#FFC107"/>
<path d="M52.8691 6.15033L49.519 9.58177L50.3065 14.4383C50.3759 14.8258 49.9552 15.1096 49.619 14.9258L45.5 12.6444V0C45.675 0 45.85 0.0812544 45.925 0.250013L47.9939 4.6565L52.6004 5.35654C52.9854 5.42529 53.1273 5.87844 52.8691 6.15033Z" fill="#FFC107"/>
<path d="M45.5001 0V12.6444L41.3811 14.9258C41.0505 15.1114 40.6236 14.8302 40.6936 14.4383L41.4811 9.58177L38.1309 6.15033C37.8728 5.87844 38.014 5.42529 38.3997 5.35654L43.0062 4.6565L45.0751 0.250013C45.1501 0.0812544 45.3251 0 45.5001 0Z" fill="#FFC107"/>
<path d="M71.8691 6.15033L68.519 9.58177L69.3065 14.4383C69.3759 14.8258 68.9552 15.1096 68.619 14.9258L64.5 12.6444V0C64.675 0 64.85 0.0812544 64.925 0.250013L66.9939 4.6565L71.6004 5.35654C71.9854 5.42529 72.1273 5.87844 71.8691 6.15033Z" fill="#FFC107"/>
<path d="M64.5001 0V12.6444L60.3811 14.9258C60.0505 15.1114 59.6236 14.8302 59.6936 14.4383L60.4811 9.58177L57.1309 6.15033C56.8728 5.87844 57.014 5.42529 57.3997 5.35654L62.0062 4.6565L64.0751 0.250013C64.1501 0.0812544 64.3251 0 64.5001 0Z" fill="#FFC107"/>
<path d="M91.8691 6.15033L88.519 9.58177L89.3065 14.4383C89.3759 14.8258 88.9552 15.1096 88.619 14.9258L84.5 12.6444V0C84.675 0 84.85 0.0812544 84.925 0.250013L86.9939 4.6565L91.6004 5.35654C91.9854 5.42529 92.1273 5.87844 91.8691 6.15033Z" fill="#FFC107"/>
<path d="M84.5001 0V12.6444L80.3811 14.9258C80.0505 15.1114 79.6236 14.8302 79.6936 14.4383L80.4811 9.58177L77.1309 6.15033C76.8728 5.87844 77.014 5.42529 77.3997 5.35654L82.0062 4.6565L84.0751 0.250013C84.1501 0.0812544 84.3251 0 84.5001 0Z" fill="#FFC107"/>
<path opacity="0.5" d="M105.026 12.0994C104.609 12.0994 104.234 12.0166 103.9 11.8509C103.566 11.6851 103.299 11.4579 103.097 11.169C102.896 10.8802 102.786 10.5511 102.767 10.1818H103.619C103.652 10.5109 103.802 10.7831 104.067 10.9986C104.334 11.2116 104.654 11.3182 105.026 11.3182C105.324 11.3182 105.589 11.2483 105.821 11.1087C106.055 10.969 106.239 10.7772 106.371 10.5334C106.506 10.2872 106.574 10.009 106.574 9.69886C106.574 9.38163 106.504 9.09872 106.364 8.85014C106.227 8.5992 106.038 8.40152 105.796 8.2571C105.555 8.11269 105.279 8.0393 104.969 8.03693C104.746 8.03456 104.518 8.06889 104.283 8.13991C104.049 8.20857 103.856 8.29735 103.705 8.40625L102.881 8.30682L103.321 4.72727H107.099V5.50852H104.06L103.804 7.65341H103.847C103.996 7.53504 104.183 7.43679 104.408 7.35866C104.633 7.28054 104.867 7.24148 105.111 7.24148C105.556 7.24148 105.952 7.34801 106.3 7.56108C106.651 7.77178 106.925 8.06061 107.124 8.42756C107.326 8.79451 107.426 9.21354 107.426 9.68466C107.426 10.1487 107.322 10.563 107.114 10.9276C106.908 11.2898 106.624 11.5762 106.261 11.7869C105.899 11.9953 105.487 12.0994 105.026 12.0994ZM111.422 4.38636L109.078 13.0938H108.311L110.655 4.38636H111.422ZM114.674 12.0994C114.257 12.0994 113.882 12.0166 113.548 11.8509C113.214 11.6851 112.947 11.4579 112.746 11.169C112.545 10.8802 112.434 10.5511 112.415 10.1818H113.268C113.301 10.5109 113.45 10.7831 113.715 10.9986C113.983 11.2116 114.302 11.3182 114.674 11.3182C114.972 11.3182 115.237 11.2483 115.469 11.1087C115.704 10.969 115.887 10.7772 116.02 10.5334C116.155 10.2872 116.222 10.009 116.222 9.69886C116.222 9.38163 116.152 9.09872 116.013 8.85014C115.875 8.5992 115.686 8.40152 115.445 8.2571C115.203 8.11269 114.927 8.0393 114.617 8.03693C114.395 8.03456 114.166 8.06889 113.932 8.13991C113.697 8.20857 113.504 8.29735 113.353 8.40625L112.529 8.30682L112.969 4.72727H116.748V5.50852H113.708L113.452 7.65341H113.495C113.644 7.53504 113.831 7.43679 114.056 7.35866C114.281 7.28054 114.515 7.24148 114.759 7.24148C115.204 7.24148 115.601 7.34801 115.949 7.56108C116.299 7.77178 116.574 8.06061 116.773 8.42756C116.974 8.79451 117.075 9.21354 117.075 9.68466C117.075 10.1487 116.97 10.563 116.762 10.9276C116.556 11.2898 116.272 11.5762 115.91 11.7869C115.548 11.9953 115.136 12.0994 114.674 12.0994Z" fill="#636363"/>
</svg>
