<svg width="55" height="55" viewBox="0 0 55 55" fill="none" xmlns="http://www.w3.org/2000/svg">
<path d="M27.5 0C12.3368 0 0 12.3368 0 27.5C0 42.6632 12.3368 55 27.5 55C42.6632 55 55 42.6632 55 27.5C55 12.3368 42.6632 0 27.5 0ZM27.5 51.5625C14.2317 51.5625 3.4375 40.7683 3.4375 27.5C3.4375 14.2317 14.2317 3.4375 27.5 3.4375C40.7683 3.4375 51.5625 14.2317 51.5625 27.5C51.5625 40.7683 40.7683 51.5625 27.5 51.5625ZM39.0277 26.2848C39.6993 26.9564 39.6993 28.044 39.0277 28.7152L30.4339 37.3089C30.0983 37.6445 29.6583 37.8125 29.2188 37.8125C28.7792 37.8125 28.3392 37.6445 28.0036 37.3089C27.332 36.6373 27.332 35.5498 28.0036 34.8786L33.6634 29.2188H17.1875C16.2383 29.2188 15.4688 28.45 15.4688 27.5C15.4688 26.55 16.2383 25.7812 17.1875 25.7812H33.6634L28.0036 20.1214C27.332 19.4498 27.332 18.3623 28.0036 17.6911C28.6752 17.0199 29.7627 17.0195 30.4339 17.6911L39.0277 26.2848Z" fill="#124342"/>
</svg>
