<svg width="16" height="17" viewBox="0 0 16 17" fill="none" xmlns="http://www.w3.org/2000/svg">
<path d="M7.18146 0.5C3.22384 0.5 0 3.72274 0 7.67903C0 11.6353 3.22384 14.8643 7.18146 14.8643C8.87188 14.8643 10.4265 14.2721 11.6553 13.2888L14.6466 16.2776C14.7976 16.4223 14.9992 16.5021 15.2083 16.5C15.4174 16.4978 15.6174 16.4139 15.7653 16.2662C15.9133 16.1185 15.9975 15.9188 15.9999 15.7097C16.0024 15.5007 15.9228 15.299 15.7783 15.1479L12.787 12.1576C13.7714 10.9274 14.3645 9.37082 14.3645 7.67903C14.3645 3.72274 11.1391 0.5 7.18146 0.5ZM7.18146 2.09571C10.2764 2.09571 12.7667 4.58513 12.7667 7.67903C12.7667 10.7729 10.2764 13.2686 7.18146 13.2686C4.08651 13.2686 1.59623 10.7729 1.59623 7.67903C1.59623 4.58513 4.08651 2.09571 7.18146 2.09571Z" fill="#F5F5F5"/>
</svg>
