<svg width="104" height="104" viewBox="0 0 104 104" fill="none" xmlns="http://www.w3.org/2000/svg">
<path d="M12.302 31.5292V24.4668C12.302 12.0584 22.3603 2 34.7688 2H38.5978C51.0062 2 61.0666 12.0584 61.0666 24.4668V31.5292" stroke="#124342" stroke-width="3" stroke-miterlimit="10" stroke-linecap="round" stroke-linejoin="round"/>
<path d="M63.2234 102H13.7627" stroke="#124342" stroke-width="3" stroke-miterlimit="10" stroke-linecap="round" stroke-linejoin="round"/>
<path d="M6.72032 102H4.50503C3.12072 102 2 100.879 2 99.4952V78.2738C2 71.5797 6.81086 65.8533 13.4044 64.7024L20.9899 63.3765" stroke="#124342" stroke-width="3" stroke-miterlimit="10" stroke-linecap="round" stroke-linejoin="round"/>
<path d="M52.3767 63.3765L59.9622 64.7024C60.6765 64.8272 61.3707 65.0062 62.0387 65.2336" stroke="#124342" stroke-width="3" stroke-miterlimit="10" stroke-linecap="round" stroke-linejoin="round"/>
<path d="M45.2352 53.1147V60.0242C45.2352 60.33 45.2896 60.6238 45.3922 60.8974" stroke="#124342" stroke-width="3" stroke-miterlimit="10" stroke-linecap="round" stroke-linejoin="round"/>
<path d="M28.1328 53.1509V60.0241C28.1328 60.33 28.0764 60.6257 27.9758 60.8994" stroke="#124342" stroke-width="3" stroke-miterlimit="10" stroke-linecap="round" stroke-linejoin="round"/>
<path d="M54.5997 25.9438H55.481C58.5655 25.9438 61.0665 28.4428 61.0665 31.5294C61.0665 33.0706 60.4408 34.467 59.4307 35.477C58.4186 36.4871 57.0223 37.1129 55.481 37.1129H54.5997" stroke="#124342" stroke-width="3" stroke-miterlimit="10" stroke-linecap="round" stroke-linejoin="round"/>
<path d="M18.7688 37.1129H17.8875C14.801 37.1129 12.302 34.6139 12.302 31.5294C12.302 29.9861 12.9257 28.5897 13.9378 27.5797C14.9479 26.5676 16.3443 25.9438 17.8875 25.9438H18.7688" stroke="#124342" stroke-width="3" stroke-miterlimit="10" stroke-linecap="round" stroke-linejoin="round"/>
<path d="M18.4662 101.999L18.474 85.8159" stroke="#124342" stroke-width="3" stroke-miterlimit="10" stroke-linecap="round" stroke-linejoin="round"/>
<path d="M19.5275 22.5729C24.8194 20.4472 27.4884 19.2733 28.8615 16.9677C29.2943 16.2411 30.3204 16.1564 30.8428 16.8214C34.9593 22.0641 42.8407 22.7536 53.4651 23.4001C54.1021 23.4389 54.5999 23.9669 54.5999 24.6051V37.1796C54.5999 47.059 46.6971 55.2474 36.8178 55.3192C26.8613 55.3916 18.7689 47.344 18.7689 37.4041V23.6935C18.7689 23.2005 19.0699 22.7568 19.5275 22.5729Z" stroke="#124342" stroke-width="3" stroke-miterlimit="10" stroke-linecap="round" stroke-linejoin="round"/>
<path d="M54.9 85.8169L54.892 102" stroke="#124342" stroke-width="3" stroke-miterlimit="10" stroke-linecap="round" stroke-linejoin="round"/>
<path d="M45.0127 30.6226V32.4334" stroke="#124342" stroke-width="3" stroke-miterlimit="10" stroke-linecap="round" stroke-linejoin="round"/>
<path d="M28.3539 30.6226V32.4334" stroke="#124342" stroke-width="3" stroke-miterlimit="10" stroke-linecap="round" stroke-linejoin="round"/>
<path d="M33.1997 45.5C35.277 47.0105 38.0896 47.0105 40.1669 45.5" stroke="#124342" stroke-width="3" stroke-miterlimit="10" stroke-linecap="round" stroke-linejoin="round"/>
<path d="M36.1804 40.0269H37.1865" stroke="#124342" stroke-width="3" stroke-miterlimit="10" stroke-linecap="round" stroke-linejoin="round"/>
<path d="M33.9962 78.521L30.473 102" stroke="#124342" stroke-width="3" stroke-miterlimit="10" stroke-linecap="round" stroke-linejoin="round"/>
<path d="M42.8934 102L39.3702 78.521" stroke="#124342" stroke-width="3" stroke-miterlimit="10" stroke-linecap="round" stroke-linejoin="round"/>
<path d="M32.618 74.3804L32.9681 77.0222C33.1009 78.0222 33.9541 78.7687 34.9621 78.7687H38.4048C39.4128 78.7687 40.2659 78.0222 40.3987 77.0222L40.7488 74.3804" stroke="#124342" stroke-width="3" stroke-miterlimit="10" stroke-linecap="round" stroke-linejoin="round"/>
<path d="M52.1176 62.056L49.0299 58.9683C48.5584 58.4969 47.7941 58.4969 47.3226 58.9683L37.0369 69.254C36.5655 69.7255 36.5655 70.4899 37.0369 70.9613L40.1246 74.049C40.5961 74.5204 41.3605 74.5204 41.8319 74.049L52.1176 63.7633C52.589 63.2919 52.589 62.5275 52.1176 62.056Z" stroke="#124342" stroke-width="3" stroke-miterlimit="10" stroke-linecap="round" stroke-linejoin="round"/>
<path d="M21.2486 62.056L24.3363 58.9683C24.8077 58.4969 25.5721 58.4969 26.0436 58.9683L36.3293 69.254C36.8007 69.7255 36.8007 70.4899 36.3293 70.9613L33.2415 74.049C32.7701 74.5204 32.0057 74.5204 31.5343 74.049L21.2486 63.7633C20.7772 63.2919 20.7772 62.5275 21.2486 62.056Z" stroke="#124342" stroke-width="3" stroke-miterlimit="10" stroke-linecap="round" stroke-linejoin="round"/>
<path d="M40.2256 84.2222L32.4646 88.7234" stroke="#124342" stroke-width="3" stroke-miterlimit="10" stroke-linecap="round" stroke-linejoin="round"/>
<path d="M41.3914 91.9868L31.0779 97.9687" stroke="#124342" stroke-width="3" stroke-miterlimit="10" stroke-linecap="round" stroke-linejoin="round"/>
<path d="M64.8452 95.3605V69.6382" stroke="#124342" stroke-width="3" stroke-miterlimit="10" stroke-linecap="round" stroke-linejoin="round"/>
<path d="M99.1729 95.36V69.6396" stroke="#124342" stroke-width="3" stroke-miterlimit="10" stroke-linecap="round" stroke-linejoin="round"/>
<path d="M75.9014 95.3606V80.3787C75.9014 79.4894 76.6217 78.769 77.511 78.769H86.505C87.3943 78.769 88.1146 79.4894 88.1146 80.3787V95.3606" stroke="#124342" stroke-width="3" stroke-miterlimit="10" stroke-linecap="round" stroke-linejoin="round"/>
<path d="M100.793 102H63.224C62.5572 102 62.0167 101.46 62.0167 100.793V96.5676C62.0167 95.9008 62.5572 95.3604 63.224 95.3604H100.793C101.46 95.3604 102 95.9008 102 96.5676V100.793C102 101.46 101.46 102 100.793 102Z" stroke="#124342" stroke-width="3" stroke-miterlimit="10" stroke-linecap="round" stroke-linejoin="round"/>
<path d="M98.9174 63.0545L101.62 64.7326C101.857 64.8794 102 65.139 102 65.4167V69.9479C102 70.5776 101.306 70.964 100.771 70.632L82.4325 59.2396C82.1729 59.0786 81.8429 59.0786 81.5834 59.2396L63.2454 70.632C62.7102 70.964 62.016 70.5776 62.016 69.9479V65.4167C62.016 65.139 62.1609 64.8794 62.3963 64.7326L81.5834 52.8151C81.8429 52.6541 82.1729 52.6541 82.4325 52.8151L92.9335 59.3362" stroke="#124342" stroke-width="3" stroke-miterlimit="10" stroke-linecap="round" stroke-linejoin="round"/>
<path d="M82.0083 73.3499C83.953 73.3499 85.5294 71.7734 85.5294 69.8287C85.5294 67.8841 83.953 66.3076 82.0083 66.3076C80.0636 66.3076 78.4872 67.8841 78.4872 69.8287C78.4872 71.7734 80.0636 73.3499 82.0083 73.3499Z" stroke="#124342" stroke-width="3" stroke-miterlimit="10" stroke-linecap="round" stroke-linejoin="round"/>
</svg>
