<svg width="100" height="100" viewBox="0 0 100 100" fill="none" xmlns="http://www.w3.org/2000/svg">
<path d="M92.4724 83.0528C91.6303 82.2164 90.4057 81.8934 89.2607 82.2053L86.0274 78.9615C94.5183 67.0536 93.1572 50.7518 82.809 40.4172C82.1431 39.7512 81.4337 39.115 80.7111 38.5154C81.1574 38.1748 81.5594 37.7798 81.9082 37.3399C84.12 34.406 83.5556 30.2377 80.6428 27.9981L45.6776 1.35508C43.2877 -0.451694 39.9889 -0.451694 37.5991 1.35508L26.6518 9.69598V6.66047C26.6518 4.82121 25.1608 3.33011 23.3218 3.33011H13.3318C11.4927 3.33011 10.0018 4.82121 10.0018 6.66047V22.3849L2.62915 28.0016C0.352045 29.7333 -0.564894 32.726 0.351045 35.4363C1.26698 38.1466 3.81109 39.9692 6.67184 39.9644V81.5942C6.67184 83.4335 8.16276 84.9246 10.0018 84.9246H42.7889C53.2286 93.3778 68.0241 93.8287 78.9592 86.0269L82.2009 89.2789C81.8984 90.4192 82.2235 91.6345 83.055 92.4712L88.5495 97.9663C90.2216 99.6978 92.6978 100.392 95.0264 99.7828C97.3549 99.1732 99.1733 97.3545 99.7828 95.0258C100.392 92.6969 99.698 90.2205 97.9666 88.5481L92.4724 83.0528ZM13.3318 6.66047H23.3218V12.2339L13.3318 19.8471V6.66047ZM4.01946 35.33C2.91114 33.8606 3.19264 31.7726 4.65058 30.6492L39.6155 4.00611C40.8078 3.08756 42.4691 3.08756 43.6615 4.00611L78.6264 30.6492C80.0797 31.7693 80.3643 33.8487 79.2658 35.3184C78.8926 35.8081 78.3896 36.1836 77.8139 36.4023C75.6339 34.9949 73.2782 33.8802 70.8075 33.087L42.6458 11.6142C42.0498 11.1601 41.2238 11.1601 40.6279 11.6142L8.6981 35.9562C7.23 37.0628 5.14511 36.7838 4.01946 35.33ZM10.0018 39.0568C10.248 38.9221 10.4855 38.7718 10.7127 38.6072L41.6367 15.0313L63.5382 31.7316C62.8989 31.6916 62.2628 31.6383 61.6168 31.6383C53.664 31.6165 46.0329 34.7776 40.4248 40.4172C39.0355 41.807 37.7841 43.3284 36.6886 44.9598H29.9817C27.2231 44.9598 24.9868 47.1963 24.9868 49.9553V81.5941H10.0018V39.0568ZM28.3167 49.9555C28.3167 49.0358 29.0621 48.2903 29.9817 48.2903H34.7853C29.3078 59.2692 31.1094 72.4826 39.3257 81.5942H28.3167V49.9555ZM42.7805 80.4501C33.7942 71.4617 32.4081 57.3763 39.4697 46.8082C46.5314 36.2401 60.0741 32.1324 71.8156 36.9975C83.5571 41.8626 90.2271 54.3453 87.7467 66.8117C85.2662 79.278 74.326 88.256 61.6167 88.2548C54.5477 88.2744 47.7647 85.464 42.7805 80.4501ZM82.8087 82.8065C83.2033 82.4102 83.5562 81.9855 83.9275 81.5709L86.5815 84.2353L84.224 86.5899L81.5699 83.9256C81.9845 83.5574 82.4108 83.2028 82.8087 82.8065ZM95.6058 95.6052C94.2885 96.8637 92.2146 96.8637 90.8972 95.6052L85.4028 90.11L90.1114 85.4009L95.6058 90.896C96.9059 92.1965 96.9059 94.3046 95.6058 95.6052Z" fill="#124342"/>
</svg>
