<svg width="100" height="100" viewBox="0 0 100 100" fill="none" xmlns="http://www.w3.org/2000/svg">
<path d="M98.3871 48.387H91.9355V32.258H93.5484C93.8673 32.258 94.1791 32.1633 94.4443 31.9861C94.7095 31.8089 94.9161 31.557 95.0382 31.2623C95.1602 30.9676 95.1922 30.6434 95.13 30.3306C95.0678 30.0177 94.9142 29.7304 94.6887 29.5048L65.6565 0.47258C65.354 0.170081 64.9439 9.13506e-05 64.5161 0H35.4839C35.0561 9.13506e-05 34.646 0.170081 34.3435 0.47258L5.31129 29.5048C5.08579 29.7304 4.93223 30.0177 4.87003 30.3306C4.80782 30.6434 4.83976 30.9676 4.96181 31.2623C5.08386 31.557 5.29053 31.8089 5.55571 31.9861C5.82089 32.1633 6.13266 32.258 6.45161 32.258H14.5161V46.7741H1.6129C1.18513 46.7741 0.774886 46.9441 0.472408 47.2465C0.16993 47.549 0 47.9593 0 48.387V77.4193C0 77.847 0.16993 78.2573 0.472408 78.5598C0.774886 78.8622 1.18513 79.0322 1.6129 79.0322H14.5161C14.9439 79.0322 15.3541 78.8622 15.6566 78.5598C15.9591 78.2573 16.129 77.847 16.129 77.4193V75.8064H23.6629L24.7919 76.6322L21.2903 81.2902C21.1613 81.4622 21.068 81.6583 21.0158 81.8669C20.9637 82.0755 20.9538 82.2924 20.9867 82.5049C21.0196 82.7174 21.0946 82.9212 21.2075 83.1042C21.3203 83.2873 21.4685 83.446 21.6435 83.5709L44.2242 99.6999C44.567 99.9446 44.992 100.045 45.4082 99.981C45.8244 99.9165 46.1989 99.6917 46.4516 99.3547L49.7161 94.9999L53.8823 98.0644C54.2237 98.3175 54.6513 98.4256 55.072 98.3652C55.4927 98.3048 55.8726 98.0808 56.129 97.7418L59.8129 92.8305L60.2968 93.2096C60.466 93.3415 60.6599 93.4384 60.867 93.4945C61.0742 93.5506 61.2904 93.5648 61.5031 93.5362C61.7158 93.5077 61.9207 93.437 62.1057 93.3283C62.2907 93.2196 62.4522 93.075 62.5806 92.9031L66.2645 87.9918L66.7484 88.3709C66.9176 88.5028 67.1115 88.5997 67.3186 88.6558C67.5258 88.7119 67.742 88.7261 67.9547 88.6975C68.1674 88.669 68.3723 88.5983 68.5573 88.4896C68.7423 88.3809 68.9038 88.2363 69.0323 88.0644L72.7161 83.1531L73.2 83.5322C73.3692 83.6641 73.5631 83.761 73.7702 83.8171C73.9774 83.8732 74.1936 83.8874 74.4063 83.8588C74.619 83.8303 74.8239 83.7596 75.0089 83.6509C75.1939 83.5422 75.3554 83.3976 75.4839 83.2257L79.8387 77.4193H83.871V79.0322C83.871 79.4599 84.0409 79.8702 84.3434 80.1727C84.6459 80.4751 85.0561 80.6451 85.4839 80.6451H98.3871C98.8149 80.6451 99.2251 80.4751 99.5276 80.1727C99.8301 79.8702 100 79.4599 100 79.0322V49.9999C100 49.5722 99.8301 49.1619 99.5276 48.8595C99.2251 48.557 98.8149 48.387 98.3871 48.387ZM12.9032 75.8064H3.22581V49.9999H12.9032V75.8064ZM89.6548 29.0322H65.1839L39.3774 3.2258H63.8484L89.6548 29.0322ZM35.4839 3.89354L60.6226 29.0322H55.5065L36.6242 10.15C36.3217 9.84762 35.9116 9.67775 35.4839 9.67775C35.0562 9.67775 34.646 9.84762 34.3435 10.15L15.4613 29.0322H10.3452L35.4839 3.89354ZM35.4839 48.387V49.9999H30.6452V41.9354C30.6452 40.6521 31.155 39.4214 32.0624 38.514C32.9698 37.6065 34.2006 37.0967 35.4839 37.0967C36.7672 37.0967 37.9979 37.6065 38.9054 38.514C39.8128 39.4214 40.3226 40.6521 40.3226 41.9354V46.7741H37.0968C36.669 46.7741 36.2588 46.9441 35.9563 47.2465C35.6538 47.549 35.4839 47.9593 35.4839 48.387ZM35.4839 33.8709C33.3458 33.8735 31.2961 34.724 29.7842 36.2358C28.2724 37.7476 27.4219 39.7974 27.4194 41.9354V49.9999H17.7419V31.3129L35.4839 13.571L53.2258 31.3129V46.7741H43.5484V41.9354C43.5458 39.7974 42.6954 37.7476 41.1835 36.2358C39.6717 34.724 37.6219 33.8735 35.4839 33.8709ZM27.3806 78.5483L30.2371 80.6451L27.7419 83.9677L24.8532 81.9047L27.3806 78.5483ZM41.4129 88.8822L39.0403 92.0322L36.1516 89.9693L38.5484 86.7741L41.4129 88.8822ZM33.5339 88.0967L30.3839 85.8386L32.8419 82.5596L35.9597 84.8564L33.5339 88.0967ZM44.8242 96.1612L41.6742 93.9031L44.0097 90.7886L47.1274 93.0838L44.8242 96.1612ZM73.8887 79.9773L60.6629 69.6935L58.6823 72.2419L70.1645 81.1725L67.4323 84.816L54.2065 74.5322L52.2258 77.0806L63.7081 86.0112L60.9758 89.6547L47.75 79.3709L45.7694 81.9193L57.2516 90.8499L54.4935 94.5273L25.15 72.9031C24.8739 72.6961 24.5387 72.583 24.1935 72.5806H16.129V53.2257H35.4839V54.8386C35.4839 55.2664 35.6538 55.6767 35.9563 55.9791C36.2588 56.2816 36.669 56.4515 37.0968 56.4515H51.0661L76.7823 76.1161L73.8887 79.9773ZM79.579 74.1935L52.5919 53.558C52.3113 53.3421 51.967 53.2252 51.6129 53.2257H38.7097V49.9999H54.5774L68.8452 54.7564C69.0095 54.811 69.1816 54.8388 69.3548 54.8386H83.871V74.1935H79.579ZM83.871 49.9999V51.6128H69.6161L62.9032 49.3758V38.7096H82.2581V45.1612H85.4839V37.0967C85.4839 36.669 85.3139 36.2587 85.0115 35.9562C84.709 35.6538 84.2987 35.4838 83.871 35.4838H61.2903C60.8626 35.4838 60.4523 35.6538 60.1498 35.9562C59.8473 36.2587 59.6774 36.669 59.6774 37.0967V48.2999L56.4516 47.2241V32.258H88.7097V48.387H85.4839C85.0561 48.387 84.6459 48.557 84.3434 48.8595C84.0409 49.1619 83.871 49.5722 83.871 49.9999ZM96.7742 77.4193H87.0968V51.6128H96.7742V77.4193Z" fill="#124342"/>
<path d="M35.4841 19.355C34.2081 19.355 32.9607 19.7334 31.8998 20.4423C30.8388 21.1512 30.0119 22.1588 29.5236 23.3377C29.0353 24.5165 28.9075 25.8137 29.1564 27.0652C29.4054 28.3167 30.0198 29.4663 30.9221 30.3686C31.8244 31.2708 32.9739 31.8853 34.2254 32.1342C35.4769 32.3832 36.7741 32.2554 37.953 31.7671C39.1319 31.2788 40.1395 30.4519 40.8484 29.3909C41.5573 28.3299 41.9357 27.0826 41.9357 25.8066C41.9357 24.0955 41.256 22.4545 40.0461 21.2446C38.8362 20.0347 37.1952 19.355 35.4841 19.355ZM35.4841 29.0324C34.8461 29.0324 34.2224 28.8432 33.6919 28.4887C33.1614 28.1343 32.748 27.6305 32.5038 27.041C32.2597 26.4516 32.1958 25.803 32.3203 25.1773C32.4447 24.5515 32.752 23.9767 33.2031 23.5256C33.6542 23.0745 34.229 22.7672 34.8548 22.6428C35.4805 22.5183 36.1291 22.5822 36.7186 22.8263C37.308 23.0705 37.8118 23.4839 38.1662 24.0144C38.5207 24.5449 38.7099 25.1686 38.7099 25.8066C38.7099 26.6621 38.37 27.4826 37.7651 28.0876C37.1601 28.6925 36.3396 29.0324 35.4841 29.0324Z" fill="#124342"/>
</svg>
