<svg width="40" height="40" viewBox="0 0 40 40" fill="none" xmlns="http://www.w3.org/2000/svg">
<rect x="0.25" y="0.25" width="39.5" height="39.5" rx="4.75" stroke="#636363" stroke-width="0.5"/>
<path d="M23.803 23.4529C22.8672 23.4529 22.024 23.8667 21.4388 24.525L16.1754 21.187C16.3159 20.8186 16.3939 20.4185 16.3939 20C16.3939 19.5813 16.3159 19.1812 16.1754 18.813L21.4388 15.4749C22.024 16.1331 22.8672 16.5471 23.803 16.5471C25.5659 16.5471 27 15.0786 27 13.2735C27 11.4684 25.5659 10 23.803 10C22.0401 10 20.606 11.4685 20.606 13.2736C20.606 13.6922 20.6841 14.0923 20.8244 14.4606L15.5612 17.7986C14.976 17.1404 14.1328 16.7264 13.197 16.7264C11.4341 16.7264 10 18.195 10 20C10 21.8051 11.4341 23.2736 13.197 23.2736C14.1328 23.2736 14.976 22.8598 15.5612 22.2014L20.8244 25.5394C20.6841 25.9077 20.606 26.3078 20.606 26.7265C20.606 28.5315 22.0401 30 23.803 30C25.5659 30 27 28.5315 27 26.7265C27 24.9214 25.5659 23.4529 23.803 23.4529ZM21.7717 13.2736C21.7717 12.1268 22.683 11.1937 23.803 11.1937C24.923 11.1937 25.8342 12.1268 25.8342 13.2736C25.8342 14.4205 24.923 15.3535 23.803 15.3535C22.683 15.3535 21.7717 14.4205 21.7717 13.2736ZM13.197 22.0799C12.0768 22.0799 11.1656 21.1469 11.1656 20C11.1656 18.8531 12.0768 17.9201 13.197 17.9201C14.317 17.9201 15.2281 18.8531 15.2281 20C15.2281 21.1469 14.317 22.0799 13.197 22.0799ZM21.7717 26.7264C21.7717 25.5795 22.683 24.6465 23.803 24.6465C24.923 24.6465 25.8342 25.5795 25.8342 26.7264C25.8342 27.8732 24.923 28.8063 23.803 28.8063C22.683 28.8063 21.7717 27.8732 21.7717 26.7264Z" fill="#636363"/>
</svg>
