<svg width="96" height="17" viewBox="0 0 96 17" fill="none" xmlns="http://www.w3.org/2000/svg">
<path d="M17.7235 6.34963C17.5793 5.90731 17.1968 5.58575 16.736 5.51863L12.0674 4.84026L9.98129 0.625077C9.56823 -0.208359 8.20305 -0.208359 7.78999 0.625077L5.70387 4.84026L1.04638 5.51863C0.586814 5.58575 0.204315 5.90844 0.0601279 6.35094C-0.0840593 6.79213 0.035753 7.27738 0.369315 7.60231L3.74731 10.8948L2.95043 15.5401C2.87225 15.9984 3.0605 16.4628 3.43681 16.7365C3.81443 17.009 4.31431 17.0446 4.72493 16.8282L8.88517 14.6345L13.0576 16.8282C13.2361 16.9224 13.4317 16.9689 13.6259 16.9689C13.8788 16.9689 14.1318 16.8894 14.3457 16.7367C14.7222 16.4617 14.9103 15.9985 14.8321 15.5403L14.0365 10.895L17.4145 7.6025C17.7481 7.2785 17.8677 6.79212 17.7235 6.34963Z" fill="#124342"/>
<path d="M37.2777 6.34963C37.1335 5.90731 36.751 5.58575 36.2901 5.51863L31.6216 4.84026L29.5354 0.625077C29.1224 -0.208359 27.7572 -0.208359 27.3441 0.625077L25.258 4.84026L20.6005 5.51863C20.141 5.58575 19.7585 5.90844 19.6143 6.35094C19.4701 6.79213 19.5899 7.27738 19.9235 7.60231L23.3014 10.8948L22.5046 15.5401C22.4264 15.9984 22.6146 16.4641 22.9909 16.7365C23.3674 17.009 23.8684 17.0446 24.2791 16.8282L28.4393 14.6345L32.6117 16.8282C32.7902 16.9224 32.9858 16.9689 33.18 16.9689C33.433 16.9689 33.6859 16.8894 33.8999 16.7367C34.2764 16.4617 34.4644 15.9985 34.3862 15.5403L33.5907 10.895L36.9687 7.6025C37.3022 7.2785 37.4219 6.79212 37.2777 6.34963Z" fill="#124342"/>
<path d="M56.8319 6.34963C56.6877 5.90731 56.3052 5.58575 55.8443 5.51863L51.1757 4.84026L49.0896 0.625077C48.6766 -0.208359 47.3114 -0.208359 46.8983 0.625077L44.8122 4.84026L40.1547 5.51863C39.6952 5.58575 39.3127 5.90844 39.1685 6.35094C39.0243 6.79213 39.1441 7.27738 39.4777 7.60231L42.8556 10.8948L42.0588 15.5401C41.9806 15.9984 42.1688 16.4628 42.5451 16.7365C42.9228 17.009 43.4226 17.0446 43.8333 16.8282L47.9933 14.6345L52.1657 16.8282C52.3442 16.9224 52.5398 16.9689 52.7341 16.9689C52.987 16.9689 53.2399 16.8894 53.4539 16.7367C53.8304 16.4617 54.0184 15.9985 53.9402 15.5403L53.1447 10.895L56.5227 7.6025C56.8564 7.2785 56.9761 6.79212 56.8319 6.34963Z" fill="#124342"/>
<path d="M76.3859 6.34963C76.2418 5.90731 75.8593 5.58575 75.3984 5.51863L70.7298 4.84026L68.6437 0.625077C68.2307 -0.208359 66.8655 -0.208359 66.4524 0.625077L64.3663 4.84026L59.7088 5.51863C59.2492 5.58575 58.8667 5.90844 58.7225 6.35094C58.5784 6.79213 58.6982 7.27738 59.0317 7.60231L62.4097 10.8948L61.6128 15.5401C61.5347 15.9984 61.7229 16.4628 62.0992 16.7365C62.4768 17.009 62.9767 17.0446 63.3873 16.8282L67.5474 14.6345L71.7198 16.8282C71.8983 16.9224 72.0939 16.9689 72.2881 16.9689C72.5411 16.9689 72.794 16.8894 73.008 16.7367C73.3845 16.4617 73.5725 15.9985 73.4943 15.5403L72.6988 10.895L76.0768 7.6025C76.4103 7.2785 76.5301 6.79212 76.3859 6.34963Z" fill="#124342"/>
<path d="M95.9401 6.34963C95.7946 5.90731 95.4134 5.58575 94.9525 5.51863L90.284 4.84026L88.1979 0.625077C87.7848 -0.208359 86.4196 -0.208359 86.0065 0.625077L83.9204 4.84026L79.2629 5.51863C78.8034 5.58575 78.4209 5.90844 78.2767 6.35094C78.1325 6.79213 78.2523 7.27738 78.5859 7.60231L81.9639 10.8948L81.167 15.5401C81.0888 15.9984 81.277 16.4628 81.6534 16.7365C81.866 16.8905 82.1178 16.9687 82.3707 16.9687C82.5663 16.9687 82.7619 16.9222 82.9426 16.828L87.1028 14.6343L91.2764 16.828C91.687 17.0469 92.1856 17.0101 92.5634 16.7352C92.9386 16.4615 93.1268 15.9984 93.0486 15.5399L92.2531 10.8946L95.6311 7.60212C95.9645 7.2785 96.0831 6.79212 95.9401 6.34963Z" fill="#124342"/>
</svg>
