<svg width="16" height="16" viewBox="0 0 16 16" fill="none" xmlns="http://www.w3.org/2000/svg">
<path d="M0.473673 7.0293C0.212068 7.0293 0 7.24123 0 7.50261V14.4544C0 14.7158 0.212099 14.9277 0.473673 14.9277H3.3275V7.0293H0.473673Z" fill="#124342"/>
<path d="M16.0005 9.64334C16.0005 9.0425 15.6774 8.51563 15.1958 8.22706C15.3803 7.96078 15.4885 7.63775 15.4885 7.29003C15.4885 6.38025 14.7478 5.64006 13.8373 5.64006H10.3516C10.4584 5.15631 10.6046 4.43041 10.7063 3.6705C10.971 1.69297 10.7901 0.596252 10.1369 0.219096C9.72963 -0.0159978 9.29055 -0.0636853 8.9005 0.0846897C8.59918 0.199377 8.19225 0.481346 7.96035 1.17338L7.04422 3.57028C6.57977 4.71644 5.15747 5.91972 4.27539 6.58506V15.1375C5.9102 15.7099 7.61612 16 9.35651 16H13.1546C14.0651 16 14.8058 15.2598 14.8058 14.35C14.8058 14.0314 14.715 13.7336 14.5578 13.4812C15.1083 13.2133 15.4885 12.6485 15.4885 11.9967C15.4885 11.6489 15.3802 11.326 15.1957 11.0597C15.6774 10.7711 16.0005 10.2442 16.0005 9.64334Z" fill="#124342"/>
</svg>
