<svg width="222" height="60" viewBox="0 0 222 60" fill="none" xmlns="http://www.w3.org/2000/svg">
<rect width="222" height="60" rx="8" fill="#1C9BEF"/>
<path d="M73.8743 27.2727C73.8061 26.697 73.5296 26.25 73.0447 25.9318C72.5599 25.6136 71.9652 25.4545 71.2607 25.4545C70.7455 25.4545 70.2947 25.5379 69.9084 25.7045C69.5258 25.8712 69.2266 26.1004 69.0107 26.392C68.7985 26.6837 68.6925 27.0152 68.6925 27.3864C68.6925 27.697 68.7663 27.964 68.9141 28.1875C69.0656 28.4072 69.2588 28.5909 69.4936 28.7386C69.7285 28.8826 69.9747 29.0019 70.2322 29.0966C70.4898 29.1875 70.7266 29.2614 70.9425 29.3182L72.1243 29.6364C72.4273 29.7159 72.7644 29.8258 73.1357 29.9659C73.5107 30.1061 73.8686 30.2973 74.2095 30.5398C74.5542 30.7784 74.8383 31.0852 75.0618 31.4602C75.2853 31.8352 75.397 32.2955 75.397 32.8409C75.397 33.4697 75.2322 34.0379 74.9027 34.5455C74.5769 35.053 74.0997 35.4564 73.4709 35.7557C72.8459 36.0549 72.0864 36.2045 71.1925 36.2045C70.3591 36.2045 69.6375 36.0701 69.0277 35.8011C68.4216 35.5322 67.9444 35.1572 67.5959 34.6761C67.2512 34.1951 67.0561 33.6364 67.0107 33H68.4652C68.5031 33.4394 68.6508 33.803 68.9084 34.0909C69.1697 34.375 69.4993 34.5871 69.897 34.7273C70.2985 34.8636 70.7304 34.9318 71.1925 34.9318C71.7304 34.9318 72.2133 34.8447 72.6413 34.6705C73.0694 34.4924 73.4084 34.2462 73.6584 33.9318C73.9084 33.6136 74.0334 33.2424 74.0334 32.8182C74.0334 32.4318 73.9254 32.1174 73.7095 31.875C73.4936 31.6326 73.2095 31.4356 72.8572 31.2841C72.505 31.1326 72.1243 31 71.7152 30.8864L70.2834 30.4773C69.3743 30.2159 68.6546 29.8428 68.1243 29.358C67.594 28.8731 67.3288 28.2386 67.3288 27.4545C67.3288 26.803 67.505 26.2348 67.8572 25.75C68.2133 25.2614 68.6906 24.8826 69.2891 24.6136C69.8913 24.3409 70.5637 24.2045 71.3061 24.2045C72.0561 24.2045 72.7228 24.339 73.3061 24.608C73.8894 24.8731 74.3516 25.2367 74.6925 25.6989C75.0372 26.161 75.219 26.6856 75.2379 27.2727H73.8743ZM78.8729 30.75V36H77.532V24.3636H78.8729V28.6364H78.9865C79.1911 28.1856 79.4979 27.8277 79.907 27.5625C80.3198 27.2936 80.8691 27.1591 81.5547 27.1591C82.1494 27.1591 82.6702 27.2784 83.1172 27.517C83.5642 27.7519 83.9107 28.1136 84.157 28.6023C84.407 29.0871 84.532 29.7045 84.532 30.4545V36H83.1911V30.5455C83.1911 29.8523 83.0111 29.3163 82.6513 28.9375C82.2952 28.5549 81.8009 28.3636 81.1683 28.3636C80.7289 28.3636 80.335 28.4564 79.9865 28.642C79.6418 28.8277 79.3691 29.0985 79.1683 29.4545C78.9714 29.8106 78.8729 30.2424 78.8729 30.75ZM89.5533 36.2045C89.0002 36.2045 88.4983 36.1004 88.0476 35.892C87.5968 35.6799 87.2389 35.375 86.9737 34.9773C86.7086 34.5758 86.576 34.0909 86.576 33.5227C86.576 33.0227 86.6745 32.6174 86.8714 32.3068C87.0684 31.9924 87.3317 31.7462 87.6612 31.5682C87.9908 31.3902 88.3544 31.2576 88.7521 31.1705C89.1536 31.0795 89.5571 31.0076 89.9624 30.9545C90.4927 30.8864 90.9226 30.8352 91.2521 30.8011C91.5855 30.7633 91.8279 30.7008 91.9794 30.6136C92.1347 30.5265 92.2124 30.375 92.2124 30.1591V30.1136C92.2124 29.553 92.0589 29.1174 91.7521 28.8068C91.4491 28.4962 90.9889 28.3409 90.3714 28.3409C89.7313 28.3409 89.2294 28.4811 88.8658 28.7614C88.5021 29.0417 88.2464 29.3409 88.0987 29.6591L86.826 29.2045C87.0533 28.6742 87.3563 28.2614 87.7351 27.9659C88.1177 27.6667 88.5343 27.4583 88.9851 27.3409C89.4396 27.2197 89.8866 27.1591 90.326 27.1591C90.6063 27.1591 90.9283 27.1932 91.2919 27.2614C91.6593 27.3258 92.0135 27.4602 92.3544 27.6648C92.6991 27.8693 92.9851 28.178 93.2124 28.5909C93.4396 29.0038 93.5533 29.5568 93.5533 30.25V36H92.2124V34.8182H92.1442C92.0533 35.0076 91.9018 35.2102 91.6896 35.4261C91.4775 35.642 91.1953 35.8258 90.843 35.9773C90.4908 36.1288 90.0608 36.2045 89.5533 36.2045ZM89.7578 35C90.2881 35 90.7351 34.8958 91.0987 34.6875C91.4661 34.4792 91.7427 34.2102 91.9283 33.8807C92.1177 33.5511 92.2124 33.2045 92.2124 32.8409V31.6136C92.1555 31.6818 92.0305 31.7443 91.8374 31.8011C91.648 31.8542 91.4283 31.9015 91.1783 31.9432C90.9321 31.9811 90.6915 32.0152 90.4567 32.0455C90.2256 32.072 90.0381 32.0947 89.8942 32.1136C89.5457 32.1591 89.2199 32.233 88.9169 32.3352C88.6177 32.4337 88.3752 32.5833 88.1896 32.7841C88.0078 32.9811 87.9169 33.25 87.9169 33.5909C87.9169 34.0568 88.0893 34.4091 88.4339 34.6477C88.7824 34.8826 89.2237 35 89.7578 35ZM96.0007 36V27.2727H97.2962V28.5909H97.3871C97.5462 28.1591 97.834 27.8087 98.2507 27.5398C98.6674 27.2708 99.1371 27.1364 99.6598 27.1364C99.7583 27.1364 99.8814 27.1383 100.029 27.142C100.177 27.1458 100.289 27.1515 100.364 27.1591V28.5227C100.319 28.5114 100.215 28.4943 100.052 28.4716C99.8928 28.4451 99.7242 28.4318 99.5462 28.4318C99.1219 28.4318 98.7431 28.5208 98.4098 28.6989C98.0803 28.8731 97.8189 29.1155 97.6257 29.4261C97.4363 29.733 97.3416 30.0833 97.3416 30.4773V36H96.0007ZM105.347 36.1818C104.506 36.1818 103.781 35.9962 103.171 35.625C102.565 35.25 102.097 34.7273 101.768 34.0568C101.442 33.3826 101.279 32.5985 101.279 31.7045C101.279 30.8106 101.442 30.0227 101.768 29.3409C102.097 28.6553 102.556 28.1212 103.143 27.7386C103.734 27.3523 104.423 27.1591 105.211 27.1591C105.665 27.1591 106.114 27.2348 106.558 27.3864C107.001 27.5379 107.404 27.7841 107.768 28.125C108.131 28.4621 108.421 28.9091 108.637 29.4659C108.853 30.0227 108.961 30.7083 108.961 31.5227V32.0909H102.234V30.9318H107.597C107.597 30.4394 107.499 30 107.302 29.6136C107.109 29.2273 106.832 28.9223 106.472 28.6989C106.116 28.4754 105.696 28.3636 105.211 28.3636C104.677 28.3636 104.215 28.4962 103.825 28.7614C103.438 29.0227 103.141 29.3636 102.933 29.7841C102.724 30.2045 102.62 30.6553 102.62 31.1364V31.9091C102.62 32.5682 102.734 33.1269 102.961 33.5852C103.192 34.0398 103.512 34.3864 103.921 34.625C104.33 34.8598 104.806 34.9773 105.347 34.9773C105.7 34.9773 106.018 34.928 106.302 34.8295C106.59 34.7273 106.838 34.5758 107.046 34.375C107.254 34.1705 107.415 33.9167 107.529 33.6136L108.825 33.9773C108.688 34.4167 108.459 34.803 108.137 35.1364C107.815 35.4659 107.417 35.7235 106.944 35.9091C106.47 36.0909 105.938 36.1818 105.347 36.1818ZM119.296 27.2727V28.4091H114.773V27.2727H119.296ZM116.092 25.1818H117.433V33.5C117.433 33.8788 117.487 34.1629 117.597 34.3523C117.711 34.5379 117.855 34.6629 118.029 34.7273C118.207 34.7879 118.395 34.8182 118.592 34.8182C118.739 34.8182 118.861 34.8106 118.955 34.7955C119.05 34.7765 119.126 34.7614 119.183 34.75L119.455 35.9545C119.364 35.9886 119.237 36.0227 119.075 36.0568C118.912 36.0947 118.705 36.1136 118.455 36.1136C118.076 36.1136 117.705 36.0322 117.342 35.8693C116.982 35.7064 116.683 35.4583 116.444 35.125C116.209 34.7917 116.092 34.3712 116.092 33.8636V25.1818ZM124.765 36.1818C123.977 36.1818 123.286 35.9943 122.691 35.6193C122.1 35.2443 121.638 34.7197 121.305 34.0455C120.975 33.3712 120.81 32.5833 120.81 31.6818C120.81 30.7727 120.975 29.9792 121.305 29.3011C121.638 28.6231 122.1 28.0966 122.691 27.7216C123.286 27.3466 123.977 27.1591 124.765 27.1591C125.553 27.1591 126.242 27.3466 126.833 27.7216C127.428 28.0966 127.89 28.6231 128.219 29.3011C128.553 29.9792 128.719 30.7727 128.719 31.6818C128.719 32.5833 128.553 33.3712 128.219 34.0455C127.89 34.7197 127.428 35.2443 126.833 35.6193C126.242 35.9943 125.553 36.1818 124.765 36.1818ZM124.765 34.9773C125.363 34.9773 125.856 34.8239 126.242 34.517C126.629 34.2102 126.915 33.8068 127.1 33.3068C127.286 32.8068 127.379 32.2652 127.379 31.6818C127.379 31.0985 127.286 30.5549 127.1 30.0511C126.915 29.5473 126.629 29.1402 126.242 28.8295C125.856 28.5189 125.363 28.3636 124.765 28.3636C124.166 28.3636 123.674 28.5189 123.288 28.8295C122.901 29.1402 122.615 29.5473 122.43 30.0511C122.244 30.5549 122.151 31.0985 122.151 31.6818C122.151 32.2652 122.244 32.8068 122.43 33.3068C122.615 33.8068 122.901 34.2102 123.288 34.517C123.674 34.8239 124.166 34.9773 124.765 34.9773ZM134.812 25.6136V24.3636H143.539V25.6136H139.88V36H138.471V25.6136H134.812ZM146.509 36L143.85 27.2727H145.259L147.146 33.9545H147.237L149.1 27.2727H150.532L152.373 33.9318H152.464L154.35 27.2727H155.759L153.1 36H151.782L149.873 29.2955H149.737L147.827 36H146.509ZM157.532 36V27.2727H158.873V36H157.532ZM158.214 25.8182C157.952 25.8182 157.727 25.7292 157.538 25.5511C157.352 25.3731 157.259 25.1591 157.259 24.9091C157.259 24.6591 157.352 24.4451 157.538 24.267C157.727 24.089 157.952 24 158.214 24C158.475 24 158.699 24.089 158.884 24.267C159.074 24.4451 159.168 24.6591 159.168 24.9091C159.168 25.1591 159.074 25.3731 158.884 25.5511C158.699 25.7292 158.475 25.8182 158.214 25.8182ZM165.124 27.2727V28.4091H160.602V27.2727H165.124ZM161.92 25.1818H163.261V33.5C163.261 33.8788 163.316 34.1629 163.425 34.3523C163.539 34.5379 163.683 34.6629 163.857 34.7273C164.035 34.7879 164.223 34.8182 164.42 34.8182C164.567 34.8182 164.689 34.8106 164.783 34.7955C164.878 34.7765 164.954 34.7614 165.011 34.75L165.283 35.9545C165.192 35.9886 165.066 36.0227 164.903 36.0568C164.74 36.0947 164.533 36.1136 164.283 36.1136C163.905 36.1136 163.533 36.0322 163.17 35.8693C162.81 35.7064 162.511 35.4583 162.272 35.125C162.037 34.7917 161.92 34.3712 161.92 33.8636V25.1818ZM170.937 27.2727V28.4091H166.414V27.2727H170.937ZM167.732 25.1818H169.073V33.5C169.073 33.8788 169.128 34.1629 169.238 34.3523C169.352 34.5379 169.496 34.6629 169.67 34.7273C169.848 34.7879 170.035 34.8182 170.232 34.8182C170.38 34.8182 170.501 34.8106 170.596 34.7955C170.691 34.7765 170.766 34.7614 170.823 34.75L171.096 35.9545C171.005 35.9886 170.878 36.0227 170.715 36.0568C170.552 36.0947 170.346 36.1136 170.096 36.1136C169.717 36.1136 169.346 36.0322 168.982 35.8693C168.622 35.7064 168.323 35.4583 168.085 35.125C167.85 34.7917 167.732 34.3712 167.732 33.8636V25.1818ZM176.519 36.1818C175.678 36.1818 174.953 35.9962 174.343 35.625C173.737 35.25 173.269 34.7273 172.94 34.0568C172.614 33.3826 172.451 32.5985 172.451 31.7045C172.451 30.8106 172.614 30.0227 172.94 29.3409C173.269 28.6553 173.728 28.1212 174.315 27.7386C174.906 27.3523 175.595 27.1591 176.383 27.1591C176.837 27.1591 177.286 27.2348 177.729 27.3864C178.173 27.5379 178.576 27.7841 178.94 28.125C179.303 28.4621 179.593 28.9091 179.809 29.4659C180.025 30.0227 180.133 30.7083 180.133 31.5227V32.0909H173.406V30.9318H178.769C178.769 30.4394 178.671 30 178.474 29.6136C178.281 29.2273 178.004 28.9223 177.644 28.6989C177.288 28.4754 176.868 28.3636 176.383 28.3636C175.849 28.3636 175.387 28.4962 174.996 28.7614C174.61 29.0227 174.313 29.3636 174.104 29.7841C173.896 30.2045 173.792 30.6553 173.792 31.1364V31.9091C173.792 32.5682 173.906 33.1269 174.133 33.5852C174.364 34.0398 174.684 34.3864 175.093 34.625C175.502 34.8598 175.978 34.9773 176.519 34.9773C176.871 34.9773 177.19 34.928 177.474 34.8295C177.762 34.7273 178.01 34.5758 178.218 34.375C178.426 34.1705 178.587 33.9167 178.701 33.6136L179.996 33.9773C179.86 34.4167 179.631 34.803 179.309 35.1364C178.987 35.4659 178.589 35.7235 178.116 35.9091C177.642 36.0909 177.11 36.1818 176.519 36.1818ZM182.173 36V27.2727H183.468V28.5909H183.559C183.718 28.1591 184.006 27.8087 184.423 27.5398C184.839 27.2708 185.309 27.1364 185.832 27.1364C185.93 27.1364 186.053 27.1383 186.201 27.142C186.349 27.1458 186.46 27.1515 186.536 27.1591V28.5227C186.491 28.5114 186.387 28.4943 186.224 28.4716C186.065 28.4451 185.896 28.4318 185.718 28.4318C185.294 28.4318 184.915 28.5208 184.582 28.6989C184.252 28.8731 183.991 29.1155 183.798 29.4261C183.608 29.733 183.513 30.0833 183.513 30.4773V36H182.173Z" fill="white"/>
<path d="M44.0389 20C38.5035 20 34 24.486 34 30C34 35.5136 38.5035 40 44.0389 40C49.5739 40 54.0777 35.5136 54.0777 30C54.0777 24.486 49.5747 20 44.0389 20ZM48.5172 27.7113C48.5217 27.8104 48.5241 27.9103 48.5241 28.0102C48.5241 31.0517 46.2006 34.5577 41.9495 34.5577C40.6446 34.5577 39.4299 34.1779 38.4076 33.5245C38.5884 33.5459 38.7724 33.5568 38.9588 33.5568C40.0417 33.5568 41.0376 33.1886 41.8286 32.5715C40.8177 32.553 39.964 31.8875 39.6701 30.9728C39.8108 30.9994 39.9559 31.0143 40.1044 31.0143C40.315 31.0143 40.5196 30.9869 40.7133 30.9341C39.6563 30.723 38.8601 29.793 38.8601 28.6772C38.8601 28.6675 38.8601 28.6575 38.8605 28.6482C39.1719 28.8202 39.5281 28.9241 39.9066 28.9358C39.2871 28.5237 38.8791 27.8188 38.8791 27.0205C38.8791 26.5983 38.9927 26.2028 39.1917 25.8628C40.3308 27.2557 42.034 28.1717 43.9539 28.2683C43.9143 28.0996 43.8945 27.9244 43.8945 27.7435C43.8945 26.4727 44.9289 25.4419 46.2047 25.4419C46.8694 25.4419 47.4691 25.7214 47.8913 26.1685C48.4182 26.0654 48.9115 25.8745 49.3591 25.6098C49.1853 26.1476 48.8201 26.5983 48.3417 26.8835C48.8096 26.8279 49.256 26.7047 49.6689 26.5214C49.3608 26.9822 48.9689 27.3878 48.5172 27.7113Z" fill="white"/>
</svg>
