<svg width="80" height="80" viewBox="0 0 80 80" fill="none" xmlns="http://www.w3.org/2000/svg">
<circle cx="40" cy="40" r="40" fill="#EDFBF4"/>
<path d="M58.9217 28.7589C58.5559 25.2466 57.9732 22.512 57.0513 21.4371C53.2506 17.0175 26.6265 16.694 23.6036 21.4371C22.8641 22.5991 22.3455 25.3241 21.9975 28.7647C20.8745 28.8945 20 29.8231 20 30.96V35.2624C20 36.2192 20.6172 37.0258 21.4789 37.3406C21.2748 44.1172 21.4404 51.1872 21.7461 54.7034C21.7461 57.4177 23.6026 56.9674 23.6026 56.9674H25.3428V59.8977C25.3428 61.0597 26.5624 62 28.0649 62C29.5695 62 30.7891 61.0597 30.7891 59.8977V56.9674H51.0342V59.8977C51.0342 61.0597 52.2528 62 53.7573 62C55.2599 62 56.4795 61.0597 56.4795 59.8977V56.9674H57.0513C57.0513 56.9674 59.2362 57.2618 59.3762 55.9835C59.3762 52.4771 59.601 44.7059 59.4156 37.3706C60.3315 37.0888 61 36.2599 61 35.2624V30.96C61.001 29.796 60.0841 28.8519 58.9217 28.7589ZM30.1058 22.0675H50.5491V25.1052H30.1058V22.0675ZM30.3976 53.5074C28.7925 53.5074 27.4921 52.2292 27.4921 50.6527C27.4921 49.0772 28.7925 47.7999 30.3976 47.7999C32.0027 47.7999 33.3042 49.0772 33.3042 50.6527C33.3042 52.2292 32.0037 53.5074 30.3976 53.5074ZM50.4397 53.5074C48.8356 53.5074 47.5322 52.2292 47.5322 50.6527C47.5322 49.0772 48.8346 47.7999 50.4397 47.7999C52.0448 47.7999 53.3452 49.0772 53.3452 50.6527C53.3462 52.2292 52.0448 53.5074 50.4397 53.5074ZM54.134 41.0155H26.521V26.7902H54.134V41.0155Z" fill="#124342"/>
</svg>
