<svg width="80" height="80" viewBox="0 0 80 80" fill="none" xmlns="http://www.w3.org/2000/svg">
<circle cx="40" cy="40" r="40" fill="#EDFBF4"/>
<path d="M48 26.5854C50.2001 26.5854 52.0001 24.6537 52.0001 22.2927C52.0001 19.9317 50.2001 18 48 18C45.8 18 44 19.9317 44 22.2927C44 24.6537 45.8 26.5854 48 26.5854Z" fill="#124342"/>
<path d="M27 40.5371C21.5 40.5371 17 45.3664 17 51.2688C17 57.1713 21.5 62.0006 27 62.0006C32.5001 62.0006 37.0001 57.1713 37.0001 51.2688C37.0001 45.3664 32.5 40.5371 27 40.5371ZM27 58.781C23.1 58.781 20 55.4542 20 51.2688C20 47.0835 23.1 43.7566 27 43.7566C30.9 43.7566 34.0001 47.0835 34.0001 51.2688C34.0001 55.4542 30.9 58.781 27 58.781Z" fill="#124342"/>
<path d="M54.9001 38.2824V33.9897C51.9001 33.9897 49.4001 32.8092 47.6001 30.8775L43.7001 26.7995C43.1001 26.0483 42.1 25.5117 41.0001 25.5117C39.9001 25.5117 38.9001 25.941 38.2 26.7995L32.7 32.702C32 33.4532 31.5 34.5263 31.5 35.7069C31.5 36.8874 32 37.9605 32.7 38.819L39 44.8288V55.5605H43V42.1458L38.6001 37.4239L43.3 32.2727L44.8 33.8824C47.3001 36.6726 50.8 38.2824 54.9001 38.2824Z" fill="#124342"/>
<path d="M55 40.5371C49.5 40.5371 45 45.3664 45 51.2688C45 57.1713 49.5 62.0006 55 62.0006C60.5001 62.0006 65.0001 57.1713 65.0001 51.2688C65.0001 45.3664 60.5001 40.5371 55 40.5371ZM55 58.781C51.1 58.781 48 55.4542 48 51.2688C48 47.0835 51.1 43.7566 55 43.7566C58.9 43.7566 62.0001 47.0835 62.0001 51.2688C62.0001 55.4542 58.9 58.781 55 58.781Z" fill="#124342"/>
</svg>
