<svg width="21" height="20" viewBox="0 0 21 20" fill="none" xmlns="http://www.w3.org/2000/svg">
<g opacity="0.5">
<path d="M9.51917 11.8739L12.7847 10.0004L9.51917 8.12695V11.8739Z" fill="white"/>
<path d="M10.7695 0C5.22599 0 0.730591 4.478 0.730591 10C0.730591 15.522 5.22599 20 10.7695 20C16.3129 20 20.8083 15.522 20.8083 10C20.8083 4.478 16.3129 0 10.7695 0ZM17.0422 10.0102C17.0422 10.0102 17.0422 12.0383 16.7839 13.0162C16.6392 13.5515 16.2155 13.9735 15.6781 14.1176C14.6964 14.375 10.7695 14.375 10.7695 14.375C10.7695 14.375 6.85277 14.375 5.86077 14.1074C5.32341 13.9633 4.89971 13.5411 4.75496 13.0058C4.49654 12.0383 4.49654 10 4.49654 10C4.49654 10 4.49654 7.97211 4.75496 6.99417C4.89956 6.45889 5.33368 6.02646 5.86077 5.88242C6.84251 5.625 10.7695 5.625 10.7695 5.625C10.7695 5.625 14.6964 5.625 15.6781 5.89264C16.2155 6.03668 16.6392 6.45889 16.7839 6.99417C17.0526 7.97211 17.0422 10.0102 17.0422 10.0102Z" fill="white"/>
</g>
</svg>
