<?xml version="1.0" encoding="utf-8"?>
<!-- Generator: Adobe Illustrator 26.0.2, SVG Export Plug-In . SVG Version: 6.00 Build 0)  -->
<svg version="1.1" id="Layer_1" xmlns="http://www.w3.org/2000/svg" xmlns:xlink="http://www.w3.org/1999/xlink" x="0px" y="0px"
	 viewBox="0 0 63.2 63.2" style="enable-background:new 0 0 63.2 63.2;" xml:space="preserve">
<style type="text/css">
	.st0{fill:#495662;}
</style>
<g id="Mask_Group_119" transform="rotate(45 15.805 38.157)">
	<g id="Your_upcoming_flights" transform="rotate(-45 15.739 37.994)">
		<path id="Path_1074-2" class="st0" d="M45.3,34.8c1.9-0.2,3.7-0.9,5.2-2.1c0.3-0.2,0.5-0.6,0.6-0.9c0-0.1,0-0.2,0-0.2
			c0-0.1,0-0.2,0-0.2c-0.1-0.4-0.3-0.7-0.6-0.9c-1.5-1.2-3.3-1.9-5.2-2.1c-2.3-0.2-4.6-0.3-7-0.1l-1.6,0l-2-3.7l0,0
			c0.5,0,0.9-0.4,0.9-0.9l0-1c0-0.2-0.1-0.5-0.3-0.6c-0.2-0.2-0.4-0.3-0.6-0.3l-1.5,0L33,21.3c0.4-0.1,0.8-0.4,0.8-0.9v-1
			c0-0.2-0.1-0.5-0.3-0.6c-0.2-0.2-0.4-0.3-0.6-0.3l-1.4,0l-2-3.7c0-0.1-0.1-0.2-0.2-0.2c-0.2-0.2-0.5-0.3-0.7-0.3l-2,0
			c-0.2,0-0.4,0.1-0.6,0.2c-0.2,0.2-0.3,0.5-0.2,0.8l2.7,9.4c0,0.1,0,0.2,0,0.3l0,3.4c-3.3,0.1-6.4,0.3-8.9,0.6
			c-0.2,0-0.5,0.1-0.7,0.1L14.6,24c0,0,0-0.1-0.1-0.1c-0.2-0.2-0.5-0.3-0.8-0.3h-0.9c-0.2,0-0.4,0.1-0.6,0.2
			c-0.2,0.2-0.3,0.6-0.2,0.9l1.7,4.8c0,0.1,0,0.1,0,0.2l0,0.5c-0.3,0.1-0.5,0.3-0.8,0.5c-0.2,0.2-0.4,0.5-0.4,0.8l0,0
			c0,0.3,0.1,0.6,0.4,0.8c0.2,0.2,0.5,0.4,0.8,0.5l0,0.6c0,0.1,0,0.1,0,0.2L12,38.5c-0.1,0.3,0,0.6,0.2,0.9c0.2,0.2,0.4,0.2,0.6,0.2
			l1,0c0.3,0,0.6-0.1,0.8-0.3l0.1-0.1l4.2-5.1c0.2,0,0.5,0.1,0.7,0.1c2.5,0.3,5.6,0.5,8.9,0.6l0,3.4c0,0.1,0,0.2,0,0.3l-2.7,9.4
			c-0.1,0.4,0.1,0.9,0.5,1c0.1,0,0.2,0,0.3,0l2,0c0.3,0,0.5-0.1,0.7-0.3c0.1-0.1,0.1-0.1,0.2-0.2l2-3.7l1.4,0c0.5,0,0.9-0.4,0.9-0.9
			v-1c0-0.4-0.3-0.8-0.8-0.9l0.3-0.5l1.5,0c0.2,0,0.5-0.1,0.6-0.3c0.2-0.2,0.3-0.4,0.3-0.6v-1c0-0.5-0.4-0.9-0.9-0.9c0,0,0,0,0,0
			l0,0l2-3.6c0.6,0,1.1,0,1.6,0C40.6,35.1,43,35.1,45.3,34.8L45.3,34.8z"/>
	</g>
</g>
</svg>
